<svg width="16" height="16" viewBox="0 0 16 16" fill="none" xmlns="http://www.w3.org/2000/svg">
<path d="M1.04368 1.11083C-0.210046 2.41282 0.0465482 3.7959 0.0465482 7.99763C0.0465482 11.4869 -0.562364 14.9848 2.62445 15.8083C3.61959 16.0641 12.4368 16.0641 13.4307 15.8069C14.7575 15.4646 15.8371 14.3886 15.9846 12.5124C16.0052 12.2505 16.0052 3.74938 15.984 3.4822C15.8271 1.48368 14.5966 0.331896 12.9753 0.0986141C12.6037 0.0447798 12.5292 0.0288289 10.6227 0.0255058C3.86023 0.0288289 2.37783 -0.272244 1.04368 1.11083Z" fill="url(#paint0_linear)"/>
<path d="M8.00012 3.00482C5.95213 3.00482 4.00736 2.82278 3.26453 4.72769C2.9577 5.51446 3.00226 6.53623 3.00226 7.9993C3.00226 9.28314 2.96108 10.4898 3.26453 11.2703C4.00567 13.1764 5.96623 12.9938 7.999 12.9938C9.96013 12.9938 11.9822 13.1978 12.734 11.2703C13.0414 10.4757 12.9963 9.46912 12.9963 7.9993C12.9963 6.04817 13.104 4.78856 12.157 3.84287C11.1982 2.88478 9.90147 3.00482 7.99787 3.00482H8.00012ZM7.55228 3.90486C11.8242 3.8981 12.368 3.42356 12.0679 10.0158C11.9613 12.3473 10.1846 12.0915 8.00069 12.0915C4.01864 12.0915 3.90414 11.9776 3.90414 7.99704C3.90414 3.97024 4.22 3.90712 7.55228 3.90374V3.90486ZM10.668 4.73389C10.3369 4.73389 10.0684 5.00216 10.0684 5.33298C10.0684 5.66381 10.3369 5.93207 10.668 5.93207C10.9991 5.93207 11.2675 5.66381 11.2675 5.33298C11.2675 5.00216 10.9991 4.73389 10.668 4.73389ZM8.00012 5.43443C6.58272 5.43443 5.43379 6.58301 5.43379 7.9993C5.43379 9.41558 6.58272 10.5636 8.00012 10.5636C9.41753 10.5636 10.5659 9.41558 10.5659 7.9993C10.5659 6.58301 9.41753 5.43443 8.00012 5.43443ZM8.00012 6.33447C10.2027 6.33447 10.2055 9.66412 8.00012 9.66412C5.79815 9.66412 5.79477 6.33447 8.00012 6.33447Z" fill="white"/>
<defs>
<linearGradient id="paint0_linear" x1="1.07427" y1="14.9576" x2="15.8994" y2="2.12414" gradientUnits="userSpaceOnUse">
<stop stop-color="#FFDD55"/>
<stop offset="0.5" stop-color="#FF543E"/>
<stop offset="1" stop-color="#C837AB"/>
</linearGradient>
</defs>
</svg>
