<svg width="15" height="16" viewBox="0 0 15 16" fill="none" xmlns="http://www.w3.org/2000/svg">
<g clip-path="url(#clip0)">
<path d="M7.50187 0.0952148H7.49813C3.36281 0.0952148 0 3.45896 0 7.59521C0 9.23584 0.52875 10.7565 1.42781 11.9912L0.493125 14.7774L3.37594 13.8558C4.56187 14.6415 5.97656 15.0952 7.50187 15.0952C11.6372 15.0952 15 11.7305 15 7.59521C15 3.4599 11.6372 0.0952148 7.50187 0.0952148ZM11.8659 10.6862C11.685 11.1971 10.9669 11.6208 10.3941 11.7446C10.0022 11.828 9.49031 11.8946 7.76719 11.1802C5.56312 10.2671 4.14375 8.0274 4.03312 7.88209C3.92719 7.73678 3.1425 6.69615 3.1425 5.6199C3.1425 4.54365 3.68906 4.01959 3.90938 3.79459C4.09031 3.6099 4.38937 3.52553 4.67625 3.52553C4.76906 3.52553 4.8525 3.53021 4.9275 3.53396C5.14781 3.54334 5.25844 3.55647 5.40375 3.90428C5.58469 4.34022 6.02531 5.41646 6.07781 5.52709C6.13125 5.63771 6.18469 5.78771 6.10969 5.93303C6.03938 6.08303 5.9775 6.14959 5.86687 6.27709C5.75625 6.40459 5.65125 6.50209 5.54062 6.63896C5.43937 6.75803 5.325 6.88553 5.4525 7.10584C5.58 7.32147 6.02063 8.04053 6.66937 8.61803C7.50656 9.36334 8.18531 9.60147 8.42812 9.70271C8.60906 9.77771 8.82469 9.7599 8.95687 9.61928C9.12469 9.43834 9.33187 9.13834 9.54281 8.84303C9.69281 8.63115 9.88219 8.6049 10.0809 8.6799C10.2834 8.75021 11.355 9.2799 11.5753 9.38959C11.7956 9.50021 11.9409 9.55272 11.9944 9.64553C12.0469 9.73834 12.0469 10.1743 11.8659 10.6862Z" fill="rgb(65, 255, 219)"/>
</g>
<defs>
<clipPath id="clip0">
<rect width="15" height="15" fill="white" transform="translate(0 0.0952148)"/>
</clipPath>
</defs>
</svg>
