<svg width="16" height="16" viewBox="0 0 16 16" fill="none" xmlns="http://www.w3.org/2000/svg">
<path d="M8 16C12.4183 16 16 12.4183 16 8C16 3.58172 12.4183 0 8 0C3.58172 0 0 3.58172 0 8C0 12.4183 3.58172 16 8 16Z" fill="#039BE5"/>
<path d="M3.66084 7.8268L11.3742 4.8528C11.7322 4.72347 12.0448 4.94014 11.9288 5.48147L11.9295 5.4808L10.6162 11.6681C10.5188 12.1068 10.2582 12.2135 9.89351 12.0068L7.89351 10.5328L6.92884 11.4621C6.82217 11.5688 6.73218 11.6588 6.52551 11.6588L6.66751 9.62347L10.3742 6.2748C10.5355 6.1328 10.3382 6.05281 10.1255 6.19414L5.54484 9.07814L3.57017 8.46214C3.14151 8.32614 3.13218 8.03347 3.66084 7.8268Z" fill="white"/>
</svg>
