<svg width="15" height="16" viewBox="0 0 15 16" fill="none" xmlns="http://www.w3.org/2000/svg">
<g clip-path="url(#clip0)">
<path d="M14.5681 9.32917C15.6544 4.44792 11.3781 0.0135443 6.35625 0.864794C3.63 -0.827081 0 1.08479 0 4.32854C0 5.08292 0.208125 5.78917 0.57 6.39792C-0.439375 11.2904 3.87188 15.661 8.88938 14.7517C12.4363 16.6273 16.3556 12.8867 14.5681 9.32917ZM9.79438 12.2729C8.47688 12.8148 6.30875 12.8179 4.99688 12.131C3.12625 11.1335 2.79375 8.88792 4.4075 8.88792C5.62375 8.88792 5.23875 10.306 6.46688 10.8842C7.03063 11.1448 8.2425 11.1717 8.94688 10.6967C9.6425 10.231 9.57875 9.49854 9.20063 9.14854C8.19875 8.22354 5.33188 8.59104 4.02125 6.97167C3.45188 6.26917 3.34438 5.02979 4.04438 4.13104C5.26438 2.56104 8.84438 2.46542 10.3838 3.65104C11.805 4.75104 11.4213 6.21104 10.2744 6.21104C8.895 6.21104 9.62 4.40604 7.39313 4.40604C5.77875 4.40604 5.14375 5.55417 6.28063 6.11292C7.82188 6.87854 11.7494 6.62292 11.7494 9.61479C11.7463 10.8598 10.9831 11.7879 9.79438 12.2729Z" fill="#41FFDB"/>
</g>
<defs>
<clipPath id="clip0">
<rect width="15" height="15" fill="white" transform="translate(0 0.238281)"/>
</clipPath>
</defs>
</svg>
