<svg width="208" height="99" viewBox="0 0 208 99" fill="none" xmlns="http://www.w3.org/2000/svg">
<g clip-path="url(#clip0)">
<path d="M63.598 53.8999H74.5284V56.0129H61.3477V33.6035H74.3677V35.7164H63.598V43.6557H73.5639V45.7686H63.598V53.8999Z" fill="#41FFDB"/>
<path d="M85.4679 56.3983C83.4104 56.3983 81.6423 55.9181 80.1635 54.9577C78.7063 53.9761 77.688 52.6315 77.1094 50.924L79.0383 49.8036C79.4456 51.1909 80.1956 52.2794 81.2886 53.069C82.3817 53.8372 83.7857 54.2215 85.5001 54.2215C87.1718 54.2215 88.4685 53.8585 89.39 53.133C90.3331 52.3859 90.8045 51.4043 90.8045 50.1878C90.8045 49.014 90.376 48.1281 89.5186 47.5306C88.6614 46.9331 87.2469 46.3141 85.2751 45.6739C82.939 44.9055 81.3959 44.2866 80.6457 43.817C78.9313 42.7927 78.0738 41.3094 78.0738 39.3672C78.0738 37.4677 78.7384 35.9738 80.067 34.8853C81.3959 33.7756 83.0354 33.2207 84.9857 33.2207C86.7433 33.2207 88.2648 33.6795 89.5508 34.5972C90.8367 35.4937 91.7906 36.6461 92.412 38.0547L90.5152 39.1111C89.4865 36.6354 87.6434 35.3976 84.9857 35.3976C83.5928 35.3976 82.4676 35.739 81.6101 36.422C80.7529 37.1049 80.3242 38.0547 80.3242 39.2712C80.3242 40.3809 80.71 41.2133 81.4815 41.7682C82.2531 42.3231 83.5285 42.8887 85.3072 43.4649C86.1216 43.7424 86.7004 43.9452 87.0432 44.0732C87.4076 44.1799 87.922 44.372 88.5863 44.6494C89.2723 44.9055 89.7758 45.1403 90.0973 45.3537C90.4188 45.5458 90.8045 45.8232 91.2546 46.1861C91.7263 46.5276 92.0583 46.8796 92.2512 47.2425C92.4657 47.5839 92.6478 48.0108 92.7978 48.5231C92.9693 49.014 93.0549 49.5474 93.0549 50.1237C93.0549 52.0233 92.3585 53.5491 90.9653 54.7016C89.5724 55.8328 87.7399 56.3983 85.4679 56.3983ZM110.247 33.6048V35.7177H103.335V56.0142H101.085V35.7177H94.1732V33.6048H110.247ZM126.843 56.0142L124.753 50.5079H114.081L111.991 56.0142H109.612L118.26 33.6048H120.574L129.222 56.0142H126.843ZM114.884 48.395H123.95L119.417 36.39L114.884 48.395ZM144.656 33.6048V35.7177H137.744V56.0142H135.494V35.7177H128.582V33.6048H144.656ZM150.122 53.9012H161.053V56.0142H147.872V33.6048H160.892V35.7177H150.122V43.657H160.089V45.7699H150.122V53.9012Z" fill="white"/>
<path d="M170.285 85.7407V83.7239L178.387 75.5925C180.702 73.2876 181.859 71.3135 181.859 69.6701C181.859 68.2403 181.409 67.1303 180.508 66.3407C179.63 65.5296 178.569 65.1242 177.326 65.1242C175.011 65.1242 173.329 66.1807 172.278 68.2935L170.382 67.1731C171.09 65.7857 172.054 64.7401 173.275 64.0357C174.497 63.3102 175.848 62.9473 177.326 62.9473C179.126 62.9473 180.702 63.5555 182.052 64.7721C183.423 65.9673 184.11 67.5999 184.11 69.6701C184.11 70.9719 183.745 72.2204 183.016 73.4157C182.288 74.6109 181.259 75.8699 179.93 77.1932L173.5 83.5639H184.591V85.7407H170.285Z" fill="#41FFDB"/>
<path d="M207.507 79.1447V81.2575H204.614V85.7393H202.364V81.2575H190.469V79.1447L198.827 63.3301H201.303L192.944 79.1447H202.364V72.2938H204.614V79.1447H207.507Z" fill="#41FFDB"/>
<path d="M50.0538 86.125C47.9964 86.125 46.2282 85.6447 44.7494 84.6844C43.292 83.7027 42.2739 82.3582 41.6953 80.6507L43.6242 79.5302C44.0314 80.9176 44.7815 82.0059 45.8746 82.7955C46.9676 83.5639 48.3714 83.948 50.086 83.948C51.7577 83.948 53.0544 83.5851 53.976 82.8595C54.919 82.1125 55.3904 81.1308 55.3904 79.9143C55.3904 78.7406 54.9618 77.8547 54.1045 77.2573C53.2473 76.6598 51.8327 76.0408 49.8609 75.4005C47.5249 74.6322 45.9817 74.0132 45.2316 73.5437C43.517 72.5193 42.6598 71.0359 42.6598 69.0939C42.6598 67.1943 43.3241 65.7004 44.6529 64.612C45.9817 63.5023 47.6213 62.9473 49.5716 62.9473C51.3291 62.9473 52.8507 63.4062 54.1367 64.3239C55.4226 65.2202 56.3763 66.3727 56.9979 67.7813L55.1011 68.8378C54.0724 66.362 52.2292 65.1242 49.5716 65.1242C48.1785 65.1242 47.0534 65.4656 46.1961 66.1486C45.3388 66.8317 44.9101 67.7813 44.9101 68.9978C44.9101 70.1075 45.2959 70.9399 46.0675 71.4949C46.839 72.0498 48.1142 72.6153 49.8931 73.1916C50.7076 73.4689 51.2862 73.6718 51.6291 73.7998C51.9934 73.9066 52.5079 74.0987 53.1723 74.3761C53.8581 74.6322 54.3617 74.867 54.6832 75.0803C55.0047 75.2724 55.3904 75.5498 55.8406 75.9127C56.312 76.2541 56.6443 76.6063 56.8372 76.9691C57.0515 77.3105 57.2336 77.7375 57.3836 78.2496C57.5552 78.7406 57.6408 79.2741 57.6408 79.8503C57.6408 81.7498 56.9443 83.2758 55.5512 84.4282C54.1582 85.5595 52.3257 86.125 50.0538 86.125ZM92.3752 85.7407L87.1029 76.777H80.8019V85.7407H78.5515V63.3315H87.553C89.4176 63.3315 91.0036 63.993 92.3109 65.3163C93.6398 66.6181 94.3041 68.1975 94.3041 70.0543C94.3041 71.5696 93.8435 72.9247 92.9218 74.1199C92.0216 75.2937 90.8643 76.0835 89.4497 76.4889L94.9471 85.7407H92.3752ZM80.8019 65.4443V74.6642H87.553C88.7962 74.6642 89.8571 74.216 90.7357 73.3196C91.6144 72.402 92.0537 71.3135 92.0537 70.0543C92.0537 68.7738 91.6144 67.6853 90.7357 66.7889C89.8571 65.8926 88.7962 65.4443 87.553 65.4443H80.8019ZM103.903 85.7407L95.6089 63.3315H98.0525L105.061 82.7635L112.069 63.3315H114.512L106.218 85.7407H103.903ZM117.418 63.3315H119.668V85.7407H117.418V63.3315ZM135.34 86.125C131.932 86.125 129.114 85.0045 126.885 82.7635C124.656 80.5226 123.542 77.7802 123.542 74.5362C123.542 71.292 124.656 68.5496 126.885 66.3087C129.114 64.0677 131.932 62.9473 135.34 62.9473C137.419 62.9473 139.326 63.4487 141.063 64.452C142.798 65.4336 144.138 66.7677 145.081 68.4535L143.088 69.606C142.381 68.2403 141.331 67.1518 139.937 66.3407C138.544 65.5296 137.012 65.1242 135.34 65.1242C132.532 65.1242 130.239 66.0313 128.46 67.8453C126.682 69.6594 125.792 71.8897 125.792 74.5362C125.792 77.1825 126.682 79.4129 128.46 81.2269C130.239 83.0409 132.532 83.948 135.34 83.948C137.012 83.948 138.544 83.5426 139.937 82.7315C141.331 81.9204 142.381 80.832 143.088 79.4662L145.081 80.5867C144.16 82.2726 142.819 83.6171 141.063 84.6204C139.326 85.6235 137.419 86.125 135.34 86.125ZM151.032 83.6279H161.963V85.7407H148.781V63.3315H161.801V65.4443H151.032V73.3837H160.998V75.4965H151.032V83.6279Z" fill="white"/>
<path d="M63.7504 83.6265H74.6808V85.7393H61.5V63.3301H74.5201V65.4429H63.7504V73.3823H73.7164V75.4951H63.7504V83.6265Z" fill="#41FFDB"/>
<g clip-path="url(#clip1)">
<path d="M42.0344 44.3953C42.4167 44.013 42.2506 43.2271 41.6634 42.6399L15.7927 16.7692L14.1775 18.3844L40.0482 44.2551C40.6354 44.8423 41.4213 45.0084 41.8036 44.6261L42.0344 44.3953Z" fill="white"/>
<path d="M19.3408 21.7304L21 23.3896L15.6841 28.7055L14.0249 27.0463L19.3408 21.7304Z" fill="white"/>
<path d="M17.7021 20.1025L19.332 21.7324L11.181 29.8835L9.55107 28.2535L17.7021 20.1025Z" fill="white"/>
<path d="M33.3464 37.4005C31.53 39.5815 30.5843 42.3572 30.6913 45.1934C30.7983 48.0297 31.9505 50.7263 33.926 52.7642C35.9016 54.8022 38.561 56.0375 41.3926 56.2327C44.2242 56.4278 47.0279 55.5689 49.2643 53.8211C51.5008 52.0734 53.0119 49.5604 53.5069 46.7656C54.0019 43.9708 53.4459 41.0916 51.9459 38.6821C50.4458 36.2726 48.1077 34.5029 45.3813 33.7135C42.655 32.9242 39.5783 33.7575 37.023 34.9929L38.7166 36.4545C40.836 35.4299 42.5745 34.9437 44.8356 35.5983C47.0968 36.253 49.036 37.7207 50.2801 39.7191C51.5242 41.7175 51.9853 44.1054 51.5747 46.4234C51.1642 48.7413 49.9109 50.8255 48.0561 52.275C46.2013 53.7245 43.8759 54.4369 41.5275 54.2751C39.179 54.1133 36.9734 53.0887 35.3349 51.3985C33.6965 49.7082 32.7409 47.4718 32.6522 45.1195C32.5634 42.7671 33.3477 40.465 34.8542 38.6562L33.3464 37.4005Z" fill="white"/>
</g>
<g clip-path="url(#clip2)">
<path d="M15.2115 44.3409C14.8293 43.9585 14.9957 43.1726 15.5831 42.5856L41.4632 16.7243L43.0777 18.34L17.1977 44.2014C16.6103 44.7884 15.8243 44.9542 15.4421 44.5717L15.2115 44.3409Z" fill="white"/>
<path d="M37.9098 21.6832L36.25 23.3418L41.564 28.6596L43.2238 27.001L37.9098 21.6832Z" fill="white"/>
<path d="M39.5485 20.0543L37.918 21.6836L46.0661 29.8376L47.6966 28.2083L39.5485 20.0543Z" fill="white"/>
<path d="M23.901 37.3483C25.7166 39.53 26.6613 42.306 26.5532 45.1423C26.4452 47.9785 25.2921 50.6747 23.3158 52.7119C21.3395 54.7491 18.6796 55.9835 15.848 56.1776C13.0163 56.3717 10.2129 55.5118 7.9771 53.7633C5.74131 52.0147 4.23113 49.5012 3.7371 46.7062C3.24308 43.9112 3.80011 41.0322 5.30104 38.6233C6.80196 36.2143 9.14074 34.4454 11.8674 33.6571C14.594 32.8687 17.6704 33.7032 20.2253 34.9395L18.5311 36.4005C16.4121 35.3751 14.6738 34.8882 12.4124 35.5421C10.151 36.1959 8.21128 37.6629 6.96646 39.6609C5.72163 41.6588 5.25964 44.0466 5.66937 46.3647C6.0791 48.6827 7.33161 50.7674 9.1859 52.2176C11.0402 53.6678 13.3653 54.381 15.7138 54.22C18.0623 54.059 20.2683 53.0352 21.9074 51.3456C23.5465 49.656 24.5028 47.4199 24.5924 45.0676C24.682 42.7153 23.8986 40.4129 22.3928 38.6035L23.901 37.3483Z" fill="white"/>
</g>
</g>
<defs>
<clipPath id="clip0">
<rect width="208" height="99" fill="white"/>
</clipPath>
<clipPath id="clip1">
<rect width="72.3774" height="59.0214" fill="white" transform="matrix(-0.707107 -0.707107 -0.707107 0.707107 86.5078 48.4102)"/>
</clipPath>
<clipPath id="clip2">
<rect width="72.3774" height="59.0214" fill="white" transform="translate(-29.2656 48.3379) rotate(-44.9793)"/>
</clipPath>
</defs>
</svg>
