<svg width="60" height="60" viewBox="0 0 60 60" fill="none" xmlns="http://www.w3.org/2000/svg">
<path d="M51.3394 32.0293H46.6992C47.1722 33.3242 47.4306 34.7217 47.4306 36.1782V53.7154C47.4306 54.3226 47.3249 54.9055 47.1326 55.4476H54.8038C57.6694 55.4476 60.0006 53.1163 60.0006 50.2508V40.6905C60.0007 35.9148 56.1152 32.0293 51.3394 32.0293Z" fill="#41FFDB"/>
<path d="M12.5701 36.1782C12.5701 34.7216 12.8285 33.3242 13.3015 32.0293H8.66135C3.88548 32.0293 0 35.9148 0 40.6906V50.2509C0 53.1164 2.33122 55.4477 5.19681 55.4477H12.8681C12.6758 54.9054 12.5701 54.3226 12.5701 53.7154V36.1782Z" fill="#41FFDB"/>
<path d="M35.3046 27.5166H24.6965C19.9206 27.5166 16.0352 31.4021 16.0352 36.1779V53.7151C16.0352 54.6717 16.8107 55.4474 17.7674 55.4474H42.2336C43.1904 55.4474 43.9659 54.6718 43.9659 53.7151V36.1779C43.9659 31.4021 40.0804 27.5166 35.3046 27.5166Z" fill="#41FFDB"/>
<path d="M30.0003 4.55176C24.2567 4.55176 19.584 9.2245 19.584 14.9682C19.584 18.8641 21.7343 22.2667 24.9098 24.0531C26.416 24.9004 28.1525 25.3846 30.0003 25.3846C31.8481 25.3846 33.5846 24.9004 35.0908 24.0531C38.2665 22.2667 40.4167 18.864 40.4167 14.9682C40.4167 9.22462 35.7439 4.55176 30.0003 4.55176Z" fill="#41FFDB"/>
<path d="M11.708 14.2598C7.41251 14.2598 3.91797 17.7543 3.91797 22.0498C3.91797 26.3453 7.41251 29.8399 11.708 29.8399C12.7976 29.8399 13.8352 29.6142 14.7778 29.2085C16.4074 28.5069 17.751 27.2649 18.5825 25.7092C19.1661 24.6174 19.4981 23.3718 19.4981 22.0498C19.4981 17.7544 16.0035 14.2598 11.708 14.2598Z" fill="#41FFDB"/>
<path d="M48.2901 14.2598C43.9945 14.2598 40.5 17.7543 40.5 22.0498C40.5 23.3719 40.832 24.6175 41.4156 25.7092C42.247 27.265 43.5907 28.507 45.2203 29.2085C46.1629 29.6142 47.2004 29.8399 48.2901 29.8399C52.5856 29.8399 56.0801 26.3453 56.0801 22.0498C56.0801 17.7543 52.5856 14.2598 48.2901 14.2598Z" fill="#41FFDB"/>
</svg>
