<?xml version="1.0" encoding="utf-8"?>
<!-- Generator: Adobe Illustrator 26.1.0, SVG Export Plug-In . SVG Version: 6.00 Build 0)  -->
<svg version="1.1" id="Слой_1" xmlns="http://www.w3.org/2000/svg" xmlns:xlink="http://www.w3.org/1999/xlink" x="0px" y="0px"
	 viewBox="0 0 32 32" style="enable-background:new 0 0 32 32;" xml:space="preserve">
<style type="text/css">
	.st0{fill-rule:evenodd;clip-rule:evenodd;}
</style>
<path class="st0" d="M31.9,14.6C31.2,5.8,23.4-0.7,14.6,0.1C5.8,0.8-0.7,8.6,0.1,17.4c0.8,8.8,8.5,15.3,17.3,14.5
	C26.2,31.2,32.7,23.4,31.9,14.6z M13.7,13.4l3.4-0.5c0,0,0.1,0,0.1,0l1,0.7c0.1,0.1,0.1,0.2,0,0.3L18,14.2c-0.9,0.9-2.3,1.1-3.3,0.4
	c0,0,0,0,0,0l-1-0.8C13.5,13.7,13.6,13.5,13.7,13.4z M17.2,29.9c-0.1,0-0.2,0-0.3,0c0-0.4-0.1-1-0.1-1.7c-0.1-2.5-0.4-6.1-0.3-6.4
	c0-0.1,0.2-0.5,0.4-0.6c0.4-0.2,3.5-1.3,7.7-2.4c0.3-0.1,0.6-0.2,1-0.3c0.2-0.1,0.4-0.2,0.6-0.5c0.3-0.5,0.6-1,0.9-1.5
	c0.3-0.5,0.6-1.1,0.7-1.7c0.1-0.3,0.1-0.6,0.1-0.9c0-0.1,0-0.2-0.1-0.3c-0.1-0.2-0.3-0.3-0.5-0.3c-0.3,0-0.6,0-0.9,0
	c-0.1,0-0.3,0-0.4,0c-0.2,0-0.4,0-0.6,0c-0.6,0-1.3,0-1.9,0c-0.1,0-0.2,0-0.3,0c-0.4,0-2,0-2.4,0c-0.3,0-0.6,0-0.9,0
	s-0.6-0.1-0.8-0.3c-0.5-0.2-0.8-0.5-1.2-0.9c-0.2-0.2-0.5-0.4-0.8-0.4c-0.3,0-0.6-0.1-0.8-0.1c-0.5,0-1.1,0-1.6,0
	c-0.7,0-1.4,0-2.1,0c-0.1,0-0.2,0-0.2-0.1c0-0.1-0.1-0.1-0.1-0.2c-0.1-0.1-0.1-0.2-0.2-0.4c-0.2-0.4-0.4-0.8-0.5-1.2
	c0-0.2-0.1-0.4-0.1-0.6c0-0.1,0-0.2,0-0.2c0,0,0-0.1,0-0.1c0-0.1,0-0.1,0-0.2c0,0,0,0,0-0.1c0-0.2-0.1-0.5-0.2-0.7c0,0,0,0,0,0
	c0-0.2-0.1-0.3-0.1-0.5c-0.2-0.4-0.6-1-0.6-1c0,0,0,0.2,0,0.3c0,0,0,0.1,0,0.1c0,0.2,0.1,0.4,0.1,0.7c0,0.2,0,0.4,0,0.7
	c0,0,0,0.1,0,0.1c0,0.2,0,0.3,0,0.5c0,0.1,0,0.2,0,0.3c0,0.1,0,0.2-0.1,0.3c0,0.1-0.1,0.3-0.1,0.4c0,0.1,0,0.3-0.1,0.4
	c0,0.1,0,0.1,0,0.2l0,0c0,0,0,0,0,0c0,0,0,0,0-0.1c0-0.1,0-0.1-0.1-0.2c0-0.1-0.1-0.2-0.1-0.3c0,0,0-0.1-0.1-0.1
	C9.7,9.5,9.6,9.2,9.5,8.9C9.3,8.5,9.1,8.1,8.9,7.8c-0.2-0.3-0.5-0.7-0.7-1c0,0,0,0,0,0C8.1,6.6,7.6,6.2,7.6,6.2s0.1,0.5,0.1,0.7
	c0,0.1,0,0.1,0,0.2c0.1,0.3,0.1,0.5,0.1,0.8C7.9,8.3,8,8.7,8,9c0,0.4,0,0.8,0,1.2c0,0.1,0,0.1,0,0.2c0,0.2,0,0.5-0.1,0.7
	c0,0,0,0,0,0c0,0.2-0.1,0.4-0.1,0.6c0,0.1,0,0.2,0,0.3c0,0.1,0,0.2,0,0.3c0,0.1,0,0.3,0,0.4c0,0.1,0,0.1,0,0.2c0,0,0,0.1,0,0.1
	c0,0.1,0,0.1,0,0.2c0,0.2-0.1,0.3-0.1,0.5c0,0.3,0,0.6,0,0.9c0,0.1,0.1,0.3,0.1,0.4c0,0.1,0,0.1,0.1,0.2c0,0,0,0.1,0,0.1
	c0,0.1,0.1,0.2,0.1,0.3c0,0,0,0,0,0.1c0,0.2,0,0.3,0,0.5c0,0.2,0,0.3-0.1,0.5c0,0.1,0,0.2,0,0.3c0,0-0.6,1.9-1.2,4
	c-0.5,1.5-1,3-1.2,4c-1.8-2.1-3-4.8-3.2-7.8C1.4,9.5,7.1,2.7,14.8,2.1c7.7-0.7,14.5,5,15.2,12.7C30.6,22.5,24.9,29.3,17.2,29.9z"/>
</svg>
