<svg width="28" height="12" viewBox="0 0 28 12" fill="none" xmlns="http://www.w3.org/2000/svg">
<path fill-rule="evenodd" clip-rule="evenodd" d="M3.42351 10.9761C4.53995 10.6702 5.71749 10.4114 6.79002 9.99138C8.86074 9.1796 7.04617 7.47666 7.55705 5.87795C7.88833 4.83924 9.51777 4.59769 10.4853 4.40126C12.2002 4.06671 13.9608 4.03749 15.6859 4.31496C16.5758 4.45382 18.3828 4.58799 18.9644 5.41754C19.89 6.73162 18.5821 8.08688 20.3132 9.12384C21.2396 9.67959 22.3195 10.0669 23.2908 10.5272C24.5933 11.144 25.3401 11.6217 26.3812 10.5287C27.1307 9.74182 27.3346 8.90543 27.217 7.81223C26.9008 4.85825 24.5111 2.74504 21.8472 1.71135C18.0775 0.248271 13.5614 -0.214195 9.74038 0.346535C7.14171 0.727406 4.14637 1.67856 2.10576 3.30027C0.611038 4.48707 -0.606302 7.06662 0.325337 9.02925L0.168471 8.69657L0.324275 9.03026C0.420134 9.22659 0.46541 9.32728 0.487162 9.37138L0.32731 9.03345C1.14943 10.7641 1.70133 11.4477 3.42351 10.9761ZM0.168471 8.69657C0.144797 8.6462 0.147731 8.65353 0.168471 8.69657V8.69657ZM0.487162 9.37138C0.504968 9.40709 0.504007 9.40395 0.487162 9.37138V9.37138Z" fill="white"/>
</svg>
