<svg width="22" height="22" viewBox="0 0 22 22" fill="none" xmlns="http://www.w3.org/2000/svg">
<path fill-rule="evenodd" clip-rule="evenodd" d="M20.7042 15.5148C19.6848 14.9663 18.6537 14.3414 17.5875 13.9058C15.5282 13.0654 15.6676 15.55 14.195 16.3552C13.2387 16.8788 11.8923 15.9299 11.0563 15.4048C9.58382 14.4642 8.28892 13.2711 7.23119 11.8803C6.68265 11.166 5.46677 9.8225 5.61784 8.82074C5.85398 7.23083 7.73573 7.15162 7.19746 5.20677C6.90999 4.1654 6.39518 3.14017 6.00944 2.13694C5.4917 0.791968 5.2805 -0.0689907 3.77275 0.00434485C2.6874 0.0571464 1.96286 0.522094 1.29405 1.39479C-0.514372 3.75179 -0.241568 6.93015 0.974314 9.51596C2.69474 13.1754 5.64571 16.6251 8.79908 18.8545C10.9434 20.3711 13.7682 21.7483 16.3642 21.9815C18.2651 22.1531 20.9256 21.125 21.6047 19.0613L21.4888 19.4104L21.6062 19.0613C21.6722 18.853 21.7088 18.7489 21.7235 18.702L21.6062 19.0569C22.2046 17.2367 22.2764 16.3611 20.7042 15.5148ZM21.4888 19.4104C21.4712 19.4632 21.4742 19.4559 21.4888 19.4104V19.4104ZM21.7235 18.702C21.7352 18.6638 21.7338 18.6668 21.7235 18.702V18.702Z" fill="white"/>
</svg>
