<?xml version="1.0" encoding="utf-8"?>
<!-- Generator: Adobe Illustrator 23.1.0, SVG Export Plug-In . SVG Version: 6.00 Build 0)  -->
<svg version="1.1" id="Layer_1" xmlns="http://www.w3.org/2000/svg" xmlns:xlink="http://www.w3.org/1999/xlink" x="0px" y="0px"
	 viewBox="0 0 1200 1200" style="enable-background:new 0 0 1200 1200;" xml:space="preserve">
<style type="text/css">
	.st0{fill:#FFFFFF;}
</style>
<g>
	<path class="st0" d="M943.6,486.6c-10.7-11.6-75.5,41.5-108.2,71.8C815.2,577.1,763,631.3,719,675.1
		c-40.9,40.8-101.4,59.3-71.1-39.5c17.3-56.4,37.5-108.3,45.4-131.1c8.6-25,81.9-193,40.2-208.5c-49.7-18.5-94.2,141.4-112.6,193.6
		c-18.4,52.2-45.2,124.4-56.5,145.3c-11.4,20.8-52.5,40.4-62.4-9.8c-12-60.9-28.8-285.3-34.6-316.4c-6.8-36.1-29.5-52.6-45.7,0.3
		c-9.6,31.6-15.3,85.6-18.6,163.6c-3.2,75.3-1.3,199.3,3.9,288.2c9.9,168.5,163,170.8,230.6,113.7
		c97.7-82.6,167.7-176.1,212.8-227.9C927.7,558,954.3,498.2,943.6,486.6z"/>
	<path class="st0" d="M1183.9,590.9c-4-2.6-8-4.9-12.1-6.9c-8-4-16.1-7.2-24.1-9.6c-3.1-1-6.3-1.8-9.4-2.6
		c-3.2-62.8-17.2-123.8-41.6-181.7c-25.8-61-62.2-116-108.2-163.8c1.7-2,3.3-4.1,5-6.2c5-6.3,9.8-12.9,14.4-19.7
		c2.3-3.4,4.5-6.9,6.6-10.4c2.1-3.6,4.2-7.2,6-11c-3.8,1.8-7.5,3.9-11,6c-3.6,2.1-7,4.4-10.4,6.6c-6.8,4.6-13.4,9.4-19.7,14.4
		c-2.1,1.6-4.1,3.3-6.2,5c-47.7-45.7-102.5-81.9-163.3-107.6c-58-24.4-119-38.4-181.8-41.6c-0.7-3.1-1.6-6.3-2.6-9.4
		c-2.4-8-5.6-16.1-9.6-24.1c-2-4-4.3-8-6.9-12.1c-2.6-4-5.4-8-9.1-12.1c-3.6,4-6.4,8-9.1,12.1c-2.6,4-4.9,8-6.9,12.1
		c-4,8-7.2,16.1-9.6,24.1c-1,3.1-1.8,6.3-2.6,9.4C509.1,65,448.1,79,390.2,103.4c-61.1,25.8-116.3,62.3-164.1,108.5
		c-2.4-2-4.8-3.9-7.2-5.8c-6.3-5-12.9-9.8-19.7-14.4c-3.4-2.3-6.9-4.5-10.4-6.6c-3.6-2.1-7.2-4.2-11-6c1.8,3.8,3.9,7.5,6,11
		c2.1,3.6,4.4,7,6.6,10.4c4.6,6.8,9.4,13.4,14.4,19.7c1.9,2.4,3.9,4.8,5.9,7.2C165.1,275,129,329.7,103.4,390.2
		C79,448.1,65,509.1,61.8,571.9c-3.1,0.7-6.3,1.6-9.4,2.6c-8,2.4-16.1,5.6-24.1,9.6c-4,2-8,4.3-12.1,6.9c-4,2.6-8,5.4-12.1,9.1
		c4,3.6,8,6.4,12.1,9.1c4,2.6,8,4.9,12.1,6.9c8,4,16.1,7.2,24.1,9.6c3.1,1,6.3,1.8,9.4,2.6C65,690.9,79,751.9,103.4,809.8
		c25.7,60.7,61.8,115.5,107.5,163.1c-2.1,2.5-4.2,5.1-6.2,7.6c-5,6.3-9.8,12.9-14.4,19.7c-2.3,3.4-4.5,6.9-6.6,10.4
		c-2.1,3.6-4.2,7.2-6,11c3.8-1.8,7.5-3.9,11-6c3.6-2.1,7-4.4,10.4-6.6c6.8-4.6,13.4-9.4,19.7-14.4c2.6-2,5.1-4.1,7.6-6.2
		c47.8,45.9,102.8,82.3,163.7,108c57.6,24.4,118.4,38.3,181,41.6c0.9,4.1,1.9,8.1,3.2,12.2c1.2,4,2.6,8,4.2,12.1
		c1.6,4,3.4,8,5.4,12.1c2,4,4.3,8,6.9,12.1c2.6,4,5.5,8,9.1,12.1c3.7-4,6.5-8,9.1-12.1c2.6-4,4.9-8,6.9-12.1c2-4,3.8-8,5.4-12.1
		c1.6-4,3-8,4.2-12.1s2.3-8.1,3.2-12.2c62.6-3.3,123.3-17.2,181-41.6c60.5-25.6,115.1-61.5,162.6-107c2.9,2.4,5.8,4.8,8.7,7.1
		c6.3,5,12.9,9.8,19.7,14.4c3.4,2.3,6.9,4.5,10.4,6.6c3.6,2.1,7.2,4.2,11,6c-1.8-3.9-3.9-7.5-6-11c-2.1-3.6-4.3-7-6.6-10.4
		c-4.6-6.8-9.4-13.4-14.4-19.7c-2.3-2.9-4.7-5.8-7.1-8.7c46.1-47.8,82.5-102.9,108.3-164c24.5-57.9,38.4-118.9,41.6-181.7
		c3.1-0.7,6.3-1.6,9.4-2.6c8-2.4,16.1-5.6,24.1-9.6c4-2,8-4.3,12.1-6.9c4-2.6,8-5.4,12.1-9.1
		C1191.9,596.4,1187.9,593.6,1183.9,590.9z M628.4,1064.4c-0.8-3.5-1.7-7-2.8-10.5c-2.4-8-5.6-16.1-9.6-24.1c-2-4-4.3-8-6.9-12.1
		c-2.6-4-5.4-8-9.1-12.1c-3.6,4-6.4,8-9.1,12.1c-2.6,4-4.9,8-6.9,12.1c-4,8-7.2,16.1-9.6,24.1c-1.1,3.5-2,7-2.8,10.5
		c-113.1-6.8-215.5-54.3-292.6-127.9c2.8-3.3,5.5-6.6,8.1-10c5-6.3,9.8-12.9,14.4-19.7c2.3-3.4,4.5-6.9,6.6-10.4
		c2.1-3.6,4.2-7.2,6-11c-3.9,1.8-7.5,3.9-11,6c-3.6,2.1-7,4.3-10.4,6.6c-6.8,4.6-13.4,9.4-19.7,14.4c-3.4,2.7-6.7,5.4-9.9,8.1
		c-73.3-77-120.5-178.9-127.4-291.5c4.4-0.9,8.8-2,13.2-3.4c4-1.2,8-2.6,12.1-4.2c4-1.6,8-3.4,12.1-5.4c4-2,8-4.3,12.1-6.9
		c4-2.6,8-5.5,12.1-9.1c-4-3.7-8-6.5-12.1-9.1c-4-2.6-8-4.9-12.1-6.9c-4-2-8-3.8-12.1-5.4c-4-1.6-8-3-12.1-4.2
		c-4.4-1.3-8.8-2.4-13.2-3.4c7-112.4,54-214.1,126.9-291c3.4,2.9,6.8,5.7,10.3,8.5c6.3,5,12.9,9.8,19.7,14.4
		c3.4,2.3,6.9,4.5,10.4,6.6c3.6,2.1,7.2,4.2,11,6c-1.8-3.9-3.9-7.5-6-11c-2.1-3.6-4.3-7-6.6-10.4c-4.6-6.8-9.4-13.4-14.4-19.7
		c-2.8-3.5-5.6-7-8.5-10.4c77-73.7,179.3-121.2,292.3-128.2c0.9,4.4,2,8.8,3.4,13.2c1.2,4,2.6,8,4.2,12.1c1.6,4,3.4,8,5.4,12.1
		c2,4,4.3,8,6.9,12.1c2.6,4,5.5,8,9.1,12.1c3.7-4,6.5-8,9.1-12.1c2.6-4,4.9-8,6.9-12.1c2-4,3.8-8,5.4-12.1c1.6-4,3-8,4.2-12.1
		c1.3-4.4,2.4-8.8,3.4-13.2c112.5,7,214.4,54.1,291.3,127.2c-3.2,3.7-6.3,7.5-9.4,11.4c-5,6.3-9.8,12.9-14.4,19.7
		c-2.3,3.4-4.5,6.9-6.6,10.4c-2.1,3.6-4.2,7.2-6,11c3.9-1.8,7.5-3.9,11-6c3.6-2.1,7-4.3,10.4-6.6c6.8-4.6,13.4-9.4,19.7-14.4
		c3.9-3.1,7.7-6.2,11.4-9.4c73.4,77,120.8,179,127.8,291.8c-4.4,0.9-8.8,2-13.2,3.4c-4,1.2-8,2.6-12.1,4.2c-4,1.6-8,3.4-12.1,5.4
		c-4,2-8,4.3-12.1,6.9c-4,2.6-8,5.5-12.1,9.1c4,3.7,8,6.5,12.1,9.1c4,2.6,8,4.9,12.1,6.9c4,2,8,3.8,12.1,5.4c4,1.6,8,3,12.1,4.2
		c4.4,1.3,8.8,2.4,13.2,3.4c-7,113.1-54.6,215.4-128.4,292.5c-2.9-2.5-5.9-4.9-8.9-7.3c-6.3-5-12.9-9.8-19.7-14.4
		c-3.4-2.3-6.9-4.5-10.4-6.6c-3.6-2.1-7.2-4.2-11-6c1.8,3.8,3.9,7.5,6,11c2.1,3.6,4.4,7,6.6,10.4c4.6,6.8,9.4,13.4,14.4,19.7
		c2.4,3,4.8,6,7.2,8.9C843.1,1010.4,741.1,1057.6,628.4,1064.4z"/>
</g>
</svg>
