<?xml version="1.0" encoding="UTF-8"?> <svg xmlns="http://www.w3.org/2000/svg" xmlns:xlink="http://www.w3.org/1999/xlink" width="1000pt" height="371pt" viewBox="0 0 1000 371"> <g id="surface1"> <path style=" stroke:none;fill-rule:nonzero;fill:rgb(100%,100%,100%);fill-opacity:1;" d="M 592.488281 267.25 L 602.679688 267.25 L 602.679688 295.207031 L 640.960938 295.207031 L 640.960938 267.25 L 651.152344 267.25 L 651.152344 334.90625 L 640.960938 334.90625 L 640.960938 303.265625 L 602.679688 303.265625 L 602.679688 334.90625 L 592.488281 334.90625 "></path> <path style=" stroke:none;fill-rule:nonzero;fill:rgb(100%,100%,100%);fill-opacity:1;" d="M 665.589844 267.25 L 719.640625 267.25 L 719.640625 275.539063 L 675.425781 275.539063 L 675.425781 296.082031 L 716.292969 296.082031 L 716.292969 303.910156 L 675.425781 303.910156 L 675.425781 326.847656 L 720.402344 326.847656 L 720.402344 334.90625 L 665.589844 334.90625 "></path> <path style=" stroke:none;fill-rule:nonzero;fill:rgb(100%,100%,100%);fill-opacity:1;" d="M 769.523438 307.179688 L 758.214844 277.289063 L 746.199219 307.179688 Z M 752.941406 267.25 L 764.351563 267.25 L 791.378906 334.90625 L 780.320313 334.90625 L 772.769531 314.644531 L 743.308594 314.644531 L 735.246094 334.90625 L 724.902344 334.90625 "></path> <path style=" stroke:none;fill-rule:nonzero;fill:rgb(100%,100%,100%);fill-opacity:1;" d="M 797.957031 267.25 L 808.046875 267.25 L 808.046875 326.847656 L 845.414063 326.847656 L 845.414063 334.90625 L 797.957031 334.90625 "></path> <path style=" stroke:none;fill-rule:nonzero;fill:rgb(100%,100%,100%);fill-opacity:1;" d="M 899.605469 267.25 L 899.605469 275.308594 L 874.507813 275.308594 L 874.507813 334.90625 L 864.316406 334.90625 L 864.316406 275.308594 L 839.21875 275.308594 L 839.21875 267.25 "></path> <path style=" stroke:none;fill-rule:nonzero;fill:rgb(100%,100%,100%);fill-opacity:1;" d="M 906.542969 267.25 L 916.734375 267.25 L 916.734375 295.207031 L 955.015625 295.207031 L 955.015625 267.25 L 965.207031 267.25 L 965.207031 334.90625 L 955.015625 334.90625 L 955.015625 303.265625 L 916.734375 303.265625 L 916.734375 334.90625 L 906.542969 334.90625 "></path> <path style=" stroke:none;fill-rule:nonzero;fill:rgb(100%,100%,100%);fill-opacity:1;" d="M 325.886719 102.273438 C 330.582031 102.273438 334.710938 103.234375 338.277344 105.144531 C 341.835938 107.058594 344.621094 109.535156 346.621094 112.578125 C 348.617188 115.621094 349.621094 119.054688 349.621094 122.878906 C 349.621094 127.226563 348.273438 131.050781 345.578125 134.355469 C 342.878906 137.660156 339.273438 139.3125 334.753906 139.3125 C 331.105469 139.3125 327.882813 138.136719 325.105469 135.789063 C 322.320313 133.441406 320.929688 130.097656 320.929688 125.746094 C 320.929688 122.445313 321.84375 119.617188 323.671875 117.273438 C 325.496094 114.925781 327.539063 113.058594 329.800781 111.664063 C 328.582031 109.925781 326.753906 109.054688 324.320313 109.054688 C 317.019531 109.054688 310.671875 111.796875 305.28125 117.273438 C 299.890625 122.746094 295.675781 129.3125 292.632813 136.964844 C 289.589844 144.617188 288.070313 151.65625 288.070313 158.089844 L 288.070313 213.378906 C 288.070313 221.898438 290.546875 227.59375 295.503906 230.460938 C 300.457031 233.332031 307.195313 234.765625 315.714844 234.765625 L 315.714844 240.242188 C 311.714844 240.070313 306.066406 239.851563 298.761719 239.589844 C 291.460938 239.328125 283.722656 239.199219 275.550781 239.199219 C 269.640625 239.199219 263.769531 239.328125 257.949219 239.589844 C 252.117188 239.851563 247.730469 240.070313 244.777344 240.242188 L 244.777344 234.765625 C 251.902344 234.765625 256.988281 233.460938 260.03125 230.855469 C 263.074219 228.246094 264.597656 223.289063 264.597656 215.988281 L 264.597656 134.355469 C 264.597656 126.53125 263.203125 120.753906 260.425781 117.011719 C 257.640625 113.273438 252.425781 111.402344 244.777344 111.402344 L 244.777344 105.925781 C 250.339844 106.449219 255.730469 106.710938 260.945313 106.710938 C 265.988281 106.710938 270.8125 106.40625 275.421875 105.796875 C 280.027344 105.1875 284.242188 104.277344 288.070313 103.058594 L 288.070313 135.660156 C 289.980469 130.617188 292.71875 125.53125 296.285156 120.402344 C 299.847656 115.273438 304.152344 110.972656 309.195313 107.492188 C 314.238281 104.015625 319.800781 102.273438 325.886719 102.273438 "></path> <path style=" stroke:none;fill-rule:nonzero;fill:rgb(100%,100%,100%);fill-opacity:1;" d="M 447.683594 123.921875 L 442.988281 122.097656 C 445.421875 116.1875 449.59375 110.972656 455.503906 106.449219 C 461.414063 101.929688 467.589844 99.667969 474.023438 99.667969 C 478.539063 99.667969 482.195313 100.929688 484.976563 103.449219 C 487.753906 105.972656 489.148438 109.753906 489.148438 114.792969 C 489.148438 120.1875 487.714844 123.96875 484.847656 126.140625 C 481.976563 128.316406 479.0625 129.398438 476.109375 129.398438 C 473.503906 129.398438 471.0625 128.484375 468.808594 126.660156 C 466.546875 124.835938 465.242188 121.925781 464.894531 117.921875 C 464.546875 113.925781 465.761719 108.796875 468.546875 102.535156 L 471.9375 103.320313 C 464.632813 106.101563 459.417969 109.015625 456.289063 112.054688 C 453.160156 115.101563 450.289063 119.058594 447.683594 123.921875 M 410.125 179.996094 C 416.730469 179.996094 421.902344 177.386719 425.644531 172.171875 C 429.378906 166.957031 431.25 157.394531 431.25 143.484375 C 431.25 129.574219 429.378906 120.011719 425.644531 114.792969 C 421.902344 109.578125 416.730469 106.96875 410.125 106.96875 C 403.691406 106.96875 398.558594 109.578125 394.738281 114.792969 C 390.910156 120.011719 388.996094 129.574219 388.996094 143.484375 C 388.996094 157.394531 390.910156 166.957031 394.738281 172.171875 C 398.558594 177.386719 403.691406 179.996094 410.125 179.996094 M 410.125 184.691406 C 397.253906 184.691406 386.433594 181.390625 377.65625 174.78125 C 368.871094 168.175781 364.484375 157.742188 364.484375 143.484375 C 364.484375 129.054688 368.871094 118.574219 377.65625 112.054688 C 386.433594 105.535156 397.253906 102.277344 410.125 102.277344 C 422.992188 102.277344 433.8125 105.535156 442.597656 112.054688 C 451.371094 118.574219 455.765625 129.054688 455.765625 143.484375 C 455.765625 157.742188 451.371094 168.175781 442.597656 174.78125 C 433.8125 181.390625 422.992188 184.691406 410.125 184.691406 M 408.820313 289.273438 C 399.605469 289.273438 390.910156 288.316406 382.742188 286.40625 C 374.566406 284.488281 368.003906 281.488281 363.050781 277.40625 C 358.09375 273.320313 353.054688 267.601563 355.617188 261.890625 C 358.476563 255.511719 370.578125 251.882813 376.78125 249.859375 C 387.726563 246.289063 412.03125 240.675781 420.882813 239.410156 C 420.882813 239.410156 401.632813 244.578125 393.667969 247.113281 C 389.578125 248.417969 375.832031 252.707031 370.660156 261.222656 C 366.511719 268.054688 375.480469 274.1875 382.871094 278.449219 C 390.257813 282.710938 399.863281 284.839844 411.6875 284.839844 C 419.515625 284.839844 427.164063 283.839844 434.640625 281.839844 C 442.117188 279.839844 448.289063 276.496094 453.160156 271.800781 C 458.023438 267.105469 460.460938 260.933594 460.460938 253.28125 C 460.460938 247.546875 458.414063 242.804688 454.332031 239.070313 C 450.246094 235.332031 442.203125 233.460938 430.207031 233.460938 L 410.90625 233.460938 C 405.339844 233.460938 399.953125 233.03125 394.738281 232.15625 C 389.519531 231.289063 385.261719 229.464844 381.957031 226.679688 C 378.652344 223.902344 377.003906 219.640625 377.003906 213.902344 C 377.003906 207.992188 379.4375 202.296875 384.304688 196.816406 C 389.171875 191.34375 398.128906 185.734375 411.167969 179.996094 L 414.296875 182.34375 C 408.386719 185.472656 403.253906 188.648438 398.910156 191.863281 C 394.5625 195.082031 392.390625 198.863281 392.390625 203.207031 C 392.390625 208.773438 396.5625 211.554688 404.910156 211.554688 L 437.511719 211.554688 C 448.289063 211.554688 457.808594 213.945313 466.070313 218.726563 C 474.324219 223.511719 476.617188 230.503906 476.617188 241.457031 C 476.617188 249.628906 475.5625 255.875 469.863281 264.449219 C 464.976563 271.804688 457.632813 278.191406 447.289063 282.625 C 436.945313 287.058594 424.121094 289.273438 408.820313 289.273438 "></path> <path style=" stroke:none;fill-rule:nonzero;fill:rgb(100%,100%,100%);fill-opacity:1;" d="M 542.355469 231.636719 C 547.570313 231.636719 552.699219 230.117188 557.746094 227.070313 C 562.785156 224.03125 567.480469 218.945313 571.828125 211.816406 L 571.828125 160.695313 C 569.21875 164.523438 565.175781 167.566406 559.703125 169.824219 C 554.222656 172.085938 548.570313 174.5625 542.746094 177.257813 C 536.921875 179.957031 531.925781 183.605469 527.753906 188.210938 C 523.578125 192.820313 521.492188 199.386719 521.492188 207.902344 C 521.492188 215.902344 523.488281 221.855469 527.488281 225.769531 C 531.488281 229.679688 536.441406 231.636719 542.355469 231.636719 M 530.882813 242.070313 C 519.578125 242.070313 511.359375 239.242188 506.234375 233.59375 C 501.105469 227.945313 498.539063 220.421875 498.539063 211.03125 C 498.539063 203.730469 500.320313 197.691406 503.886719 192.90625 C 507.449219 188.125 512.011719 184.214844 517.578125 181.171875 C 523.144531 178.128906 529.011719 175.523438 535.183594 173.34375 C 541.355469 171.171875 547.222656 169.042969 552.789063 166.957031 C 558.351563 164.867188 562.914063 162.523438 566.480469 159.914063 C 570.042969 157.304688 571.828125 154.003906 571.828125 150.003906 L 571.828125 133.832031 C 571.828125 126.53125 570.738281 120.96875 568.566406 117.140625 C 566.390625 113.320313 563.480469 110.753906 559.832031 109.449219 C 556.179688 108.144531 552.089844 107.492188 547.570313 107.492188 C 543.222656 107.492188 538.574219 108.101563 533.621094 109.316406 C 528.664063 110.535156 524.707031 113.058594 521.753906 116.878906 C 525.054688 117.578125 527.921875 119.320313 530.359375 122.097656 C 532.792969 124.878906 534.011719 128.445313 534.011719 132.789063 C 534.011719 137.136719 532.617188 140.574219 529.839844 143.089844 C 527.054688 145.613281 523.488281 146.875 519.144531 146.875 C 514.097656 146.875 510.40625 145.269531 508.058594 142.046875 C 505.714844 138.832031 504.539063 135.226563 504.539063 131.226563 C 504.539063 126.707031 505.667969 123.054688 507.929688 120.269531 C 510.1875 117.492188 513.054688 114.882813 516.535156 112.449219 C 520.535156 109.667969 525.707031 107.277344 532.054688 105.273438 C 538.398438 103.277344 545.570313 102.277344 553.570313 102.277344 C 560.699219 102.277344 566.78125 103.105469 571.828125 104.753906 C 576.867188 106.40625 581.039063 108.796875 584.347656 111.925781 C 588.867188 116.097656 591.820313 121.183594 593.214844 127.183594 C 594.605469 133.183594 595.300781 140.355469 595.300781 148.699219 L 595.300781 221.203125 C 595.300781 225.375 595.90625 228.464844 597.128906 230.460938 C 598.339844 232.464844 600.425781 233.460938 603.386719 233.460938 C 605.816406 233.460938 607.949219 232.941406 609.773438 231.898438 C 611.601563 230.855469 613.382813 229.550781 615.121094 227.984375 L 617.992188 232.417969 C 614.339844 235.199219 610.859375 237.503906 607.558594 239.328125 C 604.253906 241.15625 599.820313 242.070313 594.257813 242.070313 C 585.214844 242.070313 579.214844 239.722656 576.261719 235.027344 C 573.300781 230.332031 571.828125 224.945313 571.828125 218.855469 C 566.261719 228.074219 559.960938 234.242188 552.921875 237.371094 C 545.878906 240.503906 538.53125 242.070313 530.882813 242.070313 "></path> <path style=" stroke:none;fill-rule:nonzero;fill:rgb(100%,100%,100%);fill-opacity:1;" d="M 713.441406 102.273438 C 720.046875 102.273438 725.570313 103.144531 730.003906 104.882813 C 734.4375 106.625 738.128906 109.054688 741.089844 112.1875 C 744.386719 115.664063 746.734375 120.011719 748.128906 125.226563 C 749.519531 130.441406 750.214844 137.484375 750.214844 146.351563 L 750.214844 215.988281 C 750.214844 223.289063 751.734375 228.246094 754.78125 230.855469 C 757.820313 233.460938 762.90625 234.765625 770.039063 234.765625 L 770.039063 240.242188 C 767.078125 240.070313 762.558594 239.851563 756.476563 239.589844 C 750.386719 239.328125 744.480469 239.199219 738.738281 239.199219 C 733.003906 239.199219 727.394531 239.328125 721.917969 239.589844 C 716.441406 239.851563 712.308594 240.070313 709.527344 240.242188 L 709.527344 234.765625 C 715.789063 234.765625 720.222656 233.460938 722.832031 230.855469 C 725.4375 228.246094 726.742188 223.289063 726.742188 215.988281 L 726.742188 140.613281 C 726.742188 135.226563 726.308594 130.269531 725.4375 125.746094 C 724.566406 121.230469 722.613281 117.578125 719.570313 114.796875 C 716.527344 112.015625 711.878906 110.621094 705.617188 110.621094 C 694.664063 110.621094 685.839844 115.183594 679.144531 124.3125 C 672.453125 133.441406 669.105469 144.703125 669.105469 158.089844 L 669.105469 215.988281 C 669.105469 223.289063 670.410156 228.246094 673.015625 230.855469 C 675.625 233.460938 680.058594 234.765625 686.316406 234.765625 L 686.316406 240.242188 C 683.535156 240.070313 679.40625 239.851563 673.929688 239.589844 C 668.453125 239.328125 662.84375 239.199219 657.105469 239.199219 C 651.371094 239.199219 645.457031 239.328125 639.371094 239.589844 C 633.285156 239.851563 628.765625 240.070313 625.8125 240.242188 L 625.8125 234.765625 C 632.9375 234.765625 638.023438 233.460938 641.066406 230.855469 C 644.105469 228.246094 645.632813 223.289063 645.632813 215.988281 L 645.632813 134.355469 C 645.632813 126.53125 644.238281 120.753906 641.460938 117.011719 C 638.675781 113.273438 633.460938 111.402344 625.8125 111.402344 L 625.8125 105.925781 C 631.375 106.449219 636.765625 106.710938 641.980469 106.710938 C 647.019531 106.710938 651.847656 106.40625 656.453125 105.796875 C 661.0625 105.1875 665.277344 104.277344 669.105469 103.058594 L 669.105469 133.832031 C 673.625 122.011719 679.925781 113.796875 688.011719 109.1875 C 696.097656 104.582031 704.574219 102.273438 713.441406 102.273438 "></path> <path style=" stroke:none;fill-rule:nonzero;fill:rgb(100%,100%,100%);fill-opacity:1;" d="M 811.242188 40.726563 C 815.761719 40.726563 819.671875 42.378906 822.976563 45.679688 C 826.277344 48.984375 827.933594 52.898438 827.933594 57.417969 C 827.933594 61.9375 826.277344 65.851563 822.976563 69.152344 C 819.671875 72.457031 815.761719 74.105469 811.242188 74.105469 C 806.71875 74.105469 802.804688 72.457031 799.503906 69.152344 C 796.199219 65.851563 794.550781 61.9375 794.550781 57.417969 C 794.550781 52.898438 796.199219 48.984375 799.503906 45.679688 C 802.804688 42.378906 806.71875 40.726563 811.242188 40.726563 M 824.804688 103.058594 L 824.804688 215.988281 C 824.804688 223.289063 826.324219 228.246094 829.367188 230.855469 C 832.40625 233.460938 837.492188 234.765625 844.625 234.765625 L 844.625 240.242188 C 841.664063 240.070313 837.191406 239.851563 831.191406 239.589844 C 825.195313 239.328125 819.152344 239.199219 813.066406 239.199219 C 807.152344 239.199219 801.15625 239.328125 795.070313 239.589844 C 788.980469 239.851563 784.464844 240.070313 781.507813 240.242188 L 781.507813 234.765625 C 788.636719 234.765625 793.722656 233.460938 796.765625 230.855469 C 799.804688 228.246094 801.332031 223.289063 801.332031 215.988281 L 801.332031 134.355469 C 801.332031 126.53125 799.9375 120.753906 797.15625 117.011719 C 794.375 113.273438 789.15625 111.40625 781.507813 111.40625 L 781.507813 105.925781 C 787.070313 106.449219 792.464844 106.710938 797.679688 106.710938 C 802.71875 106.710938 807.546875 106.40625 812.152344 105.796875 C 816.757813 105.1875 820.976563 104.277344 824.804688 103.058594 "></path> <path style=" stroke:none;fill-rule:nonzero;fill:rgb(100%,100%,100%);fill-opacity:1;" d="M 923.128906 102.273438 C 928.691406 102.273438 934.082031 102.972656 939.300781 104.359375 C 944.515625 105.753906 949.207031 107.839844 953.382813 110.621094 C 957.378906 113.230469 960.425781 116.226563 962.511719 119.617188 C 964.597656 123.007813 965.640625 126.707031 965.640625 130.703125 C 965.640625 135.398438 964.335938 139.007813 961.726563 141.527344 C 959.117188 144.046875 955.816406 145.308594 951.816406 145.308594 C 947.988281 145.308594 944.644531 144.179688 941.777344 141.917969 C 938.90625 139.660156 937.472656 136.441406 937.472656 132.269531 C 937.472656 128.269531 938.554688 125.054688 940.730469 122.617188 C 942.902344 120.1875 945.46875 118.621094 948.425781 117.921875 C 946.6875 114.796875 943.601563 112.1875 939.167969 110.097656 C 934.734375 108.011719 929.996094 106.96875 924.953125 106.96875 C 920.605469 106.96875 916.257813 108.011719 911.914063 110.097656 C 907.5625 112.1875 903.566406 115.621094 899.914063 120.402344 C 896.265625 125.1875 893.308594 131.703125 891.046875 139.964844 C 888.785156 148.222656 887.65625 158.523438 887.65625 170.867188 C 887.65625 186.171875 889.394531 198.339844 892.875 207.378906 C 896.351563 216.421875 900.914063 222.898438 906.566406 226.8125 C 912.214844 230.722656 918.433594 232.679688 925.214844 232.679688 C 931.996094 232.679688 938.859375 230.683594 945.816406 226.679688 C 952.769531 222.683594 958.507813 215.726563 963.03125 205.816406 L 967.988281 207.640625 C 966.246094 213.207031 963.378906 218.816406 959.382813 224.464844 C 955.378906 230.113281 950.160156 234.765625 943.730469 238.417969 C 937.296875 242.066406 929.386719 243.894531 920 243.894531 C 909.214844 243.894531 899.480469 241.109375 890.789063 235.546875 C 882.089844 229.984375 875.179688 222.03125 870.054688 211.683594 C 864.925781 201.339844 862.359375 189.039063 862.359375 174.78125 C 862.359375 160.523438 864.925781 147.960938 870.054688 137.09375 C 875.179688 126.230469 882.351563 117.707031 891.570313 111.535156 C 900.785156 105.363281 911.300781 102.273438 923.128906 102.273438 "></path> <path style=" stroke:none;fill-rule:nonzero;fill:rgb(100%,100%,100%);fill-opacity:1;" d="M 33.742188 164.917969 C 30.5 143.683594 32.097656 132.382813 36.21875 117.941406 C 39.636719 105.960938 44.277344 95.460938 51.730469 81.515625 C 59.054688 67.808594 69.648438 58.726563 78.035156 51.222656 C 72.84375 58.609375 66.203125 70.539063 61.765625 80.664063 C 57.601563 90.175781 53.746094 102.824219 51.507813 116.265625 C 49.667969 127.304688 49.109375 139.390625 51.65625 155.269531 C 54.164063 170.90625 59.4375 181.527344 68.871094 195.5625 C 76.8125 207.382813 85.457031 216.085938 93.941406 222.621094 C 101.792969 228.664063 109.714844 229.972656 124.976563 238.667969 C 114.339844 238.757813 93.515625 235.902344 82.214844 230.816406 C 70.652344 225.605469 60.953125 218.242188 51.867188 207.164063 C 42.921875 196.257813 36.300781 181.691406 33.742188 164.917969 "></path> <path style=" stroke:none;fill-rule:nonzero;fill:rgb(100%,100%,100%);fill-opacity:1;" d="M 81.671875 71.183594 C 82.324219 79.851563 83.335938 88.433594 84.902344 96.863281 C 86.46875 105.277344 88.539063 113.578125 91.664063 121.296875 C 92.460938 123.214844 93.28125 125.113281 94.238281 126.921875 C 95.15625 128.746094 96.476563 130.425781 97.558594 132.1875 L 104.589844 142.601563 C 109.246094 149.640625 114.109375 156.851563 117.347656 165.394531 C 115.386719 164.195313 113.589844 162.871094 111.851563 161.496094 C 110.085938 160.140625 108.4375 158.683594 106.824219 157.1875 C 103.609375 154.183594 100.617188 150.9375 97.910156 147.417969 C 95.210938 143.898438 92.765625 140.128906 90.761719 136.085938 C 89.726563 134.070313 88.960938 131.949219 88.050781 129.851563 C 87.121094 127.757813 86.351563 125.628906 85.636719 123.488281 C 82.898438 114.894531 81.546875 106.105469 80.984375 97.347656 C 80.472656 88.589844 80.566406 79.828125 81.671875 71.183594 "></path> <path style=" stroke:none;fill-rule:nonzero;fill:rgb(100%,100%,100%);fill-opacity:1;" d="M 75.972656 97.78125 C 74.9375 103.285156 74.5625 108.875 74.558594 114.449219 C 74.535156 120.019531 74.878906 125.589844 75.617188 131.101563 C 76.382813 136.609375 77.371094 142.089844 78.753906 147.472656 C 80.132813 152.855469 81.839844 158.152344 83.851563 163.332031 C 85.867188 168.507813 88.089844 173.609375 90.628906 178.558594 C 93.171875 183.488281 96.078125 188.261719 98.941406 193.0625 C 104.574219 202.699219 110.8125 212.125 115.054688 222.53125 C 112.570313 217.511719 109.617188 212.765625 106.597656 208.0625 C 103.617188 203.332031 100.535156 198.664063 97.503906 193.949219 C 94.484375 189.230469 91.574219 184.429688 88.902344 179.457031 C 86.300781 174.464844 83.90625 169.347656 81.921875 164.070313 C 77.980469 153.519531 75.152344 142.503906 74.066406 131.28125 C 72.996094 120.097656 73.183594 108.664063 75.972656 97.78125 "></path> <path style=" stroke:none;fill-rule:nonzero;fill:rgb(100%,100%,100%);fill-opacity:1;" d="M 76.824219 192.785156 C 78.964844 193.351563 81.015625 194.097656 83.039063 194.894531 C 85.066406 195.683594 87.042969 196.574219 89.015625 197.472656 C 90.972656 198.402344 92.921875 199.347656 94.832031 200.382813 C 96.753906 201.390625 98.628906 202.464844 100.53125 203.589844 C 98.332031 203.285156 96.222656 202.609375 94.167969 201.878906 C 92.109375 201.144531 90.109375 200.273438 88.128906 199.371094 C 86.164063 198.429688 84.21875 197.460938 82.332031 196.367188 C 80.4375 195.285156 78.582031 194.132813 76.824219 192.785156 "></path> <path style=" stroke:none;fill-rule:nonzero;fill:rgb(100%,100%,100%);fill-opacity:1;" d="M 63.199219 162.789063 C 66.308594 163.636719 69.105469 164.984375 71.867188 166.394531 C 74.613281 167.851563 77.230469 169.421875 79.851563 171.265625 C 78.226563 171.15625 76.683594 170.699219 75.203125 170.164063 C 73.714844 169.625 72.277344 168.988281 70.890625 168.25 C 69.503906 167.523438 68.160156 166.707031 66.871094 165.8125 C 65.578125 164.917969 64.328125 163.949219 63.199219 162.789063 "></path> <path style=" stroke:none;fill-rule:nonzero;fill:rgb(100%,100%,100%);fill-opacity:1;" d="M 226.527344 140.609375 C 227.128906 116.644531 222.003906 104.699219 213.59375 89.746094 C 206.613281 77.339844 197.4375 65.277344 181.757813 54.730469 C 154.671875 36.511719 141.636719 37.007813 125.796875 36.214844 C 137.222656 37.699219 159.855469 49.132813 168.484375 56.921875 C 177.464844 65.03125 186.335938 76.15625 192.203125 90.410156 C 197.019531 102.121094 200.503906 115.246094 201.050781 133.183594 C 201.589844 150.851563 197.570313 163.605469 189.226563 180.980469 C 182.203125 195.609375 173.601563 206.976563 164.683594 215.929688 C 156.433594 224.214844 153.394531 228.164063 133.003906 238.429688 C 154.550781 236.570313 168.28125 230.394531 180.992188 222.429688 C 193.996094 214.277344 204.214844 204.15625 212.8125 190.097656 C 221.28125 176.253906 226.007813 161.523438 226.527344 140.609375 "></path> <path style=" stroke:none;fill-rule:nonzero;fill:rgb(100%,100%,100%);fill-opacity:1;" d="M 127.804688 36.09375 C 133.046875 43.246094 137.257813 51.078125 140.539063 59.375 C 143.800781 67.667969 145.992188 76.507813 146.464844 85.636719 C 146.707031 90.1875 146.507813 94.824219 145.742188 99.378906 C 145.046875 103.847656 144.074219 108.257813 142.914063 112.601563 C 140.617188 121.296875 137.445313 129.652344 134.242188 137.867188 C 127.589844 154.195313 121.714844 170.5625 117.714844 186.316406 C 115.746094 194.230469 114.753906 202.191406 115.351563 210.277344 C 115.917969 218.367188 118.261719 226.488281 121.648438 234.703125 L 120.613281 235.421875 C 114.03125 229.273438 108.9375 221.125 106.332031 211.964844 C 103.660156 202.816406 103.621094 192.960938 105.179688 183.761719 C 106.734375 174.503906 110.035156 165.898438 113.816406 157.804688 C 115.699219 153.742188 117.667969 149.769531 119.621094 145.824219 L 125.328125 134.015625 C 129.066406 126.171875 132.53125 118.296875 135.449219 110.277344 C 136.890625 106.261719 138.148438 102.199219 139.148438 98.078125 C 140.113281 94.050781 140.601563 89.910156 140.71875 85.714844 C 140.957031 77.320313 139.519531 68.808594 137.097656 60.5625 C 134.605469 52.34375 131.199219 44.261719 126.773438 36.820313 "></path> <path style=" stroke:none;fill-rule:nonzero;fill:rgb(100%,100%,100%);fill-opacity:1;" d="M 157.484375 55.597656 C 160.714844 61.824219 162.90625 68.5625 164.691406 75.363281 C 166.421875 82.191406 167.636719 89.164063 168.285156 96.195313 C 169.664063 110.257813 168.925781 124.519531 166.464844 138.4375 C 165.253906 145.40625 163.515625 152.269531 161.484375 159.035156 C 159.339844 165.800781 156.785156 172.335938 154.140625 178.820313 L 146.054688 198.164063 C 143.371094 204.609375 140.726563 211.054688 138.667969 217.746094 C 139.761719 210.8125 141.890625 204.078125 144.03125 197.414063 C 146.222656 190.753906 148.613281 184.175781 150.964844 177.605469 C 153.316406 171.039063 155.664063 164.476563 157.613281 157.871094 C 159.570313 151.238281 161.113281 144.496094 162.367188 137.703125 C 164.851563 124.117188 165.796875 110.253906 165.105469 96.429688 C 164.738281 89.523438 164 82.617188 162.757813 75.785156 C 161.519531 68.957031 159.898438 62.164063 157.484375 55.597656 "></path> <path style=" stroke:none;fill-rule:nonzero;fill:rgb(100%,100%,100%);fill-opacity:1;" d="M 178.675781 172.320313 C 176.898438 174.472656 174.917969 176.367188 172.867188 178.167969 C 170.824219 179.980469 168.683594 181.660156 166.480469 183.257813 C 164.269531 184.847656 161.992188 186.351563 159.609375 187.699219 C 157.234375 189.046875 154.765625 190.324219 152.074219 191.113281 C 156.089844 187.300781 160.238281 183.882813 164.640625 180.707031 C 166.839844 179.125 169.082031 177.601563 171.414063 176.195313 C 173.734375 174.773438 176.113281 173.429688 178.675781 172.320313 "></path> <path style=" stroke:none;fill-rule:nonzero;fill:rgb(100%,100%,100%);fill-opacity:1;" d="M 188.390625 132.34375 C 187.347656 134.113281 186.074219 135.636719 184.71875 137.066406 C 183.378906 138.511719 181.914063 139.824219 180.382813 141.050781 C 178.847656 142.269531 177.230469 143.398438 175.492188 144.363281 C 173.769531 145.335938 171.945313 146.214844 169.921875 146.632813 C 171.265625 145.089844 172.617188 143.707031 174.039063 142.382813 C 175.445313 141.042969 176.914063 139.789063 178.425781 138.585938 C 179.945313 137.386719 181.503906 136.238281 183.15625 135.1875 C 184.792969 134.121094 186.496094 133.128906 188.390625 132.34375 "></path> <path style=" stroke:none;fill-rule:nonzero;fill:rgb(100%,100%,100%);fill-opacity:1;" d="M 186.3125 100.480469 C 185.96875 101.917969 185.324219 103.140625 184.605469 104.296875 C 183.867188 105.441406 183.015625 106.496094 182.054688 107.445313 C 181.089844 108.394531 180.027344 109.253906 178.839844 109.964844 C 177.644531 110.652344 176.351563 111.253906 174.878906 111.429688 C 175.621094 110.152344 176.410156 109.109375 177.230469 108.085938 C 178.058594 107.078125 178.914063 106.113281 179.839844 105.210938 C 180.761719 104.300781 181.734375 103.433594 182.789063 102.628906 C 183.855469 101.835938 184.964844 101.074219 186.3125 100.480469 "></path> <path style=" stroke:none;fill-rule:nonzero;fill:rgb(100%,100%,100%);fill-opacity:1;" d="M 453.964844 241.457031 C 449.628906 247.332031 443.722656 251.960938 437.421875 255.722656 C 431.085938 259.488281 424.128906 262.203125 416.972656 263.992188 C 413.394531 264.902344 409.746094 265.484375 406.089844 265.9375 C 402.394531 266.3125 398.757813 266.421875 395.136719 266.457031 C 387.882813 266.578125 380.722656 266.117188 373.480469 266.46875 C 376.945313 265.300781 380.582031 264.753906 384.171875 264.230469 L 389.570313 263.582031 L 394.960938 263.058594 C 398.542969 262.726563 402.117188 262.414063 405.585938 261.929688 C 409.089844 261.460938 412.550781 260.75 415.984375 259.945313 C 422.847656 258.316406 429.523438 255.949219 435.917969 252.910156 C 442.28125 249.820313 448.4375 246.144531 453.964844 241.457031 "></path> <path style=" stroke:none;fill-rule:nonzero;fill:rgb(100%,100%,100%);fill-opacity:1;" d="M 450.769531 267.816406 C 449.222656 267.84375 447.808594 267.5625 446.425781 267.207031 C 445.050781 266.832031 443.730469 266.339844 442.453125 265.742188 C 441.179688 265.144531 439.953125 264.4375 438.785156 263.605469 C 437.636719 262.75 436.492188 261.8125 435.625 260.519531 C 437.15625 260.671875 438.523438 260.984375 439.882813 261.386719 C 441.230469 261.796875 442.535156 262.296875 443.792969 262.894531 C 445.054688 263.488281 446.277344 264.171875 447.453125 264.964844 C 448.621094 265.773438 449.757813 266.648438 450.769531 267.816406 "></path> <path style=" stroke:none;fill-rule:nonzero;fill:rgb(100%,100%,100%);fill-opacity:1;" d="M 428.507813 273.34375 C 427.316406 273.5 426.261719 273.339844 425.242188 273.105469 C 424.234375 272.851563 423.28125 272.476563 422.382813 271.996094 C 421.484375 271.519531 420.636719 270.925781 419.867188 270.203125 C 419.113281 269.46875 418.382813 268.640625 417.960938 267.503906 C 419.152344 267.566406 420.144531 267.78125 421.121094 268.070313 C 422.085938 268.367188 423 268.753906 423.871094 269.222656 C 424.746094 269.695313 425.574219 270.25 426.359375 270.90625 C 427.136719 271.582031 427.886719 272.320313 428.507813 273.34375 "></path> <path style=" stroke:none;fill-rule:nonzero;fill:rgb(100%,100%,100%);fill-opacity:1;" d="M 405.019531 274.519531 C 404.109375 274.796875 403.335938 274.75 402.605469 274.628906 C 401.878906 274.484375 401.214844 274.214844 400.609375 273.835938 C 400.007813 273.457031 399.464844 272.96875 399.019531 272.355469 C 398.589844 271.726563 398.214844 271.003906 398.171875 270.050781 C 399.121094 270.046875 399.8125 270.171875 400.484375 270.359375 C 401.140625 270.558594 401.738281 270.820313 402.289063 271.171875 C 402.839844 271.523438 403.351563 271.949219 403.816406 272.476563 C 404.273438 273.023438 404.703125 273.628906 405.019531 274.519531 "></path> </g> </svg> 