<?xml version="1.0" encoding="UTF-8"?> <svg xmlns="http://www.w3.org/2000/svg" xmlns:xlink="http://www.w3.org/1999/xlink" width="1000pt" height="371pt" viewBox="0 0 1000 371"> <g id="surface1"> <path style=" stroke:none;fill-rule:nonzero;fill:rgb(77.734375%,74.414063%,51.367188%);fill-opacity:1;" d="M 590.515625 265.507813 L 600.488281 265.507813 L 600.488281 292.867188 L 637.953125 292.867188 L 637.953125 265.507813 L 647.925781 265.507813 L 647.925781 331.71875 L 637.953125 331.71875 L 637.953125 300.753906 L 600.488281 300.753906 L 600.488281 331.71875 L 590.515625 331.71875 "></path> <path style=" stroke:none;fill-rule:nonzero;fill:rgb(77.734375%,74.414063%,51.367188%);fill-opacity:1;" d="M 662.058594 265.507813 L 714.953125 265.507813 L 714.953125 273.621094 L 671.683594 273.621094 L 671.683594 293.722656 L 711.679688 293.722656 L 711.679688 301.386719 L 671.683594 301.386719 L 671.683594 323.832031 L 715.699219 323.832031 L 715.699219 331.71875 L 662.058594 331.71875 "></path> <path style=" stroke:none;fill-rule:nonzero;fill:rgb(77.734375%,74.414063%,51.367188%);fill-opacity:1;" d="M 763.773438 304.585938 L 752.707031 275.332031 L 740.945313 304.585938 Z M 747.546875 265.507813 L 758.710938 265.507813 L 785.160156 331.71875 L 774.339844 331.71875 L 766.949219 311.886719 L 738.117188 311.886719 L 730.230469 331.71875 L 720.105469 331.71875 "></path> <path style=" stroke:none;fill-rule:nonzero;fill:rgb(77.734375%,74.414063%,51.367188%);fill-opacity:1;" d="M 791.601563 265.507813 L 801.472656 265.507813 L 801.472656 323.832031 L 838.046875 323.832031 L 838.046875 331.71875 L 791.601563 331.71875 "></path> <path style=" stroke:none;fill-rule:nonzero;fill:rgb(77.734375%,74.414063%,51.367188%);fill-opacity:1;" d="M 891.082031 265.507813 L 891.082031 273.394531 L 866.519531 273.394531 L 866.519531 331.71875 L 856.546875 331.71875 L 856.546875 273.394531 L 831.980469 273.394531 L 831.980469 265.507813 "></path> <path style=" stroke:none;fill-rule:nonzero;fill:rgb(77.734375%,74.414063%,51.367188%);fill-opacity:1;" d="M 897.871094 265.507813 L 907.84375 265.507813 L 907.84375 292.867188 L 945.308594 292.867188 L 945.308594 265.507813 L 955.28125 265.507813 L 955.28125 331.71875 L 945.308594 331.71875 L 945.308594 300.753906 L 907.84375 300.753906 L 907.84375 331.71875 L 897.871094 331.71875 "></path> <path style=" stroke:none;fill-rule:nonzero;fill:rgb(1.960754%,36.083984%,11.376953%);fill-opacity:1;" d="M 329.601563 104.050781 C 334.195313 104.050781 338.234375 104.988281 341.726563 106.859375 C 345.210938 108.734375 347.9375 111.15625 349.894531 114.132813 C 351.847656 117.113281 352.828125 120.472656 352.828125 124.214844 C 352.828125 128.46875 351.507813 132.214844 348.871094 135.445313 C 346.230469 138.679688 342.703125 140.296875 338.28125 140.296875 C 334.707031 140.296875 331.554688 139.144531 328.835938 136.851563 C 326.113281 134.550781 324.75 131.277344 324.75 127.023438 C 324.75 123.792969 325.644531 121.023438 327.433594 118.726563 C 329.21875 116.429688 331.214844 114.601563 333.429688 113.238281 C 332.238281 111.539063 330.453125 110.6875 328.070313 110.6875 C 320.921875 110.6875 314.710938 113.367188 309.4375 118.726563 C 304.160156 124.085938 300.035156 130.511719 297.058594 137.996094 C 294.078125 145.488281 292.589844 152.378906 292.589844 158.671875 L 292.589844 212.785156 C 292.589844 221.125 295.015625 226.695313 299.867188 229.503906 C 304.714844 232.3125 311.308594 233.714844 319.644531 233.714844 L 319.644531 239.074219 C 315.730469 238.90625 310.203125 238.691406 303.054688 238.4375 C 295.910156 238.179688 288.335938 238.054688 280.339844 238.054688 C 274.554688 238.054688 268.808594 238.179688 263.113281 238.4375 C 257.40625 238.691406 253.113281 238.90625 250.222656 239.074219 L 250.222656 233.714844 C 257.195313 233.714844 262.171875 232.4375 265.152344 229.886719 C 268.128906 227.332031 269.621094 222.484375 269.621094 215.335938 L 269.621094 135.445313 C 269.621094 127.789063 268.253906 122.132813 265.535156 118.472656 C 262.8125 114.816406 257.703125 112.984375 250.222656 112.984375 L 250.222656 107.625 C 255.664063 108.132813 260.941406 108.390625 266.046875 108.390625 C 270.980469 108.390625 275.703125 108.09375 280.210938 107.496094 C 284.71875 106.902344 288.847656 106.007813 292.589844 104.816406 L 292.589844 136.722656 C 294.460938 131.789063 297.140625 126.8125 300.628906 121.789063 C 304.117188 116.773438 308.328125 112.5625 313.265625 109.15625 C 318.199219 105.753906 323.644531 104.050781 329.601563 104.050781 "></path> <path style=" stroke:none;fill-rule:nonzero;fill:rgb(1.960754%,36.083984%,11.376953%);fill-opacity:1;" d="M 448.796875 125.238281 L 444.203125 123.449219 C 446.585938 117.667969 450.667969 112.5625 456.453125 108.136719 C 462.238281 103.710938 468.28125 101.5 474.578125 101.5 C 479 101.5 482.574219 102.734375 485.296875 105.199219 C 488.019531 107.667969 489.382813 111.367188 489.382813 116.304688 C 489.382813 121.578125 487.976563 125.277344 485.171875 127.40625 C 482.363281 129.535156 479.511719 130.597656 476.617188 130.597656 C 474.066406 130.597656 471.683594 129.703125 469.472656 127.917969 C 467.257813 126.128906 465.984375 123.28125 465.644531 119.363281 C 465.300781 115.453125 466.492188 110.433594 469.21875 104.304688 L 472.535156 105.070313 C 465.390625 107.796875 460.28125 110.648438 457.222656 113.621094 C 454.15625 116.601563 451.351563 120.472656 448.796875 125.238281 M 412.042969 180.113281 C 418.507813 180.113281 423.570313 177.5625 427.230469 172.457031 C 430.886719 167.351563 432.71875 157.996094 432.71875 144.378906 C 432.71875 130.769531 430.886719 121.40625 427.230469 116.304688 C 423.570313 111.199219 418.507813 108.644531 412.042969 108.644531 C 405.746094 108.644531 400.722656 111.199219 396.984375 116.304688 C 393.238281 121.40625 391.367188 130.769531 391.367188 144.378906 C 391.367188 157.996094 393.238281 167.351563 396.984375 172.457031 C 400.722656 177.5625 405.746094 180.113281 412.042969 180.113281 M 412.042969 184.707031 C 399.449219 184.707031 388.855469 181.476563 380.265625 175.007813 C 371.671875 168.542969 367.375 158.335938 367.375 144.378906 C 367.375 130.257813 371.671875 120.003906 380.265625 113.621094 C 388.855469 107.242188 399.449219 104.050781 412.042969 104.050781 C 424.632813 104.050781 435.226563 107.242188 443.820313 113.621094 C 452.410156 120.003906 456.710938 130.257813 456.710938 144.378906 C 456.710938 158.335938 452.410156 168.542969 443.820313 175.007813 C 435.226563 181.476563 424.632813 184.707031 412.042969 184.707031 M 410.765625 287.0625 C 401.746094 287.0625 393.238281 286.121094 385.242188 284.253906 C 377.242188 282.378906 370.820313 279.441406 365.972656 275.445313 C 361.121094 271.445313 356.191406 265.851563 358.695313 260.257813 C 361.496094 254.015625 373.339844 250.464844 379.410156 248.484375 C 390.117188 244.992188 413.90625 239.5 422.570313 238.261719 C 422.570313 238.261719 403.730469 243.316406 395.9375 245.800781 C 391.933594 247.074219 378.480469 251.273438 373.421875 259.605469 C 369.359375 266.292969 378.136719 272.296875 385.367188 276.46875 C 392.601563 280.636719 402 282.722656 413.574219 282.722656 C 421.230469 282.722656 428.71875 281.738281 436.035156 279.785156 C 443.351563 277.828125 449.390625 274.554688 454.15625 269.960938 C 458.921875 265.363281 461.304688 259.324219 461.304688 251.835938 C 461.304688 246.222656 459.300781 241.582031 455.308594 237.925781 C 451.304688 234.269531 443.4375 232.4375 431.695313 232.4375 L 412.808594 232.4375 C 407.359375 232.4375 402.089844 232.015625 396.984375 231.160156 C 391.878906 230.3125 387.707031 228.527344 384.476563 225.800781 C 381.242188 223.082031 379.628906 218.910156 379.628906 213.296875 C 379.628906 207.511719 382.007813 201.9375 386.773438 196.574219 C 391.535156 191.21875 400.300781 185.730469 413.066406 180.113281 L 416.125 182.410156 C 410.339844 185.472656 405.320313 188.578125 401.066406 191.726563 C 396.8125 194.878906 394.6875 198.578125 394.6875 202.832031 C 394.6875 208.277344 398.769531 210.996094 406.9375 210.996094 L 438.84375 210.996094 C 449.390625 210.996094 458.707031 213.339844 466.792969 218.015625 C 474.871094 222.699219 477.117188 229.542969 477.117188 240.261719 C 477.117188 248.257813 476.085938 254.371094 470.507813 262.765625 C 465.722656 269.964844 458.535156 276.214844 448.414063 280.550781 C 438.289063 284.890625 425.738281 287.0625 410.765625 287.0625 "></path> <path style=" stroke:none;fill-rule:nonzero;fill:rgb(1.960754%,36.083984%,11.376953%);fill-opacity:1;" d="M 541.453125 230.652344 C 546.558594 230.652344 551.574219 229.164063 556.511719 226.183594 C 561.445313 223.210938 566.039063 218.230469 570.296875 211.253906 L 570.296875 161.226563 C 567.742188 164.96875 563.785156 167.949219 558.425781 170.15625 C 553.066406 172.371094 547.535156 174.796875 541.835938 177.433594 C 536.132813 180.074219 531.242188 183.648438 527.160156 188.152344 C 523.074219 192.664063 521.03125 199.089844 521.03125 207.421875 C 521.03125 215.253906 522.988281 221.078125 526.902344 224.910156 C 530.816406 228.734375 535.664063 230.652344 541.453125 230.652344 M 530.222656 240.859375 C 519.160156 240.859375 511.117188 238.097656 506.101563 232.566406 C 501.078125 227.039063 498.570313 219.675781 498.570313 210.488281 C 498.570313 203.339844 500.3125 197.429688 503.804688 192.746094 C 507.289063 188.070313 511.757813 184.242188 517.203125 181.261719 C 522.648438 178.285156 528.390625 175.734375 534.433594 173.605469 C 540.472656 171.476563 546.214844 169.394531 551.664063 167.351563 C 557.105469 165.308594 561.574219 163.011719 565.0625 160.460938 C 568.550781 157.90625 570.296875 154.675781 570.296875 150.761719 L 570.296875 134.933594 C 570.296875 127.789063 569.230469 122.34375 567.105469 118.601563 C 564.972656 114.859375 562.128906 112.347656 558.554688 111.070313 C 554.980469 109.792969 550.980469 109.15625 546.558594 109.15625 C 542.300781 109.15625 537.753906 109.753906 532.902344 110.941406 C 528.054688 112.132813 524.179688 114.601563 521.289063 118.34375 C 524.519531 119.027344 527.328125 120.730469 529.710938 123.449219 C 532.09375 126.171875 533.285156 129.660156 533.285156 133.914063 C 533.285156 138.171875 531.921875 141.53125 529.199219 143.996094 C 526.476563 146.464844 522.988281 147.695313 518.738281 147.695313 C 513.800781 147.695313 510.183594 146.125 507.886719 142.976563 C 505.59375 139.828125 504.441406 136.296875 504.441406 132.382813 C 504.441406 127.960938 505.546875 124.386719 507.761719 121.660156 C 509.96875 118.941406 512.777344 116.390625 516.183594 114.003906 C 520.097656 111.285156 525.15625 108.945313 531.371094 106.984375 C 537.582031 105.03125 544.597656 104.050781 552.429688 104.050781 C 559.402344 104.050781 565.359375 104.859375 570.296875 106.476563 C 575.226563 108.09375 579.3125 110.433594 582.546875 113.492188 C 586.972656 117.578125 589.859375 122.554688 591.226563 128.425781 C 592.585938 134.296875 593.265625 141.316406 593.265625 149.484375 L 593.265625 220.441406 C 593.265625 224.523438 593.859375 227.546875 595.054688 229.503906 C 596.242188 231.460938 598.285156 232.4375 601.179688 232.4375 C 603.5625 232.4375 605.644531 231.925781 607.433594 230.90625 C 609.21875 229.886719 610.964844 228.609375 612.667969 227.078125 L 615.472656 231.414063 C 611.898438 234.140625 608.492188 236.394531 605.265625 238.179688 C 602.027344 239.96875 597.691406 240.859375 592.246094 240.859375 C 583.394531 240.859375 577.527344 238.5625 574.632813 233.96875 C 571.738281 229.375 570.296875 224.101563 570.296875 218.144531 C 564.847656 227.164063 558.683594 233.203125 551.789063 236.265625 C 544.898438 239.328125 537.707031 240.859375 530.222656 240.859375 "></path> <path style=" stroke:none;fill-rule:nonzero;fill:rgb(1.960754%,36.083984%,11.376953%);fill-opacity:1;" d="M 708.890625 104.050781 C 715.355469 104.050781 720.757813 104.902344 725.097656 106.601563 C 729.4375 108.304688 733.050781 110.6875 735.945313 113.75 C 739.175781 117.15625 741.472656 121.40625 742.835938 126.511719 C 744.195313 131.617188 744.878906 138.507813 744.878906 147.1875 L 744.878906 215.335938 C 744.878906 222.484375 746.367188 227.332031 749.34375 229.886719 C 752.320313 232.4375 757.296875 233.714844 764.277344 233.714844 L 764.277344 239.074219 C 761.382813 238.90625 756.957031 238.691406 751.003906 238.4375 C 745.046875 238.179688 739.261719 238.054688 733.648438 238.054688 C 728.03125 238.054688 722.546875 238.179688 717.183594 238.4375 C 711.824219 238.691406 707.78125 238.90625 705.058594 239.074219 L 705.058594 233.714844 C 711.1875 233.714844 715.523438 232.4375 718.078125 229.886719 C 720.628906 227.332031 721.90625 222.484375 721.90625 215.335938 L 721.90625 141.570313 C 721.90625 136.300781 721.480469 131.449219 720.628906 127.023438 C 719.777344 122.597656 717.863281 119.027344 714.886719 116.300781 C 711.90625 113.582031 707.355469 112.21875 701.230469 112.21875 C 690.511719 112.21875 681.871094 116.683594 675.324219 125.617188 C 668.769531 134.550781 665.496094 145.570313 665.496094 158.671875 L 665.496094 215.335938 C 665.496094 222.484375 666.773438 227.332031 669.324219 229.886719 C 671.878906 232.4375 676.21875 233.714844 682.34375 233.714844 L 682.34375 239.074219 C 679.617188 238.90625 675.578125 238.691406 670.21875 238.4375 C 664.859375 238.179688 659.371094 238.054688 653.757813 238.054688 C 648.140625 238.054688 642.355469 238.179688 636.398438 238.4375 C 630.441406 238.691406 626.019531 238.90625 623.128906 239.074219 L 623.128906 233.714844 C 630.101563 233.714844 635.078125 232.4375 638.058594 229.886719 C 641.035156 227.332031 642.527344 222.484375 642.527344 215.335938 L 642.527344 135.445313 C 642.527344 127.789063 641.160156 122.132813 638.441406 118.472656 C 635.71875 114.816406 630.613281 112.984375 623.128906 112.984375 L 623.128906 107.625 C 628.570313 108.132813 633.847656 108.390625 638.949219 108.390625 C 643.886719 108.390625 648.609375 108.09375 653.117188 107.496094 C 657.625 106.902344 661.753906 106.007813 665.496094 104.816406 L 665.496094 134.933594 C 669.921875 123.363281 676.089844 115.324219 684.003906 110.816406 C 691.914063 106.308594 700.210938 104.050781 708.890625 104.050781 "></path> <path style=" stroke:none;fill-rule:nonzero;fill:rgb(1.960754%,36.083984%,11.376953%);fill-opacity:1;" d="M 804.601563 43.8125 C 809.023438 43.8125 812.855469 45.433594 816.085938 48.664063 C 819.316406 51.898438 820.9375 55.726563 820.9375 60.148438 C 820.9375 64.574219 819.316406 68.402344 816.085938 71.636719 C 812.855469 74.867188 809.023438 76.484375 804.601563 76.484375 C 800.171875 76.484375 796.347656 74.867188 793.113281 71.636719 C 789.878906 68.402344 788.265625 64.574219 788.265625 60.148438 C 788.265625 55.726563 789.878906 51.898438 793.113281 48.664063 C 796.347656 45.433594 800.171875 43.8125 804.601563 43.8125 M 817.871094 104.816406 L 817.871094 215.335938 C 817.871094 222.484375 819.363281 227.332031 822.339844 229.886719 C 825.316406 232.4375 830.292969 233.714844 837.273438 233.714844 L 837.273438 239.074219 C 834.378906 238.90625 829.996094 238.691406 824.128906 238.4375 C 818.257813 238.183594 812.339844 238.054688 806.386719 238.054688 C 800.601563 238.054688 794.730469 238.183594 788.777344 238.4375 C 782.816406 238.691406 778.394531 238.90625 775.503906 239.074219 L 775.503906 233.714844 C 782.480469 233.714844 787.453125 232.4375 790.433594 229.886719 C 793.410156 227.332031 794.902344 222.484375 794.902344 215.335938 L 794.902344 135.445313 C 794.902344 127.789063 793.539063 122.132813 790.820313 118.472656 C 788.09375 114.816406 782.988281 112.984375 775.503906 112.984375 L 775.503906 107.625 C 780.949219 108.136719 786.222656 108.390625 791.328125 108.390625 C 796.261719 108.390625 800.984375 108.09375 805.496094 107.496094 C 810 106.902344 814.128906 106.007813 817.871094 104.816406 "></path> <path style=" stroke:none;fill-rule:nonzero;fill:rgb(1.960754%,36.083984%,11.376953%);fill-opacity:1;" d="M 914.101563 104.050781 C 919.542969 104.050781 924.820313 104.730469 929.925781 106.09375 C 935.03125 107.457031 939.625 109.5 943.710938 112.21875 C 947.621094 114.769531 950.601563 117.707031 952.644531 121.023438 C 954.683594 124.34375 955.703125 127.960938 955.703125 131.871094 C 955.703125 136.464844 954.429688 140 951.878906 142.464844 C 949.324219 144.933594 946.089844 146.164063 942.179688 146.164063 C 938.433594 146.164063 935.160156 145.0625 932.351563 142.847656 C 929.542969 140.636719 928.140625 137.488281 928.140625 133.402344 C 928.140625 129.488281 929.199219 126.34375 931.328125 123.960938 C 933.453125 121.578125 935.964844 120.046875 938.859375 119.363281 C 937.15625 116.300781 934.136719 113.75 929.796875 111.707031 C 925.460938 109.664063 920.820313 108.644531 915.886719 108.644531 C 911.632813 108.644531 907.378906 109.664063 903.125 111.707031 C 898.871094 113.75 894.957031 117.113281 891.386719 121.789063 C 887.8125 126.472656 884.914063 132.851563 882.703125 140.933594 C 880.492188 149.015625 879.386719 159.097656 879.386719 171.179688 C 879.386719 186.15625 881.085938 198.066406 884.492188 206.914063 C 887.894531 215.761719 892.363281 222.101563 897.894531 225.929688 C 903.421875 229.757813 909.507813 231.671875 916.144531 231.671875 C 922.78125 231.671875 929.496094 229.71875 936.308594 225.800781 C 943.109375 221.890625 948.726563 215.082031 953.152344 205.382813 L 958.003906 207.167969 C 956.300781 212.617188 953.492188 218.105469 949.578125 223.632813 C 945.664063 229.164063 940.558594 233.714844 934.265625 237.289063 C 927.96875 240.859375 920.226563 242.648438 911.039063 242.648438 C 900.484375 242.648438 890.957031 239.925781 882.449219 234.480469 C 873.9375 229.035156 867.175781 221.25 862.160156 211.125 C 857.140625 201.003906 854.628906 188.964844 854.628906 175.007813 C 854.628906 161.058594 857.140625 148.761719 862.160156 138.125 C 867.175781 127.492188 874.195313 119.152344 883.214844 113.113281 C 892.234375 107.074219 902.527344 104.050781 914.101563 104.050781 "></path> <path style=" stroke:none;fill-rule:nonzero;fill:rgb(77.734375%,74.414063%,51.367188%);fill-opacity:1;" d="M 43.6875 165.355469 C 40.515625 144.574219 42.082031 133.515625 46.113281 119.386719 C 49.460938 107.65625 54 97.382813 61.292969 83.734375 C 68.464844 70.320313 78.828125 61.429688 87.039063 54.085938 C 81.957031 61.316406 75.457031 72.992188 71.117188 82.902344 C 67.039063 92.210938 63.265625 104.589844 61.074219 117.742188 C 59.277344 128.546875 58.730469 140.375 61.222656 155.914063 C 63.675781 171.21875 68.839844 181.613281 78.070313 195.347656 C 85.839844 206.914063 94.296875 215.433594 102.605469 221.828125 C 110.289063 227.746094 118.042969 229.023438 132.976563 237.535156 C 122.566406 237.621094 102.1875 234.828125 91.128906 229.847656 C 79.8125 224.75 70.320313 217.542969 61.429688 206.703125 C 52.671875 196.027344 46.195313 181.773438 43.6875 165.355469 "></path> <path style=" stroke:none;fill-rule:nonzero;fill:rgb(77.734375%,74.414063%,51.367188%);fill-opacity:1;" d="M 90.597656 73.621094 C 91.234375 82.105469 92.222656 90.503906 93.757813 98.753906 C 95.289063 106.988281 97.316406 115.113281 100.378906 122.664063 C 101.15625 124.542969 101.960938 126.402344 102.894531 128.171875 C 103.792969 129.960938 105.085938 131.601563 106.144531 133.324219 L 113.027344 143.515625 C 117.585938 150.40625 122.34375 157.460938 125.511719 165.824219 C 123.589844 164.648438 121.832031 163.355469 120.132813 162.007813 C 118.402344 160.683594 116.789063 159.257813 115.214844 157.789063 C 112.066406 154.851563 109.136719 151.675781 106.492188 148.230469 C 103.847656 144.785156 101.453125 141.097656 99.492188 137.140625 C 98.476563 135.167969 97.730469 133.089844 96.839844 131.035156 C 95.929688 128.988281 95.175781 126.902344 94.476563 124.8125 C 91.792969 116.402344 90.476563 107.796875 89.921875 99.226563 C 89.421875 90.65625 89.515625 82.082031 90.597656 73.621094 "></path> <path style=" stroke:none;fill-rule:nonzero;fill:rgb(77.734375%,74.414063%,51.367188%);fill-opacity:1;" d="M 85.019531 99.652344 C 84.007813 105.039063 83.636719 110.511719 83.636719 115.964844 C 83.609375 121.417969 83.949219 126.867188 84.671875 132.265625 C 85.421875 137.652344 86.386719 143.015625 87.742188 148.285156 C 89.089844 153.554688 90.761719 158.738281 92.730469 163.804688 C 94.703125 168.871094 96.875 173.863281 99.363281 178.707031 C 101.855469 183.53125 104.695313 188.203125 107.496094 192.902344 C 113.011719 202.335938 119.113281 211.554688 123.269531 221.742188 C 120.835938 216.828125 117.945313 212.1875 114.988281 207.582031 C 112.074219 202.953125 109.058594 198.382813 106.09375 193.769531 C 103.136719 189.152344 100.289063 184.453125 97.671875 179.585938 C 95.125 174.699219 92.785156 169.695313 90.84375 164.527344 C 86.980469 154.199219 84.214844 143.421875 83.152344 132.4375 C 82.105469 121.492188 82.292969 110.304688 85.019531 99.652344 "></path> <path style=" stroke:none;fill-rule:nonzero;fill:rgb(77.734375%,74.414063%,51.367188%);fill-opacity:1;" d="M 85.851563 192.628906 C 87.945313 193.1875 89.953125 193.914063 91.933594 194.695313 C 93.917969 195.46875 95.855469 196.335938 97.785156 197.21875 C 99.699219 198.128906 101.605469 199.054688 103.476563 200.0625 C 105.355469 201.050781 107.191406 202.101563 109.054688 203.203125 C 106.898438 202.90625 104.839844 202.246094 102.828125 201.527344 C 100.8125 200.8125 98.855469 199.960938 96.914063 199.078125 C 94.996094 198.15625 93.089844 197.203125 91.242188 196.136719 C 89.390625 195.078125 87.574219 193.949219 85.851563 192.628906 "></path> <path style=" stroke:none;fill-rule:nonzero;fill:rgb(77.734375%,74.414063%,51.367188%);fill-opacity:1;" d="M 72.519531 163.273438 C 75.5625 164.105469 78.300781 165.421875 81 166.800781 C 83.6875 168.230469 86.25 169.761719 88.816406 171.566406 C 87.226563 171.460938 85.714844 171.015625 84.265625 170.492188 C 82.808594 169.964844 81.402344 169.339844 80.046875 168.621094 C 78.6875 167.90625 77.375 167.105469 76.109375 166.230469 C 74.847656 165.355469 73.625 164.410156 72.519531 163.273438 "></path> <path style=" stroke:none;fill-rule:nonzero;fill:rgb(1.960754%,36.083984%,11.376953%);fill-opacity:1;" d="M 232.363281 141.566406 C 232.949219 118.109375 227.933594 106.421875 219.703125 91.789063 C 212.875 79.648438 203.894531 67.84375 188.546875 57.519531 C 162.039063 39.691406 149.28125 40.175781 133.78125 39.398438 C 144.960938 40.851563 167.113281 52.042969 175.554688 59.664063 C 184.347656 67.601563 193.027344 78.488281 198.769531 92.441406 C 203.480469 103.898438 206.894531 116.742188 207.429688 134.300781 C 207.957031 151.589844 204.019531 164.074219 195.859375 181.074219 C 188.984375 195.394531 180.5625 206.515625 171.839844 215.28125 C 163.761719 223.390625 160.789063 227.253906 140.832031 237.300781 C 161.917969 235.484375 175.359375 229.4375 187.800781 221.644531 C 200.523438 213.664063 210.523438 203.757813 218.9375 190 C 227.226563 176.449219 231.851563 162.035156 232.363281 141.566406 "></path> <path style=" stroke:none;fill-rule:nonzero;fill:rgb(1.960754%,36.083984%,11.376953%);fill-opacity:1;" d="M 135.746094 39.28125 C 140.871094 46.28125 144.996094 53.949219 148.210938 62.066406 C 151.398438 70.183594 153.546875 78.832031 154.007813 87.765625 C 154.242188 92.222656 154.050781 96.757813 153.300781 101.214844 C 152.621094 105.589844 151.667969 109.90625 150.53125 114.15625 C 148.285156 122.667969 145.179688 130.84375 142.046875 138.886719 C 135.535156 154.863281 129.785156 170.878906 125.871094 186.300781 C 123.945313 194.046875 122.972656 201.835938 123.554688 209.746094 C 124.113281 217.664063 126.40625 225.613281 129.71875 233.652344 L 128.707031 234.355469 C 122.265625 228.339844 117.277344 220.363281 114.730469 211.402344 C 112.113281 202.445313 112.078125 192.804688 113.601563 183.800781 C 115.125 174.738281 118.351563 166.316406 122.054688 158.394531 C 123.898438 154.421875 125.824219 150.53125 127.738281 146.671875 L 133.324219 135.113281 C 136.980469 127.433594 140.371094 119.730469 143.226563 111.882813 C 144.636719 107.953125 145.867188 103.976563 146.84375 99.945313 C 147.789063 96.003906 148.269531 91.949219 148.382813 87.84375 C 148.617188 79.625 147.207031 71.300781 144.839844 63.230469 C 142.402344 55.1875 139.070313 47.273438 134.734375 39.992188 "></path> <path style=" stroke:none;fill-rule:nonzero;fill:rgb(1.960754%,36.083984%,11.376953%);fill-opacity:1;" d="M 164.792969 58.367188 C 167.949219 64.464844 170.097656 71.058594 171.847656 77.714844 C 173.535156 84.394531 174.726563 91.21875 175.359375 98.101563 C 176.714844 111.863281 175.988281 125.820313 173.582031 139.441406 C 172.394531 146.261719 170.695313 152.980469 168.707031 159.597656 C 166.609375 166.21875 164.105469 172.617188 161.519531 178.964844 L 153.605469 197.894531 C 150.980469 204.199219 148.390625 210.507813 146.375 217.058594 C 147.449219 210.269531 149.53125 203.683594 151.628906 197.160156 C 153.769531 190.640625 156.109375 184.203125 158.410156 177.773438 C 160.714844 171.347656 163.011719 164.925781 164.917969 158.460938 C 166.835938 151.972656 168.34375 145.371094 169.570313 138.722656 C 172 125.425781 172.925781 111.859375 172.25 98.328125 C 171.890625 91.570313 171.167969 84.8125 169.949219 78.128906 C 168.738281 71.445313 167.152344 64.796875 164.792969 58.367188 "></path> <path style=" stroke:none;fill-rule:nonzero;fill:rgb(1.960754%,36.083984%,11.376953%);fill-opacity:1;" d="M 185.53125 172.601563 C 183.789063 174.707031 181.851563 176.5625 179.84375 178.324219 C 177.847656 180.101563 175.753906 181.742188 173.59375 183.308594 C 171.429688 184.863281 169.203125 186.332031 166.871094 187.652344 C 164.546875 188.96875 162.132813 190.222656 159.5 190.996094 C 163.425781 187.261719 167.488281 183.917969 171.796875 180.808594 C 173.945313 179.261719 176.140625 177.773438 178.425781 176.394531 C 180.695313 175.003906 183.023438 173.6875 185.53125 172.601563 "></path> <path style=" stroke:none;fill-rule:nonzero;fill:rgb(1.960754%,36.083984%,11.376953%);fill-opacity:1;" d="M 195.039063 133.480469 C 194.019531 135.210938 192.769531 136.703125 191.445313 138.101563 C 190.132813 139.515625 188.703125 140.796875 187.203125 141.996094 C 185.699219 143.191406 184.117188 144.296875 182.417969 145.242188 C 180.730469 146.191406 178.941406 147.050781 176.960938 147.460938 C 178.28125 145.953125 179.601563 144.597656 180.996094 143.300781 C 182.371094 141.992188 183.808594 140.765625 185.285156 139.585938 C 186.769531 138.410156 188.296875 137.285156 189.914063 136.257813 C 191.519531 135.21875 193.183594 134.246094 195.039063 133.480469 "></path> <path style=" stroke:none;fill-rule:nonzero;fill:rgb(1.960754%,36.083984%,11.376953%);fill-opacity:1;" d="M 193.007813 102.292969 C 192.667969 103.703125 192.039063 104.898438 191.335938 106.03125 C 190.609375 107.148438 189.777344 108.179688 188.835938 109.109375 C 187.894531 110.039063 186.855469 110.882813 185.695313 111.578125 C 184.523438 112.253906 183.257813 112.839844 181.816406 113.007813 C 182.542969 111.761719 183.3125 110.738281 184.117188 109.738281 C 184.925781 108.75 185.765625 107.804688 186.671875 106.921875 C 187.574219 106.035156 188.523438 105.1875 189.554688 104.398438 C 190.601563 103.621094 191.6875 102.878906 193.007813 102.292969 "></path> <path style=" stroke:none;fill-rule:nonzero;fill:rgb(1.960754%,36.083984%,11.376953%);fill-opacity:1;" d="M 454.949219 240.261719 C 450.703125 246.011719 444.921875 250.542969 438.753906 254.222656 C 432.554688 257.910156 425.746094 260.570313 418.742188 262.316406 C 415.242188 263.207031 411.671875 263.78125 408.09375 264.222656 C 404.476563 264.585938 400.917969 264.695313 397.371094 264.730469 C 390.273438 264.851563 383.265625 264.398438 376.179688 264.742188 C 379.570313 263.597656 383.128906 263.0625 386.640625 262.550781 L 391.929688 261.917969 L 397.203125 261.40625 C 400.707031 261.082031 404.203125 260.773438 407.601563 260.296875 C 411.03125 259.839844 414.417969 259.144531 417.777344 258.359375 C 424.492188 256.761719 431.027344 254.445313 437.285156 251.472656 C 443.515625 248.449219 449.535156 244.851563 454.949219 240.261719 "></path> <path style=" stroke:none;fill-rule:nonzero;fill:rgb(1.960754%,36.083984%,11.376953%);fill-opacity:1;" d="M 451.820313 266.0625 C 450.308594 266.089844 448.921875 265.8125 447.570313 265.464844 C 446.222656 265.097656 444.929688 264.613281 443.679688 264.03125 C 442.433594 263.441406 441.230469 262.753906 440.089844 261.9375 C 438.96875 261.101563 437.847656 260.183594 436.996094 258.914063 C 438.496094 259.066406 439.839844 259.371094 441.164063 259.765625 C 442.484375 260.164063 443.757813 260.660156 444.992188 261.242188 C 446.226563 261.824219 447.425781 262.496094 448.574219 263.269531 C 449.714844 264.0625 450.832031 264.917969 451.820313 266.0625 "></path> <path style=" stroke:none;fill-rule:nonzero;fill:rgb(1.960754%,36.083984%,11.376953%);fill-opacity:1;" d="M 430.03125 271.472656 C 428.863281 271.621094 427.835938 271.464844 426.839844 271.238281 C 425.851563 270.988281 424.921875 270.621094 424.039063 270.152344 C 423.15625 269.683594 422.328125 269.101563 421.574219 268.398438 C 420.839844 267.679688 420.125 266.867188 419.710938 265.753906 C 420.878906 265.816406 421.847656 266.027344 422.804688 266.308594 C 423.746094 266.601563 424.640625 266.976563 425.496094 267.4375 C 426.351563 267.898438 427.164063 268.441406 427.933594 269.085938 C 428.691406 269.746094 429.425781 270.46875 430.03125 271.472656 "></path> <path style=" stroke:none;fill-rule:nonzero;fill:rgb(1.960754%,36.083984%,11.376953%);fill-opacity:1;" d="M 407.042969 272.621094 C 406.15625 272.894531 405.398438 272.847656 404.683594 272.726563 C 403.972656 272.585938 403.320313 272.324219 402.730469 271.953125 C 402.140625 271.582031 401.609375 271.105469 401.171875 270.503906 C 400.753906 269.890625 400.386719 269.179688 400.347656 268.246094 C 401.273438 268.242188 401.953125 268.367188 402.605469 268.550781 C 403.246094 268.742188 403.835938 269 404.371094 269.347656 C 404.910156 269.6875 405.414063 270.105469 405.867188 270.621094 C 406.316406 271.15625 406.734375 271.746094 407.042969 272.621094 "></path> </g> </svg> 