<svg width="36" height="36" viewBox="0 0 36 36" fill="none" xmlns="http://www.w3.org/2000/svg">
<path d="M20.7109 28.5046V21.2742H14.4985V28.5046H9.74966L15.5176 34.2117C16.6777 35.3595 18.5534 35.3595 19.7135 34.2117L25.4814 28.5046H20.7109ZM6.63801 25.4258V9.87087L0.87007 15.5779C-0.290023 16.7258 -0.290023 18.5816 0.87007 19.7295L6.63801 25.4258ZM14.4985 6.8028V14.0332H20.7109V6.8028H25.4597L19.6918 1.09575C18.5317 -0.0520984 16.656 -0.0520984 15.4959 1.09575L9.72798 6.8028H14.4985ZM34.3285 15.5779L28.5605 9.87087V25.4258L34.3285 19.7295C35.4886 18.5816 35.4886 16.7258 34.3285 15.5779Z" fill="white"/>
</svg>
