<svg width="285" height="49" viewBox="0 0 285 49" fill="none" xmlns="http://www.w3.org/2000/svg">
<g filter="url(#filter0_d)">
<path d="M27.4584 34.0028V27.2977H21.6972V34.0028H17.2934L22.6424 39.2953C23.7182 40.3597 25.4576 40.3597 26.5334 39.2953L31.8823 34.0028H27.4584ZM14.4079 31.1477V16.7228L9.05895 22.0153C7.98314 23.0797 7.98314 24.8008 9.05895 25.8652L14.4079 31.1477ZM21.6972 13.8776V20.5827H27.4584V13.8776H31.8622L26.5133 8.58521C25.4375 7.52075 23.6981 7.52075 22.6222 8.58521L17.2733 13.8776H21.6972ZM40.0866 22.0153L34.7377 16.7228V31.1477L40.0866 25.8652C41.1624 24.8008 41.1624 23.0797 40.0866 22.0153Z" fill="#DA292B"/>
<path d="M65.8458 21.2195H58.5866V16.1957C58.5866 14.8726 57.6013 13.8976 56.264 13.8976H54.0923H52.7852H49.8795V19.21H52.7852V34.0029H58.5966V26.6811H65.8559V34.0029H71.6673V13.8877H65.8559V21.2195H65.8458Z" fill="#DA292B"/>
<path d="M85.0094 13.5991C78.8863 13.5991 74.4121 17.9664 74.4121 23.9452C74.4121 29.9241 78.8863 34.2913 85.0094 34.2913C91.1324 34.2913 95.6066 29.9241 95.6066 23.9452C95.6066 17.9664 91.1324 13.5991 85.0094 13.5991ZM85.0094 28.6806C82.2545 28.6806 80.2235 26.671 80.2235 23.9452C80.2235 21.2194 82.2545 19.2099 85.0094 19.2099C87.7642 19.2099 89.7952 21.2194 89.7952 23.9452C89.7952 26.671 87.7642 28.6806 85.0094 28.6806Z" fill="#DA292B"/>
<path d="M113.574 23.3584C115.011 22.4929 115.906 21.0106 115.906 19.2299C115.906 16.126 113.875 13.8877 109.833 13.8877H98.3615V33.993H109.833C114.076 33.993 116.54 31.5557 116.54 28.1932C116.54 26.0444 115.383 24.2935 113.574 23.3584ZM103.761 18.3743H108.084C109.451 18.3743 110.236 19.0309 110.236 20.1551C110.236 21.2792 109.451 21.9358 108.084 21.9358H103.761V18.3743ZM108.496 29.576H103.761V25.8454H108.496C109.944 25.8454 110.759 26.5318 110.759 27.7157C110.759 28.8896 109.944 29.576 108.496 29.576Z" fill="#DA292B"/>
<path d="M125.418 13.8877L117.404 33.993H123.588L124.875 30.2923H133.039L134.326 33.993H140.63L132.617 13.8877H125.418ZM126.453 25.7857L128.746 19.21H129.188L131.48 25.7857H126.453Z" fill="#DA292B"/>
<path d="M168.39 13.8877H166.852H164.911H157.652H154.404H153.158H151.851H148.945V19.2H151.851V33.993H157.662V19.2H164.921V33.993H170.733V16.1857C170.712 14.7233 169.868 13.8877 168.39 13.8877Z" fill="#DA292B"/>
<path d="M184.065 13.5991C177.942 13.5991 173.467 17.9664 173.467 23.9452C173.467 29.9241 177.942 34.2913 184.065 34.2913C190.188 34.2913 194.662 29.9241 194.662 23.9452C194.662 17.9664 190.198 13.5991 184.065 13.5991ZM184.065 28.6806C181.31 28.6806 179.279 26.671 179.279 23.9452C179.279 21.2194 181.31 19.2099 184.065 19.2099C186.82 19.2099 188.85 21.2194 188.85 23.9452C188.85 26.671 186.83 28.6806 184.065 28.6806Z" fill="#DA292B"/>
<path d="M220.069 28.6806H214.549V13.8877H208.748V28.6806H203.228V13.8877H197.427V34.0029H200.152H203.228H220.069H223.669H225.881V13.8877H220.069V28.6806Z" fill="#DA292B"/>
<path d="M248.372 19.2V13.8877H228.635V19.2H235.603V34.0029H241.404V19.2H248.372Z" fill="#DA292B"/>
<path d="M263.564 34.0027H269.868L261.855 13.8975H254.656L246.643 34.0027H252.826L254.113 30.302H262.277L263.564 34.0027ZM255.682 25.7855L257.974 19.2098H258.416L260.709 25.7855H255.682Z" fill="#DA292B"/>
</g>
<defs>
<filter id="filter0_d" x="-4" y="0" width="293" height="56" filterUnits="userSpaceOnUse" color-interpolation-filters="sRGB">
<feFlood flood-opacity="0" result="BackgroundImageFix"/>
<feColorMatrix in="SourceAlpha" type="matrix" values="0 0 0 0 0 0 0 0 0 0 0 0 0 0 0 0 0 0 127 0"/>
<feOffset dy="4"/>
<feGaussianBlur stdDeviation="2"/>
<feColorMatrix type="matrix" values="0 0 0 0 0 0 0 0 0 0 0 0 0 0 0 0 0 0 0.25 0"/>
<feBlend mode="normal" in2="BackgroundImageFix" result="effect1_dropShadow"/>
<feBlend mode="normal" in="SourceGraphic" in2="effect1_dropShadow" result="shape"/>
</filter>
</defs>
</svg>
