<svg width="322" height="62" viewBox="0 0 322 62" fill="none" xmlns="http://www.w3.org/2000/svg">
<g clip-path="url(#clip0)">
<path d="M37.484 27.4085H28.0597V20.9194C28.0597 19.2104 26.7806 17.9511 25.0445 17.9511H22.2251H20.5282H16.7559V24.8128H20.5282V43.9204H28.0728V34.463H37.4971V43.9204H45.0417V17.9382H37.4971V27.4085H37.484Z" fill="white"/>
<path d="M62.3631 17.5656C54.4138 17.5656 48.6052 23.2066 48.6052 30.9293C48.6052 38.652 54.4138 44.293 62.3631 44.293C70.3123 44.293 76.1209 38.652 76.1209 30.9293C76.1209 23.2066 70.3123 17.5656 62.3631 17.5656ZM62.3631 37.0458C58.7866 37.0458 56.1498 34.4501 56.1498 30.9293C56.1498 27.4085 58.7866 24.8128 62.3631 24.8128C65.9396 24.8128 68.5763 27.4085 68.5763 30.9293C68.5763 34.4501 65.9396 37.0458 62.3631 37.0458Z" fill="white"/>
<path d="M99.4466 30.1712C101.313 29.0533 102.475 27.1386 102.475 24.8385C102.475 20.8294 99.8381 17.9382 94.5908 17.9382H79.6974V43.9076H94.5908C100.099 43.9076 103.297 40.7594 103.297 36.4162C103.297 33.6406 101.796 31.3791 99.4466 30.1712ZM86.7068 23.7335H92.3196C94.0948 23.7335 95.113 24.5815 95.113 26.0336C95.113 27.4856 94.0948 28.3337 92.3196 28.3337H86.7068V23.7335ZM92.8548 38.2023H86.7068V33.3836H92.8548C94.7344 33.3836 95.7917 34.2703 95.7917 35.7994C95.7917 37.3156 94.7344 38.2023 92.8548 38.2023Z" fill="white"/>
<path d="M114.823 17.9382L104.42 43.9076H112.447L114.118 39.1275H124.717L126.388 43.9076H134.572L124.169 17.9382H114.823ZM116.167 33.3065L119.143 24.8128H119.718L122.694 33.3065H116.167Z" fill="white"/>
<path d="M170.611 17.9382H168.614H166.095H156.671H152.455H150.836H149.139H145.367V24.8H149.139V43.9076H156.684V24.8H166.108V43.9076H173.653V20.9065C173.627 19.0176 172.53 17.9382 170.611 17.9382Z" fill="white"/>
<path d="M190.961 17.5656C183.012 17.5656 177.203 23.2066 177.203 30.9293C177.203 38.652 183.012 44.293 190.961 44.293C198.91 44.293 204.719 38.652 204.719 30.9293C204.719 23.2066 198.923 17.5656 190.961 17.5656ZM190.961 37.0458C187.384 37.0458 184.748 34.4501 184.748 30.9293C184.748 27.4085 187.384 24.8128 190.961 24.8128C194.538 24.8128 197.174 27.4085 197.174 30.9293C197.174 34.4501 194.551 37.0458 190.961 37.0458Z" fill="white"/>
<path d="M237.704 37.0458H230.538V17.9382H223.006V37.0458H215.84V17.9382H208.308V43.9204H211.846H215.84H237.704H242.377H245.248V17.9382H237.704V37.0458Z" fill="white"/>
<path d="M274.448 24.8V17.9382H248.825V24.8H257.871V43.9204H265.402V24.8H274.448Z" fill="white"/>
<path d="M294.171 43.9204H302.355L291.952 17.951H282.606L272.203 43.9204H280.23L281.901 39.1403H292.5L294.171 43.9204ZM283.938 33.3065L286.914 24.8128H287.488L290.464 33.3065H283.938Z" fill="white"/>
</g>
<defs>
<clipPath id="clip0">
<rect width="322" height="62" fill="white"/>
</clipPath>
</defs>
</svg>
