<svg width="331" height="120" viewBox="0 0 331 120" fill="none" xmlns="http://www.w3.org/2000/svg">
<path d="M22.6271 26.5198C20.4731 24.2413 -0.86758 28.4232 0.0273623 32.8293C2.79915 46.4754 26.0384 102.234 29.2365 111.523C31.795 118.954 36.8408 120.344 38.6175 119.936C43.7345 118.758 47.5722 118.043 49.2778 117.482C51.4099 116.781 53.5419 116.255 53.5419 110.121V67.181C57.2375 77.2879 65.055 98.7286 66.7606 103.636C68.4663 108.543 70.8115 109.42 73.7964 109.42C76.7813 109.42 82.4525 108.158 85.5227 107.317C89.3604 106.265 90 102.935 90 99.9554C90 96.9759 85.9491 20.3855 85.9491 18.2823C85.9491 16.1792 84.6699 12.6739 82.1114 13.0244C79.5529 13.3749 68.0398 14.7771 66.9738 17.5813C66.121 19.8247 67.3292 43.1698 68.0398 54.562C63.9179 43.2283 55.2049 20.3855 53.3287 19.6845C50.9834 18.8081 36.6987 20.9113 34.3534 24.2413C32.4772 26.9053 33.5717 51.4073 34.3534 63.3252C31.0843 51.4657 23.2668 27.1964 22.6271 26.5198Z" fill="white"/>
<path d="M264.801 15.2423C266.668 12.8073 288.351 15.2378 287.988 19.6829C286.864 33.4503 270.448 90.6641 268.381 100.141C266.728 107.723 261.885 109.51 260.072 109.247C254.853 108.491 250.958 108.09 249.198 107.671C246.998 107.147 244.819 106.797 244.087 100.709L238.964 58.0908C236.501 68.4198 231.299 90.33 230.191 95.3381C229.084 100.346 226.86 101.405 223.897 101.646C220.934 101.886 215.154 101.091 212.006 100.503C208.071 99.769 207.039 96.5154 206.684 93.5583C206.328 90.6011 201.212 14.258 200.961 12.1706C200.71 10.0832 201.562 6.50103 204.144 6.64271C206.725 6.78439 218.321 7.248 219.714 9.94529C220.828 12.1031 222.414 35.3708 223.067 46.7349C225.807 35.1538 231.731 11.7799 233.51 10.9329C235.733 9.87407 250.164 10.8101 252.889 13.9261C255.069 16.4189 256.906 40.8255 257.552 52.7172C259.382 40.683 264.247 15.9654 264.801 15.2423Z" fill="white"/>
<path fill-rule="evenodd" clip-rule="evenodd" d="M146.545 106.716C171.681 106.716 192.057 84.8615 192.057 57.9026C192.057 30.9438 171.681 9.08936 146.545 9.08936C121.41 9.08936 101.034 30.9438 101.034 57.9026C101.034 84.8615 121.41 106.716 146.545 106.716ZM145.729 80.2125C156.212 80.2125 164.709 70.224 164.709 57.9026C164.709 45.5813 156.212 35.5928 145.729 35.5928C135.247 35.5928 126.749 45.5813 126.749 57.9026C126.749 70.224 135.247 80.2125 145.729 80.2125Z" fill="white"/>
<path fill-rule="evenodd" clip-rule="evenodd" d="M317.22 18.8098C309.895 17.6848 302.668 22.7798 301.288 30.0424L292.517 76.195C291.437 81.8788 295.123 87.079 300.856 87.9594C306.479 88.8229 312.114 85.2245 313.723 79.7418L327.049 34.3511C329.185 27.0754 324.682 19.9557 317.22 18.8098ZM298.692 92.2504C292.728 91.3346 286.809 95.3617 285.472 101.245C284.134 107.129 287.885 112.641 293.848 113.557L296.084 113.9C302.048 114.816 307.966 110.789 309.304 104.905C310.641 99.0215 306.891 93.5095 300.927 92.5937L298.692 92.2504Z" fill="white"/>
</svg>
