<svg width="28" height="27" fill="none" xmlns="http://www.w3.org/2000/svg"><g clip-path="url(#clip0)"><path d="M23.048 3.955A13.412 13.412 0 0013.502 0a13.412 13.412 0 00-9.546 3.955A13.411 13.411 0 00.002 13.5c0 2.714.8 5.322 2.314 7.558L.038 26.373a.458.458 0 00.095.495.459.459 0 00.512.089l5.082-2.42A13.39 13.39 0 0013.502 27c3.606 0 6.996-1.404 9.546-3.953a13.412 13.412 0 003.954-9.546 13.41 13.41 0 00-3.954-9.546z" fill="#00C75E"/><path d="M13.502 24.75c6.213 0 11.25-5.036 11.25-11.249 0-6.213-5.037-11.25-11.25-11.25s-11.25 5.037-11.25 11.25 5.037 11.25 11.25 11.25z" fill="#F8F8F8"/><path d="M13.502 23.4c5.467 0 9.9-4.432 9.9-9.9 0-5.467-4.433-9.9-9.9-9.9-5.468 0-9.9 4.433-9.9 9.9 0 5.468 4.432 9.9 9.9 9.9z" fill="#fff"/><path d="M20.694 18.07l-.404-2.192a.45.45 0 00-.355-.36l-3.182-.636a.45.45 0 00-.406.123l-1.293 1.293c-2.178-.976-3.387-2.188-4.45-4.46l1.288-1.288a.45.45 0 00.123-.406l-.636-3.182a.45.45 0 00-.36-.355l-2.192-.404a.45.45 0 00-.18.003 3.14 3.14 0 00-1.528.844c-.728.728-1.006 1.79-.804 3.071.338 2.152 1.392 5.146 3.337 7.099l.027.026c1.951 1.944 4.945 2.998 7.097 3.336.271.043.532.064.782.064.933 0 1.715-.294 2.29-.868.42-.42.711-.948.843-1.527a.449.449 0 00.003-.181z" fill="#00C75E"/><path d="M18.458 19.85c-.25 0-.511-.02-.782-.063-2.152-.339-5.146-1.393-7.097-3.337l-.027-.026c-1.945-1.952-2.999-4.947-3.337-7.098-.175-1.114.012-2.062.542-2.769a3.15 3.15 0 00-.638.492c-.728.728-1.006 1.79-.804 3.071.338 2.152 1.392 5.146 3.337 7.099l.027.026c1.951 1.944 4.945 2.998 7.097 3.337.271.042.532.063.782.063.933 0 1.715-.294 2.29-.868.103-.104.2-.215.287-.331-.477.268-1.042.404-1.677.404z" fill="#00B950"/></g><defs><clipPath id="clip0"><path fill="#fff" transform="translate(.002)" d="M0 0h27v27H0z"/></clipPath></defs></svg>