<svg width="28" height="27" fill="none" xmlns="http://www.w3.org/2000/svg"><g clip-path="url(#clip0)"><path d="M16.203 0h-5.401C5.59 0 1.35 4.24 1.35 9.451v4.051c0 3.659 2.11 6.98 5.4 8.54v4.512c0 .391.49.596.769.318l3.918-3.919h4.764c5.212 0 9.452-4.24 9.452-9.451v-4.05C25.654 4.24 21.414 0 16.203 0z" fill="#785AFA"/><path d="M8.101 22.043a9.455 9.455 0 01-5.4-8.541v-4.05C2.7 4.24 6.94 0 12.152 0h-1.35C5.59 0 1.35 4.24 1.35 9.451v4.051c0 3.659 2.11 6.98 5.4 8.54v4.512c0 .391.49.596.769.318l.581-.582v-4.247z" fill="#5F41E1"/><path d="M20.297 16.775l-.405-2.192a.45.45 0 00-.354-.36l-3.183-.636a.45.45 0 00-.406.123l-1.293 1.293c-2.178-.976-3.387-2.188-4.451-4.46l1.289-1.288a.45.45 0 00.123-.407l-.637-3.182a.45.45 0 00-.36-.355l-2.19-.404a.451.451 0 00-.182.004 3.14 3.14 0 00-1.527.843c-.728.728-1.006 1.79-.804 3.072.338 2.151 1.392 5.146 3.338 7.099l.026.026c1.952 1.944 4.946 2.998 7.098 3.337.271.043.532.064.783.064.933 0 1.715-.294 2.289-.868.42-.42.712-.949.843-1.528a.455.455 0 00.004-.181z" fill="#fff"/><path d="M11.054 9.695l.44-.44-.44.44zm4.895 4.015l-.444.444.444-.444zm2.061 4.793c-.25 0-.512-.021-.783-.064-2.152-.338-5.147-1.393-7.098-3.336l-.027-.027c-1.945-1.953-3-4.947-3.338-7.1-.163-1.035-.012-1.927.436-2.615a3.151 3.151 0 00-.48.393c-.728.728-1.006 1.79-.804 3.071.338 2.152 1.392 5.147 3.338 7.1l.026.026c1.952 1.944 4.946 2.998 7.098 3.337.271.043.532.064.783.064.933 0 1.715-.294 2.289-.868.147-.148.278-.309.393-.48-.509.33-1.128.5-1.834.5z" fill="#E5E5E5"/><path d="M14.402 7.65a.45.45 0 000 .9c.992 0 1.8.809 1.8 1.801 0 .245.205.45.45.45.245 0 .45-.205.45-.45 0-1.489-1.211-2.7-2.7-2.7z" fill="#fff"/><path d="M14.402 5.851c-.167 0-.335.01-.5.027a.45.45 0 00.1.895 3.604 3.604 0 013.98 3.98.454.454 0 00.396.496.454.454 0 00.497-.398 4.506 4.506 0 00-4.473-5z" fill="#fff"/><path d="M14.402 4.05c-.16 0-.323.007-.484.019a.45.45 0 00.068.897 5.407 5.407 0 015.672 6.632.454.454 0 00.32.538.454.454 0 00.556-.331 6.308 6.308 0 00-6.132-7.754z" fill="#fff"/></g><defs><clipPath id="clip0"><path fill="#fff" transform="translate(.002)" d="M0 0h27v27H0z"/></clipPath></defs></svg>