<svg width="28" height="27" fill="none" xmlns="http://www.w3.org/2000/svg"><g clip-path="url(#clip0)"><path d="M13.502 27c7.456 0 13.5-6.044 13.5-13.5S20.958 0 13.502 0 .002 6.044.002 13.5 6.046 27 13.502 27z" fill="#32B4FF"/><path d="M1.802 13.5c0-7.154 5.564-13.006 12.6-13.47-.298-.02-.597-.03-.9-.03C6.046 0 .002 6.044.002 13.5S6.046 27 13.502 27c.303 0 .602-.011.9-.03-7.036-.464-12.6-6.317-12.6-13.47z" fill="#199BDF"/><path d="M20.055 5.75a.45.45 0 00-.443-.035L5.105 12.468a.71.71 0 00.016 1.293l13.374 5.825a.716.716 0 001.001-.604l.755-12.832a.45.45 0 00-.197-.4z" fill="#E5E5E5"/><path d="M9.053 15.473l.904 6.042 10.04-15.797-10.944 9.755z" fill="#CCC"/><path d="M19.612 5.715L5.105 12.468a.716.716 0 00-.41.651.716.716 0 00.426.642l3.931 1.712 10.945-9.755a.45.45 0 00-.385-.003z" fill="#fff"/><path d="M11.151 16.387l-1.194 5.128 10.04-15.797-8.846 10.669z" fill="#E5E5E5"/><path d="M20.055 5.75a.447.447 0 00-.057-.032L11.15 16.387l7.345 3.198a.716.716 0 001-.603l.756-12.833a.45.45 0 00-.197-.398z" fill="#fff"/></g><defs><clipPath id="clip0"><path fill="#fff" transform="translate(.002)" d="M0 0h27v27H0z"/></clipPath></defs></svg>