<svg width="15" height="16" viewBox="0 0 15 16" fill="none" xmlns="http://www.w3.org/2000/svg">
<g clip-path="url(#clip0)">
<path d="M12.8321 6.38979C12.8501 4.27498 11.0489 2.33625 8.81695 2.06816C8.77255 2.0629 8.7242 2.05488 8.673 2.0464C8.56251 2.0281 8.44824 2.00928 8.33294 2.00928C7.87549 2.00928 7.75321 2.33061 7.72102 2.52226C7.68971 2.70859 7.71957 2.86507 7.80962 2.98754C7.96111 3.19353 8.22766 3.2301 8.44176 3.2594C8.50451 3.26807 8.56372 3.27613 8.61328 3.28726C10.6186 3.73535 11.2939 4.43984 11.6239 6.42813C11.6319 6.47672 11.6356 6.53657 11.6394 6.60007C11.6538 6.83774 11.6838 7.33223 12.2154 7.33223H12.2155C12.2597 7.33223 12.3073 7.32841 12.3568 7.32086C12.8519 7.24563 12.8363 6.79362 12.8289 6.57645C12.8268 6.51529 12.8248 6.45743 12.83 6.41895C12.8314 6.40926 12.8321 6.39953 12.8321 6.38979Z" fill="white"/>
<path d="M8.20307 1.29186C8.26247 1.29615 8.31869 1.30025 8.36551 1.30742C11.6585 1.81383 13.1729 3.37402 13.5925 6.69275C13.5997 6.74916 13.6008 6.81796 13.602 6.89082C13.6061 7.15011 13.6148 7.6895 14.194 7.70068L14.212 7.70087C14.3937 7.70087 14.5382 7.64608 14.6416 7.53792C14.8219 7.3493 14.8093 7.0691 14.7992 6.84391C14.7967 6.78866 14.7943 6.73663 14.7949 6.69107C14.8368 3.29688 11.8988 0.219035 8.50759 0.104578C8.49352 0.104112 8.48011 0.104858 8.46655 0.106768C8.45989 0.107746 8.44754 0.108957 8.42639 0.108957C8.39257 0.108957 8.35097 0.106022 8.30686 0.103041C8.25352 0.0994074 8.19306 0.0952148 8.13175 0.0952148C7.5917 0.0952148 7.48903 0.479066 7.4759 0.707886C7.44562 1.23671 7.9572 1.27393 8.20307 1.29186Z" fill="white"/>
<path d="M13.4337 10.9821C13.3636 10.9286 13.2912 10.8732 13.2235 10.8186C12.8639 10.5293 12.4814 10.2626 12.1115 10.0047C12.0347 9.95121 11.958 9.89768 11.8815 9.84402C11.4076 9.51118 10.9816 9.34944 10.5791 9.34944C10.037 9.34944 9.5644 9.64897 9.1743 10.2396C9.00148 10.5015 8.79181 10.6288 8.5334 10.6288C8.38061 10.6288 8.20699 10.5852 8.01744 10.4991C6.48795 9.80554 5.3958 8.74212 4.77125 7.33841C4.46934 6.65996 4.56721 6.21649 5.09854 5.85555C5.40027 5.65077 5.96188 5.26953 5.9221 4.53947C5.87705 3.71041 4.0478 1.21589 3.27707 0.932572C2.95075 0.812572 2.60789 0.811453 2.25618 0.929776C1.37016 1.22763 0.734337 1.75072 0.417287 2.4424C0.110905 3.11074 0.124741 3.89549 0.457303 4.71183C1.4187 7.07204 2.77038 9.12984 4.47493 10.828C6.14337 12.4903 8.19404 13.8519 10.5699 14.8749C10.7841 14.9671 11.0087 15.0173 11.1727 15.054C11.2286 15.0666 11.2769 15.0773 11.312 15.0869C11.3314 15.0922 11.3513 15.095 11.3713 15.0952L11.3901 15.0953C11.3901 15.0953 11.3901 15.0953 11.3902 15.0953C12.5076 15.0953 13.8494 14.0742 14.2614 12.9101C14.6225 11.8907 13.9633 11.3869 13.4337 10.9821Z" fill="white"/>
<path d="M8.6968 3.9882C8.50548 3.99305 8.10733 4.00292 7.96762 4.40843C7.90226 4.59794 7.91009 4.76247 7.99091 4.89747C8.10952 5.09555 8.33675 5.15624 8.54344 5.18955C9.29303 5.30983 9.67799 5.72433 9.755 6.4939C9.79077 6.85274 10.0324 7.10331 10.3427 7.10331H10.3427C10.3656 7.10331 10.3891 7.10196 10.4124 7.09912C10.7855 7.05472 10.9664 6.78058 10.9501 6.28437C10.956 5.76649 10.685 5.17856 10.2241 4.71025C9.76152 4.2405 9.20396 3.97595 8.6968 3.9882Z" fill="white"/>
</g>
<defs>
<clipPath id="clip0">
<rect width="15" height="15" fill="white" transform="translate(0 0.0952148)"/>
</clipPath>
</defs>
</svg>
