<svg width="16" height="16" viewBox="0 0 16 16" fill="none" xmlns="http://www.w3.org/2000/svg">
<path d="M8 16C12.4183 16 16 12.4183 16 8C16 3.58172 12.4183 0 8 0C3.58172 0 0 3.58172 0 8C0 12.4183 3.58172 16 8 16Z" fill="#4D76A1"/>
<path fill-rule="evenodd" clip-rule="evenodd" d="M7.69809 11.5087H8.326C8.326 11.5087 8.51566 11.4878 8.61249 11.3834C8.70162 11.2876 8.69877 11.1076 8.69877 11.1076C8.69877 11.1076 8.68651 10.2651 9.07754 10.141C9.46301 10.0188 9.958 10.9553 10.4827 11.3154C10.8794 11.5879 11.1809 11.5282 11.1809 11.5282L12.5837 11.5087C12.5837 11.5087 13.3175 11.4634 12.9696 10.8865C12.9411 10.8393 12.7669 10.4596 11.9266 9.67957C11.0469 8.86314 11.1647 8.99519 12.2243 7.58295C12.8696 6.72288 13.1276 6.1978 13.047 5.97291C12.9702 5.75871 12.4956 5.81533 12.4956 5.81533L10.916 5.82517C10.916 5.82517 10.799 5.8092 10.7121 5.86111C10.6273 5.91202 10.5726 6.03067 10.5726 6.03067C10.5726 6.03067 10.3226 6.69622 9.98923 7.26223C9.28589 8.45656 9.00467 8.5196 8.88972 8.44544C8.62233 8.2726 8.68908 7.75108 8.68908 7.38059C8.68908 6.22319 8.86462 5.7406 8.34724 5.61568C8.17555 5.57418 8.04919 5.5468 7.61011 5.54238C7.04652 5.53653 6.5695 5.54409 6.2994 5.67643C6.11971 5.76442 5.9811 5.9605 6.06552 5.97177C6.16991 5.98574 6.40636 6.03551 6.53171 6.20622C6.69357 6.4264 6.68786 6.92097 6.68786 6.92097C6.68786 6.92097 6.78084 8.28344 6.47067 8.45271C6.25776 8.5688 5.9657 8.33178 5.33865 7.24825C5.01736 6.69322 4.77478 6.07972 4.77478 6.07972C4.77478 6.07972 4.72801 5.96507 4.64458 5.90374C4.54333 5.82945 4.40186 5.80577 4.40186 5.80577L2.90092 5.81561C2.90092 5.81561 2.6756 5.82189 2.59289 5.91986C2.5193 6.00699 2.58704 6.18725 2.58704 6.18725C2.58704 6.18725 3.76213 8.93644 5.09265 10.3219C6.31266 11.5921 7.69809 11.5087 7.69809 11.5087Z" fill="white"/>
</svg>
