<svg data-name="Layer 1" xmlns="http://www.w3.org/2000/svg" viewBox="0 0 185.33 23.91"><path d="M141.94 12.86l-1.81 10.69h-6.72c0-.36 3.78-20.68 4-21.23h7.5l3.3 11.71.17-.31c.49-.88 1-1.78 1.46-2.65 1.62-2.77 3.27-5.52 4.88-8.29a.91.91 0 01.93-.5h7.01l-2.19 21.26h-6.81l1.35-10.78c-1.07 1.86-2.06 3.65-3.06 5.43l-3 5.35h-4l-2.92-10.68zM79.38 23.55l-2.9-5.28H73.8l-.77 5.28h-6.81c.21-1.79.51-3.55.76-5.32s.52-3.55.78-5.32l.78-5.27.8-5.35h9.19a16.66 16.66 0 014.63.55 10.22 10.22 0 011.07.38 5.43 5.43 0 013.51 4.35 10.2 10.2 0 01-.56 5.39 7.69 7.69 0 01-3.52 4l-.38.22.26.46 3 5.1a.72.72 0 01.09.78zm-4.81-10.54c1.34 0 2.6.06 3.85 0a2.64 2.64 0 002.45-1.74 3.92 3.92 0 00.22-1.64 1.69 1.69 0 00-.91-1.44 2.8 2.8 0 00-1.32-.39c-1.13 0-2.25 0-3.38-.05a.58.58 0 00-.16.06zM40.52 3.96l-2.5 4.74-.52-.11a26.9 26.9 0 00-4.15-.76 9 9 0 00-2.87.13 5.09 5.09 0 00-3.31 2.34 7.23 7.23 0 00-1 5 3.07 3.07 0 002.93 2.66 12.94 12.94 0 004.49-.36c1-.24 2-.57 3-.86l.58-.18 1.74 4.94c-.12.07-.23.14-.34.19a22.57 22.57 0 01-6.82 2 16.5 16.5 0 01-6.61-.35 7.61 7.61 0 01-5.81-6.61c-.09-.61-.09-1.23-.12-1.85v-.39c-.16.14-.25.22-.34.31a11.31 11.31 0 01-4.39 2.8 2.09 2.09 0 01-2.36-.52 4.68 4.68 0 01-1-1.77 10.82 10.82 0 01-.61-3.46 15.31 15.31 0 011.15-6.4 5.6 5.6 0 01.65-1.11 2 2 0 012.1-.79 7.19 7.19 0 012.81 1.17 7.36 7.36 0 013 3.85l.08.22a1 1 0 00.07.12c.07-.12.14-.22.2-.33a11.4 11.4 0 019-6.4A18.08 18.08 0 0140.3 3.84zm-22.47 6.45a4.63 4.63 0 00-.34-2 4 4 0 00-2.45-2.23.72.72 0 00-1 .32c-.05.08-.1.16-.15.25-.36.62-.73 1.24-1.08 1.87a6.46 6.46 0 00-.52 1.08 1.55 1.55 0 00-.07.88c.33 1.08.69 2.15 1.1 3.21.22.57.68.72 1.3.56a4.61 4.61 0 002.24-1.39 3.47 3.47 0 00.97-2.55zm46.37 13.15h-7.13l-.63-3.12h-8.24a.59.59 0 00-.65.38c-.36.78-.76 1.55-1.15 2.32l-.24.46H39.2v-.05L50.03 2.68c.07-.13.14-.25.21-.37h9.32zM54.21 7.77l-3.45 7.06h4.8zm72.55-5.45l4.9 21.23h-7.13l-.63-3.11h-8.22a.66.66 0 00-.71.44c-.37.81-.79 1.6-1.18 2.41a.5.5 0 01-.52.34h-6.98c.09-.19.17-.36.25-.52l9-17.25c.55-1 1.11-2.09 1.64-3.15a.54.54 0 01.57-.35h8.61zm-4 12.51l-1.36-7.07-3.45 7.07zm48.7 4.22l-.67 4.51h-6.75c-.06-.33.88-6.88 1.48-10.63.56-3.52 1-7.05 1.57-10.61h9.33a13.77 13.77 0 014.17.56 9.52 9.52 0 011.64.68 5.56 5.56 0 012.94 4.2 11 11 0 01-.51 5.6 8.16 8.16 0 01-5.85 5.18 12.74 12.74 0 01-3.24.49h-3.54zm.76-5.27a24.54 24.54 0 003.73-.12 3.07 3.07 0 002.54-2.21 5 5 0 00.21-1.17 2 2 0 00-1.81-2.32 2.4 2.4 0 00-.49-.08h-3.08a1.17 1.17 0 00-.23.05zm-75.86 3.87h9.62l-.84 5.9H88.66l3.17-21.24h6.83c-.35 2.56-.75 5.09-1.11 7.62s-.79 5.09-1.19 7.72zM.91 19.27L.39 16.2l8.14-1.24.53 3c-.4.21-7.56 1.35-8.15 1.31zm1-19.31l8 2-.86 3.13-8-2zM0 11.48V8.37h8.2v3.1c-.38.12-7.63.13-8.2.01z"/></svg>