<svg width="205" height="71" viewBox="0 0 205 71" fill="none" xmlns="http://www.w3.org/2000/svg">
<path d="M60.598 37.8999H71.5284V40.0129H58.3477V17.6035H71.3677V19.7164H60.598V27.6557H70.5639V29.7686H60.598V37.8999Z" fill="#41FFDB"/>
<path d="M82.4679 40.3983C80.4104 40.3983 78.6423 39.9181 77.1635 38.9577C75.7063 37.9761 74.688 36.6315 74.1094 34.924L76.0383 33.8036C76.4456 35.1909 77.1956 36.2794 78.2886 37.069C79.3817 37.8372 80.7857 38.2215 82.5001 38.2215C84.1718 38.2215 85.4685 37.8585 86.39 37.133C87.3331 36.3859 87.8045 35.4043 87.8045 34.1878C87.8045 33.014 87.376 32.1281 86.5186 31.5306C85.6614 30.9331 84.2469 30.3141 82.2751 29.6739C79.939 28.9055 78.3959 28.2866 77.6457 27.8171C75.9313 26.7927 75.0738 25.3094 75.0738 23.3672C75.0738 21.4677 75.7384 19.9738 77.067 18.8853C78.3959 17.7756 80.0354 17.2207 81.9857 17.2207C83.7433 17.2207 85.2648 17.6795 86.5508 18.5972C87.8367 19.4937 88.7906 20.6461 89.412 22.0547L87.5152 23.1111C86.4865 20.6354 84.6434 19.3976 81.9857 19.3976C80.5928 19.3976 79.4676 19.739 78.6101 20.422C77.7529 21.1049 77.3242 22.0547 77.3242 23.2712C77.3242 24.3809 77.71 25.2133 78.4815 25.7682C79.2531 26.3231 80.5285 26.8887 82.3072 27.4649C83.1216 27.7424 83.7004 27.9452 84.0432 28.0732C84.4076 28.1799 84.922 28.372 85.5863 28.6494C86.2723 28.9055 86.7758 29.1403 87.0973 29.3537C87.4188 29.5458 87.8045 29.8232 88.2546 30.1861C88.7263 30.5276 89.0583 30.8796 89.2512 31.2425C89.4657 31.5839 89.6478 32.0108 89.7978 32.5231C89.9693 33.014 90.0549 33.5474 90.0549 34.1237C90.0549 36.0233 89.3585 37.5491 87.9653 38.7016C86.5724 39.8328 84.7399 40.3983 82.4679 40.3983ZM107.247 17.6048V19.7177H100.335V40.0142H98.085V19.7177H91.1732V17.6048H107.247ZM123.843 40.0142L121.753 34.5079H111.081L108.991 40.0142H106.612L115.26 17.6048H117.574L126.222 40.0142H123.843ZM111.884 32.395H120.95L116.417 20.39L111.884 32.395ZM141.656 17.6048V19.7177H134.744V40.0142H132.494V19.7177H125.582V17.6048H141.656ZM147.122 37.9012H158.053V40.0142H144.872V17.6048H157.892V19.7177H147.122V27.657H157.089V29.7699H147.122V37.9012Z" fill="black"/>
<path d="M167.285 69.7408V67.7239L175.387 59.5925C177.702 57.2876 178.859 55.3135 178.859 53.6701C178.859 52.2403 178.409 51.1303 177.508 50.3407C176.63 49.5296 175.569 49.1242 174.326 49.1242C172.011 49.1242 170.329 50.1807 169.278 52.2935L167.382 51.1731C168.09 49.7857 169.054 48.7401 170.275 48.0357C171.497 47.3102 172.848 46.9473 174.326 46.9473C176.126 46.9473 177.702 47.5555 179.052 48.7721C180.423 49.9673 181.11 51.5999 181.11 53.6701C181.11 54.9719 180.745 56.2204 180.016 57.4157C179.288 58.6109 178.259 59.8699 176.93 61.1932L170.5 67.5639H181.591V69.7408H167.285Z" fill="#41FFDB"/>
<path d="M204.507 63.1447V65.2575H201.614V69.7393H199.364V65.2575H187.469V63.1447L195.827 47.3301H198.303L189.944 63.1447H199.364V56.2938H201.614V63.1447H204.507Z" fill="#41FFDB"/>
<path d="M47.0538 70.125C44.9964 70.125 43.2282 69.6447 41.7494 68.6844C40.292 67.7027 39.2739 66.3582 38.6953 64.6507L40.6242 63.5302C41.0314 64.9176 41.7815 66.0059 42.8746 66.7955C43.9676 67.5639 45.3714 67.948 47.086 67.948C48.7577 67.948 50.0544 67.5851 50.976 66.8595C51.919 66.1125 52.3904 65.1308 52.3904 63.9143C52.3904 62.7406 51.9618 61.8547 51.1045 61.2573C50.2473 60.6598 48.8327 60.0408 46.8609 59.4005C44.5249 58.6322 42.9817 58.0132 42.2316 57.5437C40.517 56.5193 39.6598 55.0359 39.6598 53.0939C39.6598 51.1943 40.3241 49.7004 41.6529 48.612C42.9817 47.5023 44.6213 46.9473 46.5716 46.9473C48.3291 46.9473 49.8507 47.4062 51.1367 48.3239C52.4226 49.2202 53.3763 50.3727 53.9979 51.7813L52.1011 52.8378C51.0724 50.362 49.2292 49.1242 46.5716 49.1242C45.1785 49.1242 44.0534 49.4656 43.1961 50.1486C42.3388 50.8317 41.9101 51.7813 41.9101 52.9978C41.9101 54.1075 42.2959 54.9399 43.0675 55.4949C43.839 56.0498 45.1142 56.6153 46.8931 57.1916C47.7076 57.4689 48.2862 57.6718 48.6291 57.7998C48.9934 57.9066 49.5079 58.0987 50.1723 58.3761C50.8581 58.6322 51.3617 58.867 51.6832 59.0803C52.0047 59.2724 52.3904 59.5498 52.8406 59.9127C53.312 60.2541 53.6443 60.6063 53.8372 60.9691C54.0515 61.3105 54.2336 61.7375 54.3836 62.2496C54.5552 62.7406 54.6408 63.2741 54.6408 63.8503C54.6408 65.7498 53.9443 67.2758 52.5512 68.4282C51.1582 69.5595 49.3257 70.125 47.0538 70.125ZM89.3752 69.7407L84.1029 60.777H77.8019V69.7407H75.5515V47.3315H84.553C86.4176 47.3315 88.0036 47.993 89.3109 49.3163C90.6398 50.6181 91.3041 52.1975 91.3041 54.0543C91.3041 55.5696 90.8435 56.9247 89.9218 58.1199C89.0216 59.2937 87.8643 60.0835 86.4497 60.4889L91.9471 69.7407H89.3752ZM77.8019 49.4443V58.6642H84.553C85.7962 58.6642 86.8571 58.2159 87.7357 57.3196C88.6144 56.402 89.0537 55.3135 89.0537 54.0543C89.0537 52.7738 88.6144 51.6853 87.7357 50.7889C86.8571 49.8926 85.7962 49.4443 84.553 49.4443H77.8019ZM100.903 69.7407L92.6089 47.3315H95.0525L102.061 66.7635L109.069 47.3315H111.512L103.218 69.7407H100.903ZM114.418 47.3315H116.668V69.7407H114.418V47.3315ZM132.34 70.125C128.932 70.125 126.114 69.0045 123.885 66.7635C121.656 64.5226 120.542 61.7802 120.542 58.5362C120.542 55.292 121.656 52.5496 123.885 50.3087C126.114 48.0677 128.932 46.9473 132.34 46.9473C134.419 46.9473 136.326 47.4487 138.063 48.452C139.798 49.4336 141.138 50.7677 142.081 52.4535L140.088 53.606C139.381 52.2403 138.331 51.1518 136.937 50.3407C135.544 49.5296 134.012 49.1242 132.34 49.1242C129.532 49.1242 127.239 50.0313 125.46 51.8453C123.682 53.6594 122.792 55.8897 122.792 58.5362C122.792 61.1825 123.682 63.4129 125.46 65.2269C127.239 67.0409 129.532 67.948 132.34 67.948C134.012 67.948 135.544 67.5426 136.937 66.7315C138.331 65.9204 139.381 64.832 140.088 63.4662L142.081 64.5867C141.16 66.2726 139.819 67.6171 138.063 68.6204C136.326 69.6235 134.419 70.125 132.34 70.125ZM148.032 67.6279H158.963V69.7407H145.781V47.3315H158.801V49.4443H148.032V57.3837H157.998V59.4965H148.032V67.6279Z" fill="black"/>
<path d="M60.7504 67.6265H71.6808V69.7393H58.5V47.3301H71.5201V49.4429H60.7504V57.3823H70.7164V59.4951H60.7504V67.6265Z" fill="#41FFDB"/>
<path d="M36.169 25.5319C36.5513 25.1495 36.4358 24.4143 35.911 23.8895L12.791 0.769531L11.1758 2.38463L34.2959 25.5047C34.8207 26.0294 35.5559 26.1449 35.9382 25.7626L36.169 25.5319Z" fill="white"/>
<path d="M14.7014 4.10254L16.3313 5.73244L11.0791 10.9846L9.44922 9.35474L14.7014 4.10254Z" fill="white"/>
<path d="M30.3469 21.4008C28.5305 23.5818 27.5848 26.3575 27.6918 29.1937C27.7988 32.03 28.951 34.7266 30.9265 36.7645C32.9021 38.8025 35.5615 40.0378 38.3931 40.233C41.2247 40.4281 44.0284 39.5692 46.2648 37.8214C48.5013 36.0737 50.0124 33.5607 50.5074 30.7659C51.0024 27.9711 50.4464 25.0919 48.9464 22.6824C47.4463 20.2729 45.1082 18.5032 42.3818 17.7138C39.6555 16.9245 36.5788 17.7578 34.0235 18.9932L35.7171 20.4548C37.8365 19.4302 39.575 18.944 41.8361 19.5986C44.0973 20.2533 46.0365 21.721 47.2806 23.7194C48.5247 25.7178 48.9858 28.1057 48.5752 30.4237C48.1647 32.7416 46.9114 34.8258 45.0566 36.2753C43.2018 37.7248 40.8764 38.4372 38.528 38.2754C36.1795 38.1136 33.9739 37.089 32.3354 35.3988C30.697 33.7085 29.7414 31.4721 29.6527 29.1198C29.5639 26.7674 30.3482 24.4653 31.8547 22.6565L30.3469 21.4008Z" fill="white"/>
<path d="M15.0139 25.5457C14.6317 25.1632 14.7486 24.4268 15.275 23.9008L38.468 0.724609L40.0826 2.34031L16.8896 25.5165C16.3632 26.0425 15.6267 26.1589 15.2445 25.7765L15.0139 25.5457Z" fill="white"/>
<path d="M36.5485 4.05371L34.918 5.68301L40.229 10.9978L41.8595 9.36851L36.5485 4.05371Z" fill="white"/>
<path d="M20.902 21.3475C22.7176 23.5292 23.6623 26.3052 23.5542 29.1415C23.4462 31.9777 22.2931 34.6739 20.3168 36.7111C18.3405 38.7483 15.6806 39.9827 12.849 40.1768C10.0173 40.3709 7.21387 39.511 4.97807 37.7625C2.74228 36.0139 1.2321 33.5004 0.738068 30.7054C0.244048 27.9104 0.801078 25.0314 2.30201 22.6225C3.80293 20.2135 6.14171 18.4446 8.86837 17.6563C11.595 16.8679 14.6714 17.7024 17.2263 18.9387L15.5321 20.3997C13.4131 19.3743 11.6748 18.8874 9.41337 19.5413C7.15197 20.1951 5.21225 21.6621 3.96743 23.6601C2.7226 25.658 2.26061 28.0458 2.67034 30.3639C3.08007 32.6819 4.33258 34.7666 6.18687 36.2168C8.04117 37.667 10.3663 38.3802 12.7148 38.2192C15.0633 38.0582 17.2693 37.0344 18.9084 35.3448C20.5475 33.6552 21.5038 31.4191 21.5934 29.0668C21.683 26.7145 20.8996 24.4121 19.3938 22.6027L20.902 21.3475Z" fill="white"/>
</svg>
