<svg width="169" height="42" fill="none" xmlns="http://www.w3.org/2000/svg"><path d="M1.634 33V8.18h5.644V33H1.634zM21.31 16h5.644v17H21.31v-1.7c-1.02 1.45-2.595 2.176-4.726 2.176-1.836 0-3.343-.623-4.522-1.87-1.156-1.27-1.734-3.083-1.734-5.44V16h5.644v9.452c0 .884.227 1.553.68 2.006.476.453 1.1.68 1.87.68.884 0 1.564-.26 2.04-.782.5-.544.748-1.315.748-2.312V16zm17.107 17.476c-2.584 0-4.738-.861-6.46-2.584-1.723-1.723-2.584-3.853-2.584-6.392s.861-4.67 2.584-6.392c1.722-1.723 3.876-2.584 6.46-2.584 1.677 0 3.196.397 4.556 1.19 1.382.793 2.448 1.859 3.196 3.196l-4.828 2.788c-.612-1.11-1.598-1.666-2.958-1.666-.952 0-1.746.329-2.38.986-.635.635-.952 1.462-.952 2.482 0 1.02.317 1.859.952 2.516.634.635 1.428.952 2.38.952 1.405 0 2.391-.567 2.958-1.7l4.828 2.788c-.748 1.36-1.814 2.437-3.196 3.23-1.36.793-2.879 1.19-4.556 1.19zM64.78 33h-6.324l-4.828-7.242V33h-5.643V9.2h5.644v13.906L58.016 16h6.527l-5.712 8.5 5.95 8.5zm12.08-17h6.256l-5.814 16.728c-.906 2.561-2.187 4.409-3.842 5.542-1.654 1.133-3.796 1.643-6.426 1.53v-5.304c1.202 0 2.108-.147 2.72-.442.612-.295 1.11-.827 1.496-1.598L64.45 16h6.324l3.434 9.86L76.86 16z" fill="#002958" fill-opacity=".8"/><path d="M84.98 25.452V20.08h13.26v5.372H84.98zm22.167-4.488c0 .317.284.578.85.782.59.204 1.292.397 2.108.578a14.29 14.29 0 012.482.782c.839.317 1.542.873 2.108 1.666.59.793.884 1.79.884 2.992 0 1.95-.725 3.389-2.176 4.318-1.45.93-3.173 1.394-5.168 1.394-3.808 0-6.346-1.349-7.616-4.046l4.93-2.482c.431 1.247 1.315 1.87 2.652 1.87 1.02 0 1.53-.306 1.53-.918 0-.317-.283-.578-.85-.782a21.89 21.89 0 00-2.074-.612 17.224 17.224 0 01-2.448-.816c-.816-.34-1.507-.884-2.074-1.632-.566-.77-.85-1.711-.85-2.822 0-1.813.669-3.219 2.006-4.216 1.338-.997 2.947-1.496 4.828-1.496 3.355 0 5.69 1.315 7.004 3.944l-4.76 2.142c-.498-.975-1.201-1.462-2.108-1.462-.838 0-1.258.272-1.258.816zm15.731-7.31c-.634.635-1.394.952-2.278.952-.884 0-1.654-.317-2.312-.952-.634-.657-.952-1.428-.952-2.312 0-.884.318-1.643.952-2.278.658-.635 1.428-.952 2.312-.952.884 0 1.644.317 2.278.952.658.635.986 1.394.986 2.278 0 .884-.328 1.655-.986 2.312zM117.778 33V16h5.644v17h-5.644zm19.439-11.594h-3.536v4.93c0 .748.272 1.213.816 1.394.544.181 1.451.238 2.72.17V33c-3.377.408-5.757.102-7.14-.918-1.36-1.043-2.04-2.913-2.04-5.61v-5.066h-2.55V16h2.55v-3.06l5.644-1.7V16h3.536v5.406zm7.342 5.168c.566 1.383 1.836 2.074 3.808 2.074 1.224 0 2.255-.397 3.094-1.19l4.08 2.856c-1.678 2.108-4.114 3.162-7.31 3.162-2.879 0-5.191-.839-6.936-2.516-1.723-1.7-2.584-3.842-2.584-6.426 0-2.561.85-4.703 2.55-6.426 1.7-1.723 3.864-2.584 6.494-2.584 2.538 0 4.635.85 6.29 2.55 1.654 1.7 2.482 3.83 2.482 6.392 0 .748-.08 1.45-.238 2.108h-11.73zm-.068-3.91h6.528c-.454-1.587-1.519-2.38-3.196-2.38-1.746 0-2.856.793-3.332 2.38z" fill="#8CB6F0" fill-opacity=".7"/><path d="M162.248 33.476c-.997 0-1.847-.34-2.55-1.02a3.492 3.492 0 01-1.02-2.516c0-.975.352-1.802 1.054-2.482.703-.703 1.542-1.054 2.516-1.054.975 0 1.802.351 2.482 1.054a3.323 3.323 0 011.054 2.482c0 .975-.351 1.813-1.054 2.516-.68.68-1.507 1.02-2.482 1.02z" fill="#002958"/></svg>