<svg width="107" height="106" fill="none" xmlns="http://www.w3.org/2000/svg"><g clip-path="url(#clip0)"><path d="M99.367 4.79H6.637a6.635 6.635 0 00-6.635 6.635v49.123a6.635 6.635 0 006.635 6.634 5.189 5.189 0 015.189 5.19v.693c0 5.24 6.336 7.865 10.042 4.16l8.319-8.32a5.882 5.882 0 014.16-1.723h65.02a6.635 6.635 0 006.635-6.635V11.425a6.635 6.635 0 00-6.635-6.635z" fill="url(#paint0_linear)"/><path d="M99.367 4.79H90.84a6.635 6.635 0 016.635 6.635v49.123a6.635 6.635 0 01-6.635 6.635h8.527a6.635 6.635 0 006.635-6.635V11.425a6.635 6.635 0 00-6.635-6.635z" fill="url(#paint1_linear)"/><path d="M89.057 22.857l2.431 4.927 5.438.79c2.874.418 4.022 3.95 1.942 5.978l-3.934 3.835.928 5.416c.492 2.863-2.514 5.046-5.085 3.694l-4.863-2.557-4.863 2.557c-2.571 1.352-5.577-.832-5.085-3.695l.928-5.415-3.934-3.835c-2.08-2.028-.932-5.56 1.942-5.978l5.438-.79 2.431-4.927c1.286-2.605 5-2.605 6.286 0z" fill="url(#paint2_linear)"/><path d="M96.926 28.574l-3.303-.48v.004c0 7.741-6.276 14.016-14.017 14.016-1.131 0-2.23-.135-3.284-.388l-.356 2.076c-.492 2.863 2.514 5.047 5.085 3.695l4.863-2.557 4.863 2.557c2.571 1.352 5.576-.832 5.085-3.695l-.928-5.415 3.934-3.835c2.08-2.028.932-5.56-1.942-5.978z" fill="url(#paint3_linear)"/><path d="M56.796 22.857l2.431 4.927 5.438.79c2.874.418 4.022 3.95 1.942 5.978l-3.934 3.835.928 5.416c.492 2.863-2.514 5.046-5.085 3.694l-4.863-2.557-4.863 2.557c-2.571 1.352-5.576-.832-5.085-3.695l.928-5.415-3.934-3.835c-2.08-2.028-.932-5.56 1.943-5.978l5.437-.79 2.431-4.927c1.286-2.605 5-2.605 6.286 0z" fill="url(#paint4_linear)"/><path d="M64.665 28.574l-3.303-.48v.004c0 7.741-6.275 14.016-14.016 14.016-1.132 0-2.231-.135-3.285-.388l-.356 2.076c-.491 2.863 2.514 5.047 5.085 3.695l4.863-2.557 4.863 2.557c2.571 1.352 5.577-.832 5.086-3.695l-.93-5.415 3.935-3.835c2.08-2.028.933-5.56-1.942-5.978z" fill="url(#paint5_linear)"/><path d="M23.613 22.857l2.432 4.927 5.437.79c2.875.418 4.023 3.95 1.943 5.978l-3.935 3.835.929 5.416c.491 2.863-2.514 5.046-5.085 3.694L20.47 44.94l-4.864 2.557c-2.57 1.352-5.576-.832-5.085-3.695l.929-5.415-3.935-3.835c-2.08-2.028-.932-5.56 1.943-5.978l5.437-.79 2.432-4.927c1.285-2.605 5-2.605 6.285 0z" fill="url(#paint6_linear)"/><path d="M31.482 28.574l-3.303-.48v.004c0 7.741-6.275 14.016-14.016 14.016a14.06 14.06 0 01-3.285-.388l-.356 2.076c-.491 2.863 2.514 5.047 5.085 3.695l4.864-2.557 4.863 2.557c2.57 1.352 5.576-.832 5.085-3.695l-.929-5.415 3.935-3.835c2.08-2.028.932-5.56-1.943-5.978z" fill="url(#paint7_linear)"/><path d="M48.979 54.03h43.19c3.208 0 5.809 2.6 5.809 5.808v25.253c0 3.208-2.6 5.809-5.809 5.809a4.543 4.543 0 00-4.543 4.542v.608c0 4.588-5.547 6.885-8.791 3.641l-7.283-7.283A5.15 5.15 0 0067.91 90.9H48.979a5.809 5.809 0 01-5.81-5.81V59.839a5.81 5.81 0 015.81-5.809z" fill="url(#paint8_linear)"/><path d="M92.17 54.03h-8.32c3.209 0 5.81 2.6 5.81 5.808v25.253a5.81 5.81 0 01-5.81 5.809 4.543 4.543 0 00-4.542 4.542v.608c0 1.212-.39 2.263-1.02 3.095l.546.546c3.244 3.245 8.791.947 8.791-3.641v-.608A4.543 4.543 0 0192.17 90.9a5.81 5.81 0 005.81-5.81V59.839a5.81 5.81 0 00-5.81-5.809z" fill="url(#paint9_linear)"/></g><defs><linearGradient id="paint0_linear" x1=".002" y1="41.478" x2="109.228" y2="41.478" gradientUnits="userSpaceOnUse"><stop stop-color="#DFECFF"/><stop offset="1" stop-color="#92B8F3"/></linearGradient><linearGradient id="paint1_linear" x1="88.713" y1="35.986" x2="108.93" y2="35.986" gradientUnits="userSpaceOnUse"><stop stop-color="#8CB7FC"/><stop offset="1" stop-color="#6FA0ED"/></linearGradient><linearGradient id="paint2_linear" x1="67.965" y1="34.406" x2="105.343" y2="34.406" gradientUnits="userSpaceOnUse"><stop stop-color="#8FBAFD"/><stop offset="1" stop-color="#B8D2FC"/></linearGradient><linearGradient id="paint3_linear" x1="72.543" y1="38.001" x2="104.568" y2="38.001" gradientUnits="userSpaceOnUse"><stop stop-color="#A6C3F2"/><stop offset=".646" stop-color="#95BBF8"/><stop offset="1" stop-color="#7FAAEF"/></linearGradient><linearGradient id="paint4_linear" x1="35.704" y1="34.406" x2="73.082" y2="34.406" gradientUnits="userSpaceOnUse"><stop stop-color="#8FBAFD"/><stop offset="1" stop-color="#B8D2FC"/></linearGradient><linearGradient id="paint5_linear" x1="40.282" y1="38.001" x2="72.308" y2="38.001" gradientUnits="userSpaceOnUse"><stop stop-color="#A6C3F2"/><stop offset=".646" stop-color="#95BBF8"/><stop offset="1" stop-color="#7FAAEF"/></linearGradient><linearGradient id="paint6_linear" x1="2.521" y1="34.406" x2="39.9" y2="34.406" gradientUnits="userSpaceOnUse"><stop stop-color="#8FBAFD"/><stop offset="1" stop-color="#B8D2FC"/></linearGradient><linearGradient id="paint7_linear" x1="7.099" y1="38.001" x2="39.125" y2="38.001" gradientUnits="userSpaceOnUse"><stop stop-color="#A6C3F2"/><stop offset=".646" stop-color="#95BBF8"/><stop offset="1" stop-color="#7FAAEF"/></linearGradient><linearGradient id="paint8_linear" x1="43.17" y1="77.62" x2="97.978" y2="77.62" gradientUnits="userSpaceOnUse"><stop stop-color="#FAFCFF"/><stop offset=".593" stop-color="#CAE2FA"/><stop offset="1" stop-color="#BCD7F8"/></linearGradient><linearGradient id="paint9_linear" x1="80.752" y1="77.62" x2="99.619" y2="77.62" gradientUnits="userSpaceOnUse"><stop stop-color="#C0D5FF"/><stop offset=".548" stop-color="#94BBF4"/><stop offset="1" stop-color="#93B4F5"/></linearGradient><clipPath id="clip0"><path fill="#fff" transform="translate(.002)" d="M0 0h106v106H0z"/></clipPath></defs></svg>