<svg width="60" height="60" viewBox="0 0 60 60" fill="none" xmlns="http://www.w3.org/2000/svg">
<path d="M30 0C19.4572 0 10.6641 8.49258 10.6641 19.3359C10.6641 23.4612 11.9037 27.1397 14.2827 30.5866L28.5203 52.803C29.211 53.883 30.7904 53.8809 31.4797 52.803L45.7791 30.5111C48.1069 27.2203 49.3359 23.3563 49.3359 19.3359C49.3359 8.6741 40.6618 0 30 0ZM30 28.125C25.1539 28.125 21.2109 24.182 21.2109 19.3359C21.2109 14.4899 25.1539 10.5469 30 10.5469C34.8461 10.5469 38.7891 14.4899 38.7891 19.3359C38.7891 24.182 34.8461 28.125 30 28.125Z" fill="#41FFDB"/>
<path d="M43.7419 40.3936L34.8906 54.2319C32.5995 57.804 27.3878 57.7923 25.1077 54.2353L16.242 40.3972C8.44148 42.2007 3.63281 45.5046 3.63281 49.4527C3.63281 56.3037 17.2181 59.9996 30 59.9996C42.7819 59.9996 56.3672 56.3037 56.3672 49.4527C56.3672 45.5018 51.5518 42.1961 43.7419 40.3936Z" fill="#41FFDB"/>
</svg>
