<svg width="77" height="71" fill="none" xmlns="http://www.w3.org/2000/svg"><g clip-path="url(#clip0)" filter="url(#filter0_d)"><path d="M67.23 62.148H7.742a4.256 4.256 0 01-4.256-4.257V10.11a4.256 4.256 0 014.256-4.257H67.23a4.256 4.256 0 014.256 4.257v47.78a4.256 4.256 0 01-4.256 4.257z" fill="url(#paint0_linear)"/><path d="M67.746 5.853H8.258a4.256 4.256 0 00-4.256 4.257v9.462h62.53v38.32a4.256 4.256 0 01-4.256 4.256h5.47a4.256 4.256 0 004.256-4.257V10.11a4.256 4.256 0 00-4.256-4.257z" fill="url(#paint1_linear)"/><path d="M72.002 16.237h-68V10.11a4.256 4.256 0 014.256-4.257h59.488a4.256 4.256 0 014.256 4.257v6.127z" fill="url(#paint2_linear)"/><path d="M67.745 5.853h-5.336a4.256 4.256 0 014.256 4.257v6.127h5.336V10.11a4.256 4.256 0 00-4.256-4.257z" fill="url(#paint3_linear)"/><path d="M9.335 13.759a2.758 2.758 0 100-5.516 2.758 2.758 0 000 5.516z" fill="url(#paint4_linear)"/><path d="M9.334 12.872a1.871 1.871 0 100-3.742 1.871 1.871 0 000 3.742z" fill="url(#paint5_linear)"/><path d="M15.786 13.759a2.758 2.758 0 100-5.516 2.758 2.758 0 000 5.516z" fill="url(#paint6_linear)"/><path d="M15.786 12.872a1.871 1.871 0 100-3.742 1.871 1.871 0 000 3.742z" fill="url(#paint7_linear)"/><path d="M22.237 13.759a2.758 2.758 0 100-5.516 2.758 2.758 0 000 5.516z" fill="url(#paint8_linear)"/><path d="M22.237 12.872a1.871 1.871 0 100-3.742 1.871 1.871 0 000 3.742z" fill="url(#paint9_linear)"/><path d="M50.703 29.719c.532.686.441 1.78-.158 2.396-1.274 1.305-2.55 2.607-3.829 3.906-1.903-.514-3.931-.918-6.01-1.283 2.076-3.015 4.145-6.012 6.19-8.946a25.135 25.135 0 013.807 3.927z" fill="url(#paint10_linear)"/><path d="M46.283 25.3c.207.16.411.325.613.491 1.502 1.239 1.4 3.575.007 4.98a5476.96 5476.96 0 01-5.59 5.611c-.357-2.467-.751-4.887-1.293-7.134a1316.54 1316.54 0 013.867-3.79c.615-.6 1.71-.69 2.396-.159z" fill="url(#paint11_linear)"/><path d="M46.716 36.02l-1.32 1.34c-1.828-.979-3.776-1.848-5.776-2.671 1.593-.463 3.182-.924 4.745-1.368a43.598 43.598 0 012.351 2.7z" fill="url(#paint12_linear)"/><path d="M44.364 33.321a5603.72 5603.72 0 01-4.746 4.76c-.27-2.56-.554-5.098-.976-7.476l1.339-1.32a43.357 43.357 0 014.383 4.036z" fill="url(#paint13_linear)"/><path d="M45.398 37.36c-3.909 3.96-7.842 7.895-11.8 11.805-1.778-.483-3.533-.982-5.222-1.539l11.57-11.57 3.062-1.372a53.096 53.096 0 012.39 2.676z" fill="url(#paint14_linear)"/><path d="M43.007 34.684a5508.62 5508.62 0 01-14.628 14.62c-.593-2.205-1.076-4.538-1.542-6.899 3.91-3.958 7.845-7.891 11.805-11.8a53.073 53.073 0 014.365 4.079z" fill="url(#paint15_linear)"/><path d="M27.526 48.476l-4.32 4.32a.802.802 0 00.869.163l3.308-1.328c.031-1.03.081-2.084.143-3.155z" fill="url(#paint16_linear)"/><path d="M23.68 52.579l2.527-2.031 1.319-2.072c-1.07.062-2.125.112-3.155.143-.444 1.109-.888 2.213-1.328 3.308a.802.802 0 00.164.868c.055.056.242-.029.474-.216z" fill="url(#paint17_linear)"/><path d="M27.383 51.63a769.32 769.32 0 016.213-2.465 56.974 56.974 0 01-2.668-2.401c-1.362.078-2.711.148-4.03.195-.238 1.21-.472 2.41-.691 3.589.383.37.775.73 1.176 1.082z" fill="url(#paint18_linear)"/><path d="M30.928 46.764a56.81 56.81 0 01-4.091-4.359 757.87 757.87 0 01-2.466 6.214 32.191 32.191 0 001.836 1.928 4111.67 4111.67 0 014.72-3.783z" fill="url(#paint19_linear)"/></g><defs><linearGradient id="paint0_linear" x1="3.7" y1="34.001" x2="70.497" y2="34.001" gradientUnits="userSpaceOnUse"><stop stop-color="#D5E6FF"/><stop stop-color="#F6F9FD"/><stop offset="0" stop-color="#FAFCFF"/><stop offset=".593" stop-color="#E7F3FF"/><stop offset="1" stop-color="#E1EAF9"/></linearGradient><linearGradient id="paint1_linear" x1="4.216" y1="34.001" x2="71.013" y2="34.001" gradientUnits="userSpaceOnUse"><stop stop-color="#E6EEF3"/><stop offset="1" stop-color="#B0CCF9"/></linearGradient><linearGradient id="paint2_linear" x1="-5.539" y1="11.045" x2="85.133" y2="11.045" gradientUnits="userSpaceOnUse"><stop stop-color="#CDDEFA"/><stop offset="1" stop-color="#92B8F3"/></linearGradient><linearGradient id="paint3_linear" x1="61.063" y1="11.045" x2="73.854" y2="11.045" gradientUnits="userSpaceOnUse"><stop stop-color="#91B7F3"/><stop offset="1" stop-color="#78A1E2"/></linearGradient><linearGradient id="paint4_linear" x1="5.803" y1="11.001" x2="13.158" y2="11.001" gradientUnits="userSpaceOnUse"><stop stop-color="#CDDEFA"/><stop offset="1" stop-color="#92B8F3"/></linearGradient><linearGradient id="paint5_linear" x1="6.938" y1="11.001" x2="11.928" y2="11.001" gradientUnits="userSpaceOnUse"><stop stop-color="#B2CFFE"/><stop offset="1" stop-color="#6591D7"/></linearGradient><linearGradient id="paint6_linear" x1="12.254" y1="11.001" x2="19.609" y2="11.001" gradientUnits="userSpaceOnUse"><stop stop-color="#CDDEFA"/><stop offset="1" stop-color="#92B8F3"/></linearGradient><linearGradient id="paint7_linear" x1="13.914" y1="11.001" x2="17.657" y2="11.001" gradientUnits="userSpaceOnUse"><stop stop-color="#FAFCFF"/><stop offset=".593" stop-color="#CAE2FA"/><stop offset="1" stop-color="#BCD7F8"/></linearGradient><linearGradient id="paint8_linear" x1="18.706" y1="11.001" x2="26.06" y2="11.001" gradientUnits="userSpaceOnUse"><stop stop-color="#CDDEFA"/><stop offset="1" stop-color="#92B8F3"/></linearGradient><linearGradient id="paint9_linear" x1="20.366" y1="11.001" x2="24.108" y2="11.001" gradientUnits="userSpaceOnUse"><stop stop-color="#FAFCFF"/><stop offset=".593" stop-color="#CAE2FA"/><stop offset="1" stop-color="#BCD7F8"/></linearGradient><linearGradient id="paint10_linear" x1="39.255" y1="30.907" x2="53.051" y2="30.907" gradientUnits="userSpaceOnUse"><stop stop-color="#568DE2"/><stop offset="1" stop-color="#6591D7"/></linearGradient><linearGradient id="paint11_linear" x1="41.016" y1="30.666" x2="48.65" y2="30.666" gradientUnits="userSpaceOnUse"><stop stop-color="#C0D5FF"/><stop offset=".548" stop-color="#94BBF4"/><stop offset="1" stop-color="#93B4F5"/></linearGradient><linearGradient id="paint12_linear" x1="39.62" y1="35.34" x2="46.716" y2="35.34" gradientUnits="userSpaceOnUse"><stop stop-color="#FAFCFF"/><stop offset=".593" stop-color="#CAE2FA"/><stop offset="1" stop-color="#BCD7F8"/></linearGradient><linearGradient id="paint13_linear" x1="38.642" y1="33.683" x2="44.364" y2="33.683" gradientUnits="userSpaceOnUse"><stop stop-color="#FAFCFF"/><stop offset=".593" stop-color="#CAE2FA"/><stop offset="1" stop-color="#BCD7F8"/></linearGradient><linearGradient id="paint14_linear" x1="25.988" y1="41.925" x2="48.684" y2="41.925" gradientUnits="userSpaceOnUse"><stop stop-color="#568DE2"/><stop offset="1" stop-color="#6591D7"/></linearGradient><linearGradient id="paint15_linear" x1="28.86" y1="39.954" x2="44.355" y2="39.954" gradientUnits="userSpaceOnUse"><stop stop-color="#C0D5FF"/><stop offset=".548" stop-color="#94BBF4"/><stop offset="1" stop-color="#93B4F5"/></linearGradient><linearGradient id="paint16_linear" x1="25.368" y1="53.98" x2="25.368" y2="41.578" gradientUnits="userSpaceOnUse"><stop stop-color="#0056E0"/><stop offset=".175" stop-color="#0069D7"/><stop offset=".532" stop-color="#009BC1"/><stop offset="1" stop-color="#00E5A1"/></linearGradient><linearGradient id="paint17_linear" x1="25.256" y1="56.058" x2="25.256" y2="37.737" gradientUnits="userSpaceOnUse"><stop stop-color="#0056E0"/><stop offset=".272" stop-color="#0080CD"/><stop offset=".769" stop-color="#00C9AD"/><stop offset="1" stop-color="#00E5A1"/></linearGradient><linearGradient id="paint18_linear" x1="26.207" y1="49.197" x2="33.596" y2="49.197" gradientUnits="userSpaceOnUse"><stop stop-color="#FAFCFF"/><stop offset=".593" stop-color="#CAE2FA"/><stop offset="1" stop-color="#BCD7F8"/></linearGradient><linearGradient id="paint19_linear" x1="24.371" y1="46.476" x2="30.928" y2="46.476" gradientUnits="userSpaceOnUse"><stop stop-color="#FAFCFF"/><stop offset=".593" stop-color="#CAE2FA"/><stop offset="1" stop-color="#BCD7F8"/></linearGradient><clipPath id="clip0"><path fill="#fff" transform="translate(4.002)" d="M0 0h68v67.999H0z"/></clipPath><filter id="filter0_d" x=".002" y=".001" width="76" height="75.999" filterUnits="userSpaceOnUse" color-interpolation-filters="sRGB"><feFlood flood-opacity="0" result="BackgroundImageFix"/><feColorMatrix in="SourceAlpha" values="0 0 0 0 0 0 0 0 0 0 0 0 0 0 0 0 0 0 127 0"/><feOffset dy="4"/><feGaussianBlur stdDeviation="2"/><feColorMatrix values="0 0 0 0 0 0 0 0 0 0 0 0 0 0 0 0 0 0 0.25 0"/><feBlend in2="BackgroundImageFix" result="effect1_dropShadow"/><feBlend in="SourceGraphic" in2="effect1_dropShadow" result="shape"/></filter></defs></svg>