<svg width="69" height="68" fill="none" xmlns="http://www.w3.org/2000/svg"><g clip-path="url(#clip0)"><path d="M63.23 62.148H3.743A4.256 4.256 0 01-.513 57.89V10.11a4.256 4.256 0 014.256-4.257H63.23a4.256 4.256 0 014.257 4.257v47.78a4.256 4.256 0 01-4.257 4.257z" fill="url(#paint0_linear)"/><path d="M63.746 5.853H4.258A4.256 4.256 0 00.002 10.11v9.462h62.53v38.32a4.256 4.256 0 01-4.256 4.256h5.47a4.256 4.256 0 004.256-4.257V10.11a4.256 4.256 0 00-4.256-4.256z" fill="url(#paint1_linear)"/><path d="M68.002 16.237h-68V10.11a4.256 4.256 0 014.256-4.257h59.488a4.256 4.256 0 014.256 4.257v6.127z" fill="url(#paint2_linear)"/><path d="M63.746 5.853h-5.337a4.256 4.256 0 014.257 4.257v6.127h5.336V10.11a4.256 4.256 0 00-4.256-4.257z" fill="url(#paint3_linear)"/><path d="M5.336 13.759a2.758 2.758 0 100-5.516 2.758 2.758 0 000 5.516z" fill="url(#paint4_linear)"/><path d="M5.336 12.872a1.871 1.871 0 100-3.742 1.871 1.871 0 000 3.742z" fill="url(#paint5_linear)"/><path d="M11.787 13.759a2.758 2.758 0 100-5.516 2.758 2.758 0 000 5.516z" fill="url(#paint6_linear)"/><path d="M11.787 12.872a1.871 1.871 0 100-3.742 1.871 1.871 0 000 3.742z" fill="url(#paint7_linear)"/><path d="M18.238 13.759a2.758 2.758 0 100-5.516 2.758 2.758 0 000 5.516z" fill="url(#paint8_linear)"/><path d="M18.238 12.872a1.871 1.871 0 100-3.742 1.871 1.871 0 000 3.742z" fill="url(#paint9_linear)"/><path d="M16.566 44.196c-1.092 0-1.988-.308-2.688-.924-.7-.616-1.05-1.442-1.05-2.478V34.2h1.918v6.44c0 .513.145.92.434 1.218.299.299.76.448 1.386.448.625 0 1.083-.15 1.372-.448.299-.299.448-.705.448-1.218V34.2h1.932v6.594c0 1.036-.35 1.862-1.05 2.478-.7.616-1.6.924-2.702.924zM29.37 44h-2.198l-1.904-3.192L23.364 44H21.18l2.996-5.026-2.842-4.774h2.184l1.75 2.94 1.75-2.94h2.184l-2.842 4.76L29.37 44zm1.433 1.4h-.798l5.6-12.6h.798l-5.6 12.6zm10.632-1.204c-1.092 0-1.988-.308-2.688-.924-.7-.616-1.05-1.442-1.05-2.478V34.2h1.918v6.44c0 .513.145.92.434 1.218.299.299.76.448 1.386.448.625 0 1.083-.15 1.372-.448.299-.299.448-.705.448-1.218V34.2h1.932v6.594c0 1.036-.35 1.862-1.05 2.478-.7.616-1.6.924-2.702.924zm5.493-9.996h1.932V44h-1.932v-9.8z" fill="url(#paint10_linear)"/></g><defs><linearGradient id="paint0_linear" x1="-.3" y1="34" x2="66.498" y2="34" gradientUnits="userSpaceOnUse"><stop stop-color="#D5E6FF"/><stop stop-color="#F6F9FD"/><stop offset="0" stop-color="#FAFCFF"/><stop offset=".593" stop-color="#E7F3FF"/><stop offset="1" stop-color="#E1EAF9"/></linearGradient><linearGradient id="paint1_linear" x1=".216" y1="34" x2="67.013" y2="34" gradientUnits="userSpaceOnUse"><stop stop-color="#E6EEF3"/><stop offset="1" stop-color="#B0CCF9"/></linearGradient><linearGradient id="paint2_linear" x1="-9.539" y1="11.045" x2="81.133" y2="11.045" gradientUnits="userSpaceOnUse"><stop stop-color="#CDDEFA"/><stop offset="1" stop-color="#92B8F3"/></linearGradient><linearGradient id="paint3_linear" x1="57.064" y1="11.045" x2="69.854" y2="11.045" gradientUnits="userSpaceOnUse"><stop stop-color="#91B7F3"/><stop offset="1" stop-color="#78A1E2"/></linearGradient><linearGradient id="paint4_linear" x1="1.804" y1="11.001" x2="9.159" y2="11.001" gradientUnits="userSpaceOnUse"><stop stop-color="#CDDEFA"/><stop offset="1" stop-color="#92B8F3"/></linearGradient><linearGradient id="paint5_linear" x1="2.939" y1="11.001" x2="7.929" y2="11.001" gradientUnits="userSpaceOnUse"><stop stop-color="#B2CFFE"/><stop offset="1" stop-color="#6591D7"/></linearGradient><linearGradient id="paint6_linear" x1="8.255" y1="11.001" x2="15.61" y2="11.001" gradientUnits="userSpaceOnUse"><stop stop-color="#CDDEFA"/><stop offset="1" stop-color="#92B8F3"/></linearGradient><linearGradient id="paint7_linear" x1="9.916" y1="11.001" x2="13.658" y2="11.001" gradientUnits="userSpaceOnUse"><stop stop-color="#FAFCFF"/><stop offset=".593" stop-color="#CAE2FA"/><stop offset="1" stop-color="#BCD7F8"/></linearGradient><linearGradient id="paint8_linear" x1="14.706" y1="11.001" x2="22.061" y2="11.001" gradientUnits="userSpaceOnUse"><stop stop-color="#CDDEFA"/><stop offset="1" stop-color="#92B8F3"/></linearGradient><linearGradient id="paint9_linear" x1="16.367" y1="11.001" x2="20.109" y2="11.001" gradientUnits="userSpaceOnUse"><stop stop-color="#FAFCFF"/><stop offset=".593" stop-color="#CAE2FA"/><stop offset="1" stop-color="#BCD7F8"/></linearGradient><linearGradient id="paint10_linear" x1="6.671" y1="39" x2="57.34" y2="39" gradientUnits="userSpaceOnUse"><stop stop-color="#80AEF5"/><stop offset="1" stop-color="#8BB4F3"/></linearGradient><clipPath id="clip0"><path fill="#fff" transform="translate(.002)" d="M0 0h68v68H0z"/></clipPath></defs></svg>