<svg width="69" height="68" fill="none" xmlns="http://www.w3.org/2000/svg"><g clip-path="url(#clip0)"><path d="M63.23 62.147H3.742a4.256 4.256 0 01-4.256-4.256V10.109a4.256 4.256 0 014.256-4.256H63.23a4.256 4.256 0 014.256 4.256v47.782a4.256 4.256 0 01-4.256 4.256z" fill="url(#paint0_linear)"/><path d="M63.746 5.853H4.258a4.256 4.256 0 00-4.256 4.256v9.462h62.53v38.32a4.256 4.256 0 01-4.256 4.256h5.47a4.256 4.256 0 004.256-4.256V10.109a4.256 4.256 0 00-4.256-4.256z" fill="url(#paint1_linear)"/><path d="M68.002 16.237h-68v-6.128a4.256 4.256 0 014.256-4.256h59.488a4.256 4.256 0 014.256 4.256v6.128z" fill="url(#paint2_linear)"/><path d="M63.745 5.853h-5.336a4.256 4.256 0 014.256 4.256v6.128h5.336v-6.128a4.256 4.256 0 00-4.256-4.256z" fill="url(#paint3_linear)"/><path d="M5.335 13.758a2.758 2.758 0 100-5.516 2.758 2.758 0 000 5.516z" fill="url(#paint4_linear)"/><path d="M5.334 12.872a1.871 1.871 0 100-3.743 1.871 1.871 0 000 3.743z" fill="url(#paint5_linear)"/><path d="M11.786 13.758a2.758 2.758 0 100-5.516 2.758 2.758 0 000 5.516z" fill="url(#paint6_linear)"/><path d="M11.786 12.872a1.871 1.871 0 100-3.743 1.871 1.871 0 000 3.743z" fill="url(#paint7_linear)"/><path d="M18.237 13.758a2.758 2.758 0 100-5.516 2.758 2.758 0 000 5.516z" fill="url(#paint8_linear)"/><path d="M18.237 12.872a1.871 1.871 0 100-3.742 1.871 1.871 0 000 3.742z" fill="url(#paint9_linear)"/><path d="M28.24 51.449l.44 1.31a1 1 0 00.923.69c1.266.018 2.532.018 3.798 0a1 1 0 00.924-.69c.146-.437.292-.874.44-1.31-1.082-.638-2.17-1.29-3.263-1.95-1.093.66-2.18 1.312-3.261 1.95z" fill="url(#paint10_linear)"/><path d="M32.49 44.873c-.003 2.201-.008 4.403-.014 6.605.762-.005 1.525-.014 2.288-.03a1.02 1.02 0 00.985-1.008c.011-.545.054-5.59.05-5.59a405.5 405.5 0 01-3.31.023z" fill="url(#paint11_linear)"/><path d="M27.255 50.44c.007.545.448.998.986 1.009 1.411.027 2.823.037 4.235.029a.998.998 0 00.979-.999c.005-.547.025-5.61.023-5.61-2.091.01-4.182.004-6.272-.019-.004 0 .038 5.046.05 5.59z" fill="url(#paint12_linear)"/><path d="M27.206 44.85c-.004 0 .039 5.046.05 5.59.007.545.448.998.985 1.009 2.175.042 4.35.042 6.524 0 .537-.01.979-.464.986-1.009.01-.545.053-5.59.05-5.59-2.866.032-5.73.032-8.595 0z" fill="url(#paint13_linear)"/><path d="M23.261 30.137c-1.116 1.63-1.794 3.548-1.814 5.593-.029 2.71 1.11 5.164 2.941 6.99l1.245 1.242c.374.373.585.877.59 1.399.005.7.011 1.4.019 2.102.006.543.45.994.992 1.004 2.846.054 5.692.054 8.538 0 .541-.01.986-.461.992-1.005l.02-2.101a2.005 2.005 0 01.588-1.4l1.245-1.241c1.405-1.399 2.402-3.173 2.777-5.141-6.087-2.516-12.175-5.198-18.133-7.442z" fill="url(#paint14_linear)"/><path d="M41.393 37.579a9.374 9.374 0 00.102-2.854c-4.32-2.909-8.626-5.931-12.797-8.722-2.205.71-4.121 2.22-5.437 4.134.603.89 1.308 1.74 2.117 2.538 4.296 4.251 10.39 5.936 16.015 4.904z" fill="url(#paint15_linear)"/><path d="M41.495 34.725c-.599-4.928-4.936-9.149-9.992-9.165a9.14 9.14 0 00-2.805.443 10.413 10.413 0 002.914 5.719c2.667 2.693 6.442 3.672 9.883 3.003z" fill="url(#paint16_linear)"/><path d="M24.511 31.754a8.029 8.029 0 00-1.086 3.942c-.018 2.126.825 4.121 2.358 5.647l1.242 1.24a3.965 3.965 0 011.17 2.802l.007 1.122c.443.005.887.01 1.331.012a501.79 501.79 0 001.97-.984c.657.33 1.314.659 1.97.984l1.331-.012.006-1.122a3.966 3.966 0 011.17-2.802l1.243-1.24a7.963 7.963 0 002.077-3.512c-4.953-2.05-9.907-4.185-14.789-6.077z" fill="url(#paint17_linear)"/><path d="M39.3 37.83a7.735 7.735 0 00.235-2.904c-3.481-2.347-6.951-4.747-10.346-7.019-1.972.636-3.646 2.052-4.678 3.847.274.313.563.62.867.92 3.765 3.72 8.921 5.496 13.922 5.156z" fill="url(#paint18_linear)"/><path d="M39.536 34.926c-.445-4.017-3.928-7.375-8.033-7.384-.804 0-1.58.129-2.314.365a10.443 10.443 0 002.423 3.815c2.167 2.186 5.067 3.248 7.924 3.204z" fill="url(#paint19_linear)"/><path d="M33.482 42.889a1.977 1.977 0 00-1.98-1.98 1.977 1.977 0 00-1.978 1.98l.009 3.63c1.313.009 2.626.009 3.94 0l.009-3.63z" fill="url(#paint20_linear)"/></g><defs><linearGradient id="paint0_linear" x1="-.3" y1="34" x2="66.497" y2="34" gradientUnits="userSpaceOnUse"><stop stop-color="#D5E6FF"/><stop stop-color="#F6F9FD"/><stop offset="0" stop-color="#FAFCFF"/><stop offset=".593" stop-color="#E7F3FF"/><stop offset="1" stop-color="#E1EAF9"/></linearGradient><linearGradient id="paint1_linear" x1=".216" y1="34" x2="67.013" y2="34" gradientUnits="userSpaceOnUse"><stop stop-color="#E6EEF3"/><stop offset="1" stop-color="#B0CCF9"/></linearGradient><linearGradient id="paint2_linear" x1="-9.539" y1="11.045" x2="81.133" y2="11.045" gradientUnits="userSpaceOnUse"><stop stop-color="#CDDEFA"/><stop offset="1" stop-color="#92B8F3"/></linearGradient><linearGradient id="paint3_linear" x1="57.063" y1="11.045" x2="69.854" y2="11.045" gradientUnits="userSpaceOnUse"><stop stop-color="#91B7F3"/><stop offset="1" stop-color="#78A1E2"/></linearGradient><linearGradient id="paint4_linear" x1="1.803" y1="11" x2="9.158" y2="11" gradientUnits="userSpaceOnUse"><stop stop-color="#CDDEFA"/><stop offset="1" stop-color="#92B8F3"/></linearGradient><linearGradient id="paint5_linear" x1="2.938" y1="11.001" x2="7.928" y2="11.001" gradientUnits="userSpaceOnUse"><stop stop-color="#B2CFFE"/><stop offset="1" stop-color="#6591D7"/></linearGradient><linearGradient id="paint6_linear" x1="8.254" y1="11" x2="15.609" y2="11" gradientUnits="userSpaceOnUse"><stop stop-color="#CDDEFA"/><stop offset="1" stop-color="#92B8F3"/></linearGradient><linearGradient id="paint7_linear" x1="9.915" y1="11.001" x2="13.657" y2="11.001" gradientUnits="userSpaceOnUse"><stop stop-color="#FAFCFF"/><stop offset=".593" stop-color="#CAE2FA"/><stop offset="1" stop-color="#BCD7F8"/></linearGradient><linearGradient id="paint8_linear" x1="14.706" y1="11" x2="22.061" y2="11" gradientUnits="userSpaceOnUse"><stop stop-color="#CDDEFA"/><stop offset="1" stop-color="#92B8F3"/></linearGradient><linearGradient id="paint9_linear" x1="16.366" y1="11.001" x2="20.108" y2="11.001" gradientUnits="userSpaceOnUse"><stop stop-color="#FAFCFF"/><stop offset=".593" stop-color="#CAE2FA"/><stop offset="1" stop-color="#BCD7F8"/></linearGradient><linearGradient id="paint10_linear" x1="24.951" y1="58.512" x2="35.031" y2="48.432" gradientUnits="userSpaceOnUse"><stop stop-color="#A3B6F8"/><stop offset=".211" stop-color="#728FDB"/><stop offset=".604" stop-color="#5C8CD7"/><stop offset="1" stop-color="#6499EC"/></linearGradient><linearGradient id="paint11_linear" x1="32.099" y1="49.883" x2="48.671" y2="33.31" gradientUnits="userSpaceOnUse"><stop stop-color="#7AA6EB"/><stop offset=".5" stop-color="#8DB6F3"/></linearGradient><linearGradient id="paint12_linear" x1="26.377" y1="51.825" x2="48.479" y2="29.723" gradientUnits="userSpaceOnUse"><stop stop-color="#99B9EB"/><stop offset=".5" stop-color="#BFD9FF"/></linearGradient><linearGradient id="paint13_linear" x1="31.503" y1="45.739" x2="31.503" y2="53.013" gradientUnits="userSpaceOnUse"><stop stop-color="#4C7EFF"/><stop offset=".24" stop-color="#5987FF" stop-opacity=".76"/><stop offset=".603" stop-color="#6993FF" stop-opacity=".397"/><stop offset=".866" stop-color="#74A3FF" stop-opacity=".134"/><stop offset="1" stop-color="#78AEFF" stop-opacity="0"/></linearGradient><linearGradient id="paint14_linear" x1="16.61" y1="52.405" x2="47.855" y2="21.161" gradientUnits="userSpaceOnUse"><stop stop-color="#6D9ADC"/><stop offset=".284" stop-color="#7FA9E8"/><stop offset="1" stop-color="#fff"/></linearGradient><linearGradient id="paint15_linear" x1="14.47" y1="51.582" x2="46.188" y2="19.864" gradientUnits="userSpaceOnUse"><stop stop-color="#7BA5E3"/><stop offset="1" stop-color="#fff"/></linearGradient><linearGradient id="paint16_linear" x1="12.814" y1="52.647" x2="40.293" y2="25.168" gradientUnits="userSpaceOnUse"><stop stop-color="#7BA5E3"/><stop offset="1" stop-color="#DEEBFF"/></linearGradient><linearGradient id="paint17_linear" x1="16.592" y1="52.197" x2="40.057" y2="28.731" gradientUnits="userSpaceOnUse"><stop stop-color="#7BA5E3"/><stop offset="1" stop-color="#fff"/></linearGradient><linearGradient id="paint18_linear" x1="12.652" y1="53.833" x2="36.453" y2="30.032" gradientUnits="userSpaceOnUse"><stop stop-color="#7BA5E3"/><stop offset="1" stop-color="#ECF4FF"/></linearGradient><linearGradient id="paint19_linear" x1="14.745" y1="51.035" x2="34.186" y2="31.594" gradientUnits="userSpaceOnUse"><stop stop-color="#7BA5E3"/><stop offset="1" stop-color="#DEEBFF"/></linearGradient><linearGradient id="paint20_linear" x1="26.776" y1="49.015" x2="39.264" y2="36.527" gradientUnits="userSpaceOnUse"><stop stop-color="#6B95D3"/><stop offset=".5" stop-color="#93BBF5"/><stop offset="1" stop-color="#fff"/></linearGradient><clipPath id="clip0"><path fill="#fff" transform="translate(.002)" d="M0 0h68v68H0z"/></clipPath></defs></svg>