<svg width="69" height="68" fill="none" xmlns="http://www.w3.org/2000/svg"><path d="M14.39 62.469c7.55 7.415 19.681 7.375 27.18-.123l20.777-20.778c7.499-7.498 7.54-19.63.124-27.179l-.03-.033-.094-.094-1.365-1.365a6.562 6.562 0 00-9.28 0l-2.379 2.38a6.561 6.561 0 000 9.28l1.459 1.458c.071.071.145.137.222.198 1.957 1.54 2.89 4.065 2.153 6.443a11.77 11.77 0 01-2.93 4.845L37.501 50.225a11.77 11.77 0 01-4.845 2.93c-2.377.738-4.903-.196-6.443-2.152a2.496 2.496 0 00-.197-.223l-1.46-1.459a6.562 6.562 0 00-9.279 0l-2.38 2.38a6.562 6.562 0 000 9.28l1.366 1.365.093.093.034.03z" fill="url(#paint0_linear)"/><path d="M13.208.002h20.098c7.293 0 13.205 5.913 13.205 13.207v5.506c0 5.132-2.927 9.58-7.204 11.766v7.68c0 1.993-2.409 2.991-3.818 1.582l-7.822-7.822H13.208C5.915 31.921.002 26.008.002 18.715v-5.506C.002 5.915 5.915.002 13.208.002z" fill="url(#paint1_linear)"/><path d="M33.306 0H27.97c7.293 0 13.206 5.912 13.206 13.206v5.506a13.19 13.19 0 01-5.667 10.843c-.974.679-1.537 1.806-1.537 2.994v5.61l-.003.06 1.52 1.52c1.41 1.41 3.819.412 3.819-1.58v-7.681a13.205 13.205 0 007.204-11.766v-5.506C46.512 5.912 40.599 0 33.306 0z" fill="url(#paint2_linear)"/><path d="M62.471 14.39l-.03-.034-.093-.094-1.365-1.365a6.563 6.563 0 00-7.308-1.355 6.541 6.541 0 011.972 1.355l1.365 1.365.094.094.03.033c7.415 7.55 7.375 19.681-.124 27.18L36.235 62.346a19.219 19.219 0 01-10.988 5.47c5.789.805 11.872-1.018 16.324-5.47L62.348 41.57c7.499-7.499 7.539-19.63.123-27.18z" fill="url(#paint3_linear)"/><path d="M22.16 52.47c3.615 3.47 9.343 3.408 12.886-.136l.445-.445-.071-.004c-.874.548-1.803.972-2.762 1.27-1.452.45-2.959.278-4.263-.37a.497.497 0 00-.023-.013 6.422 6.422 0 01-2.157-1.77 2.527 2.527 0 00-.198-.222l-1.459-1.459a6.563 6.563 0 00-7.308-1.355c.313.14 2.52 2.212 4.91 4.505z" fill="url(#paint4_linear)"/><path d="M28.035 16.222c-1.99 1.556-2.027 2.642-2.027 4.524 0 .688-.362 1.484-2.135 1.484-1.484 0-1.99-.543-1.99-2.425 0-3.112 1.375-4.596 2.424-5.5 1.195-1.014 3.221-2.136 3.221-4.09 0-1.665-1.447-2.46-3.257-2.46-3.691 0-2.895 2.786-4.85 2.786-.976 0-2.17-.652-2.17-2.063 0-1.954 2.243-4.85 7.128-4.85 4.633 0 7.709 2.57 7.709 5.972 0 3.402-3.076 5.862-4.053 6.622zm-1.34 11.291c0 1.484-1.23 2.787-2.786 2.787s-2.75-1.303-2.75-2.787c0-1.52 1.23-2.786 2.75-2.786s2.787 1.267 2.787 2.786z" fill="url(#paint5_linear)"/><path d="M26.622 14.792c-1.99 1.556-2.026 2.642-2.026 4.524 0 .688-.362 1.484-2.135 1.484-1.484 0-1.99-.543-1.99-2.425 0-3.112 1.375-4.596 2.424-5.5 1.194-1.014 3.22-2.136 3.22-4.09 0-1.665-1.447-2.46-3.256-2.46-3.692 0-2.895 2.786-4.85 2.786-.977 0-2.171-.652-2.171-2.063 0-1.954 2.244-4.85 7.13-4.85 4.631 0 7.707 2.57 7.707 5.972 0 3.402-3.076 5.862-4.053 6.622zm-1.339 11.291c0 1.484-1.23 2.787-2.786 2.787s-2.75-1.303-2.75-2.787c0-1.52 1.23-2.786 2.75-2.786s2.786 1.266 2.786 2.786z" fill="url(#paint6_linear)"/><defs><linearGradient id="paint0_linear" x1="18.11" y1="39.488" x2="72.755" y2="39.488" gradientUnits="userSpaceOnUse"><stop stop-color="#C0D5FF"/><stop offset=".548" stop-color="#94BBF4"/><stop offset="1" stop-color="#93B4F5"/></linearGradient><linearGradient id="paint1_linear" x1=".285" y1="20.203" x2="50.769" y2="20.203" gradientUnits="userSpaceOnUse"><stop stop-color="#ECF5FE"/><stop offset=".593" stop-color="#C5DFFA"/><stop offset="1" stop-color="#AFCCF4"/></linearGradient><linearGradient id="paint2_linear" x1="18.742" y1="20.2" x2="38.54" y2="20.2" gradientUnits="userSpaceOnUse"><stop stop-color="#ECF5FE"/><stop offset="1" stop-color="#9BB9F7"/></linearGradient><linearGradient id="paint3_linear" x1="27.54" y1="39.489" x2="72.064" y2="39.489" gradientUnits="userSpaceOnUse"><stop stop-color="#7BA8EB"/><stop offset="1" stop-color="#8AABEE"/></linearGradient><linearGradient id="paint4_linear" x1="19.869" y1="51.217" x2="48.608" y2="51.217" gradientUnits="userSpaceOnUse"><stop stop-color="#7BA8EB"/><stop offset="1" stop-color="#87AAED"/></linearGradient><linearGradient id="paint5_linear" x1="17.25" y1="16.964" x2="32.088" y2="16.964" gradientUnits="userSpaceOnUse"><stop stop-color="#A8CAF5"/><stop offset="1" stop-color="#B7CFF1"/></linearGradient><linearGradient id="paint6_linear" x1="15.838" y1="15.534" x2="30.675" y2="15.534" gradientUnits="userSpaceOnUse"><stop stop-color="#5C8CD7"/><stop offset=".593" stop-color="#81A3DD"/><stop offset="1" stop-color="#5C8CD7"/></linearGradient></defs></svg>