<svg width="69" height="68" fill="none" xmlns="http://www.w3.org/2000/svg"><g clip-path="url(#clip0)"><path d="M63.23 62.148H3.743A4.256 4.256 0 01-.513 57.89V10.11a4.256 4.256 0 014.256-4.257H63.23a4.256 4.256 0 014.257 4.257v47.78a4.256 4.256 0 01-4.257 4.257z" fill="url(#paint0_linear)"/><path d="M63.746 5.853H4.258A4.256 4.256 0 00.002 10.11v9.462h62.53v38.32a4.256 4.256 0 01-4.256 4.256h5.47a4.256 4.256 0 004.256-4.257V10.11a4.256 4.256 0 00-4.256-4.256z" fill="url(#paint1_linear)"/><path d="M68.002 16.237h-68V10.11a4.256 4.256 0 014.256-4.257h59.488a4.256 4.256 0 014.256 4.257v6.127z" fill="url(#paint2_linear)"/><path d="M63.746 5.853h-5.337a4.256 4.256 0 014.257 4.257v6.127h5.336V10.11a4.256 4.256 0 00-4.256-4.257z" fill="url(#paint3_linear)"/><path d="M5.336 13.759a2.758 2.758 0 100-5.516 2.758 2.758 0 000 5.516z" fill="url(#paint4_linear)"/><path d="M5.336 12.872a1.871 1.871 0 100-3.742 1.871 1.871 0 000 3.742z" fill="url(#paint5_linear)"/><path d="M11.787 13.759a2.758 2.758 0 100-5.516 2.758 2.758 0 000 5.516z" fill="url(#paint6_linear)"/><path d="M11.787 12.872a1.871 1.871 0 100-3.742 1.871 1.871 0 000 3.742z" fill="url(#paint7_linear)"/><path d="M18.238 13.759a2.758 2.758 0 100-5.516 2.758 2.758 0 000 5.516z" fill="url(#paint8_linear)"/><path d="M18.238 12.872a1.871 1.871 0 100-3.742 1.871 1.871 0 000 3.742z" fill="url(#paint9_linear)"/><g clip-path="url(#clip1)"><path d="M38.355 45.154a10.89 10.89 0 00-3.094 6.767.847.847 0 01-.845.778h-6.829a.847.847 0 01-.845-.778 10.89 10.89 0 00-3.093-6.767.844.844 0 01-.119-1.065l6.627-9.939.743 1.319.102-.136.845-1.183 6.626 9.94c.22.337.17.794-.118 1.064z" fill="url(#paint10_linear)"/><path d="M38.355 45.154a10.889 10.889 0 00-3.093 6.767.847.847 0 01-.846.778h-3.414V35.333l.845-1.183 6.626 9.94c.22.337.17.794-.118 1.064z" fill="url(#paint11_linear)"/><path d="M32.692 50.535h-3.38a4.227 4.227 0 00-4.226 4.226c0 .473.372.845.845.845h10.142a.837.837 0 00.845-.845 4.227 4.227 0 00-4.226-4.226z" fill="#92ABD0"/><path d="M36.918 54.76a.837.837 0 01-.845.846h-5.071v-5.07h1.69a4.227 4.227 0 014.226 4.225z" fill="#7C9AC5"/><path d="M41.99 29.293a.837.837 0 01-.846.845H20.86a.837.837 0 01-.845-.845c0-.473.372-.845.845-.845h20.284c.473 0 .845.372.845.845z" fill="#C5DFFA"/><path d="M41.989 29.293a.837.837 0 01-.845.845H31.002v-1.69h10.142c.473 0 .845.372.845.845z" fill="#ABC7E4"/><path d="M20.86 40.28a.845.845 0 01-.845-.845c0-5.391 3.853-9.949 9.163-10.836a.845.845 0 11.279 1.667 9.262 9.262 0 00-7.752 9.17.845.845 0 01-.845.844z" fill="#C5DFFA"/><path d="M41.144 40.28a.845.845 0 01-.845-.845 9.262 9.262 0 00-7.752-9.169.845.845 0 01-.694-.973.841.841 0 01.973-.694 10.947 10.947 0 019.163 10.836.845.845 0 01-.845.845z" fill="#ABC7E4"/><path d="M20.86 43.661a2.538 2.538 0 01-2.536-2.535 2.538 2.538 0 012.536-2.536 2.538 2.538 0 012.535 2.535 2.538 2.538 0 01-2.535 2.536z" fill="#8CB6F0"/><path d="M20.86 41.97a.846.846 0 010-1.69.846.846 0 010 1.69z" fill="#E1F1FA"/><path d="M41.144 43.661a2.538 2.538 0 01-2.536-2.535 2.538 2.538 0 012.536-2.536 2.538 2.538 0 012.535 2.535 2.538 2.538 0 01-2.535 2.536z" fill="#5C8CD7"/><path d="M41.144 41.97a.846.846 0 010-1.69.846.846 0 010 1.69z" fill="#BFE1FF"/><path d="M31.002 26.758a2.532 2.532 0 00-2.536 2.535 2.532 2.532 0 002.536 2.536 2.532 2.532 0 002.535-2.536 2.532 2.532 0 00-2.535-2.535zm-10.199 5.071h-3.38a.845.845 0 01-.845-.846v-3.38c0-.467.378-.845.845-.845h3.38c.468 0 .846.378.846.845v3.38a.845.845 0 01-.846.846z" fill="#8CB6F0"/><path d="M19.958 28.448h-1.69v1.69h1.69v-1.69z" fill="#E1F1FA"/><path d="M44.581 31.829h-3.38a.845.845 0 01-.846-.846v-3.38c0-.467.378-.845.845-.845h3.381c.467 0 .845.378.845.845v3.38a.845.845 0 01-.845.846z" fill="#5C8CD7"/><path d="M43.736 28.448h-1.69v1.69h1.69v-1.69z" fill="#BFE1FF"/><path d="M31.002 42.027a2.532 2.532 0 00-2.536 2.535 2.532 2.532 0 002.536 2.536 2.532 2.532 0 002.535-2.535 2.532 2.532 0 00-2.535-2.536z" fill="#92ABD0"/><path d="M31.847 34.15v8.722a.837.837 0 01-.845.845.837.837 0 01-.845-.845V34.15l.135-.203a.865.865 0 01.71-.355c.27 0 .54.118.71.355l.135.203z" fill="#92ABD0"/><path d="M31.002 31.829v-5.071a2.532 2.532 0 012.535 2.535 2.532 2.532 0 01-2.535 2.536z" fill="#5C8CD7"/><path d="M31.002 30.138a.846.846 0 010-1.69.846.846 0 010 1.69z" fill="#E1F1FA"/><path d="M31.847 29.293a.846.846 0 00-.845-.845v1.69a.846.846 0 00.845-.845z" fill="#BFE1FF"/><path d="M31.002 43.717V33.592c.27 0 .54.118.71.355l.135.203v8.722a.837.837 0 01-.845.845z" fill="#7C9AC5"/><path d="M33.537 44.563a2.532 2.532 0 01-2.535 2.535v-5.071a2.532 2.532 0 012.535 2.535z" fill="#7C9AC5"/></g></g><defs><linearGradient id="paint0_linear" x1="-.3" y1="34" x2="66.498" y2="34" gradientUnits="userSpaceOnUse"><stop stop-color="#D5E6FF"/><stop stop-color="#F6F9FD"/><stop offset="0" stop-color="#FAFCFF"/><stop offset=".593" stop-color="#E7F3FF"/><stop offset="1" stop-color="#E1EAF9"/></linearGradient><linearGradient id="paint1_linear" x1=".216" y1="34" x2="67.013" y2="34" gradientUnits="userSpaceOnUse"><stop stop-color="#E6EEF3"/><stop offset="1" stop-color="#B0CCF9"/></linearGradient><linearGradient id="paint2_linear" x1="-9.539" y1="11.045" x2="81.133" y2="11.045" gradientUnits="userSpaceOnUse"><stop stop-color="#CDDEFA"/><stop offset="1" stop-color="#92B8F3"/></linearGradient><linearGradient id="paint3_linear" x1="57.064" y1="11.045" x2="69.854" y2="11.045" gradientUnits="userSpaceOnUse"><stop stop-color="#91B7F3"/><stop offset="1" stop-color="#78A1E2"/></linearGradient><linearGradient id="paint4_linear" x1="1.804" y1="11.001" x2="9.159" y2="11.001" gradientUnits="userSpaceOnUse"><stop stop-color="#CDDEFA"/><stop offset="1" stop-color="#92B8F3"/></linearGradient><linearGradient id="paint5_linear" x1="2.939" y1="11.001" x2="7.929" y2="11.001" gradientUnits="userSpaceOnUse"><stop stop-color="#B2CFFE"/><stop offset="1" stop-color="#6591D7"/></linearGradient><linearGradient id="paint6_linear" x1="8.255" y1="11.001" x2="15.61" y2="11.001" gradientUnits="userSpaceOnUse"><stop stop-color="#CDDEFA"/><stop offset="1" stop-color="#92B8F3"/></linearGradient><linearGradient id="paint7_linear" x1="9.916" y1="11.001" x2="13.658" y2="11.001" gradientUnits="userSpaceOnUse"><stop stop-color="#FAFCFF"/><stop offset=".593" stop-color="#CAE2FA"/><stop offset="1" stop-color="#BCD7F8"/></linearGradient><linearGradient id="paint8_linear" x1="14.706" y1="11.001" x2="22.061" y2="11.001" gradientUnits="userSpaceOnUse"><stop stop-color="#CDDEFA"/><stop offset="1" stop-color="#92B8F3"/></linearGradient><linearGradient id="paint9_linear" x1="16.367" y1="11.001" x2="20.109" y2="11.001" gradientUnits="userSpaceOnUse"><stop stop-color="#FAFCFF"/><stop offset=".593" stop-color="#CAE2FA"/><stop offset="1" stop-color="#BCD7F8"/></linearGradient><linearGradient id="paint10_linear" x1="23.274" y1="43.242" x2="31.002" y2="43.242" gradientUnits="userSpaceOnUse"><stop stop-color="#AECAF5"/><stop offset="0" stop-color="#96BCF5"/><stop offset="1" stop-color="#C0D5FF"/></linearGradient><linearGradient id="paint11_linear" x1="31.953" y1="43.424" x2="39.244" y2="43.424" gradientUnits="userSpaceOnUse"><stop stop-color="#C0D5FF"/><stop offset=".548" stop-color="#94BBF4"/><stop offset="1" stop-color="#93B4F5"/></linearGradient><clipPath id="clip0"><path fill="#fff" transform="translate(.002)" d="M0 0h68v68H0z"/></clipPath><clipPath id="clip1"><path fill="#fff" transform="translate(16.578 26.758)" d="M0 0h28.849v28.849H0z"/></clipPath></defs></svg>