<svg width="69" height="68" fill="none" xmlns="http://www.w3.org/2000/svg"><g clip-path="url(#clip0)"><path d="M61.336 11.334H6.669V7.8a3.133 3.133 0 013.133-3.133h48.4A3.133 3.133 0 0161.336 7.8v3.534z" fill="url(#paint0_linear)"/><path d="M64.669 17.333H3.336V13.8a3.133 3.133 0 013.133-3.133h55.067a3.133 3.133 0 013.133 3.133v3.533z" fill="url(#paint1_linear)"/><path d="M63.746 63.333H4.259a4.256 4.256 0 01-4.257-4.257V20.922a4.256 4.256 0 014.257-4.256h59.487a4.256 4.256 0 014.256 4.256v38.154a4.256 4.256 0 01-4.256 4.257z" fill="url(#paint2_linear)"/><path d="M63.746 16.666h-5.47a4.256 4.256 0 014.256 4.256v38.154a4.256 4.256 0 01-4.256 4.257h5.47a4.256 4.256 0 004.256-4.256V20.922a4.256 4.256 0 00-4.256-4.257z" fill="url(#paint3_linear)"/><path d="M5.168 27.908c2.16-.788 3.871-2.535 4.64-4.739.394-1.13 1.483-1.869 2.68-1.869h43.03c1.196 0 2.285.74 2.679 1.87.768 2.203 2.48 3.95 4.64 4.738 1.111.405 1.832 1.485 1.832 2.668v18.847c0 1.183-.721 2.263-1.832 2.668-2.16.788-3.872 2.535-4.64 4.739-.394 1.13-1.483 1.869-2.68 1.869h-43.03c-1.196 0-2.285-.74-2.679-1.87-.769-2.203-2.48-3.95-4.64-4.738-1.111-.405-1.832-1.485-1.832-2.668V30.576c0-1.183.72-2.263 1.832-2.668z" fill="url(#paint4_linear)"/><path d="M34.002 53.333c7.364 0 13.334-5.97 13.334-13.334 0-7.363-5.97-13.333-13.334-13.333S20.67 32.636 20.67 40s5.97 13.334 13.333 13.334z" fill="url(#paint5_linear)"/><path d="M34.002 26.666c-.913 0-1.806.092-2.668.267C37.42 28.17 42 33.55 42 40s-4.58 11.83-10.665 13.066c.862.175 1.755.268 2.668.268 7.364 0 13.334-5.97 13.334-13.334 0-7.363-5.97-13.333-13.334-13.333z" fill="url(#paint6_linear)"/><path d="M15.047 37.666h-6a2.333 2.333 0 100 4.667h6a2.333 2.333 0 100-4.667z" fill="url(#paint7_linear)"/><path d="M58.958 37.666h-6a2.333 2.333 0 100 4.667h6a2.333 2.333 0 100-4.667z" fill="url(#paint8_linear)"/><path d="M62.837 27.908a7.49 7.49 0 01-.305-.121v24.425c.101-.041.202-.083.305-.12 1.11-.406 1.832-1.486 1.832-2.669V30.576c0-1.183-.721-2.263-1.832-2.668z" fill="url(#paint9_linear)"/><g clip-path="url(#clip1)"><path d="M34.471 53.462c7.382 0 13.366-5.984 13.366-13.365 0-7.382-5.984-13.366-13.366-13.366-7.381 0-13.365 5.984-13.365 13.366 0 7.381 5.984 13.365 13.365 13.365z" fill="url(#paint10_linear)"/><path d="M34.471 26.731c-.353 0-.702.014-1.049.04 6.892.536 12.317 6.297 12.317 13.326 0 7.028-5.425 12.79-12.317 13.324.347.027.696.041 1.05.041 7.38 0 13.365-5.984 13.365-13.365 0-7.382-5.984-13.366-13.366-13.366z" fill="url(#paint11_linear)"/><path d="M34.471 49.537a9.44 9.44 0 100-18.88 9.44 9.44 0 000 18.88z" fill="url(#paint12_linear)"/><path d="M34.471 30.657c-.354 0-.704.02-1.049.058 4.72.522 8.392 4.523 8.392 9.382s-3.672 8.86-8.392 9.382a9.44 9.44 0 101.049-18.822z" fill="url(#paint13_linear)"/><path d="M35.34 38.665v-2.613c1.163.09 1.503.662 2.093.662.788 0 1.11-.984 1.11-1.468 0-1.235-2.094-1.52-3.204-1.557v-.447c0-.25-.34-.483-.68-.483-.394 0-.68.232-.68.483v.501c-1.897.268-3.58 1.36-3.58 3.633 0 2.291 1.933 3.06 3.58 3.687v2.9c-1.324-.233-1.933-1.29-2.685-1.29-.68 0-1.217.896-1.217 1.504 0 1.146 1.754 2.255 3.902 2.327v.447c0 .25.286.483.68.483.34 0 .68-.232.68-.483v-.519c2.094-.34 3.526-1.682 3.526-3.901 0-2.416-1.897-3.258-3.526-3.866zm-1.182-.43c-.68-.286-1.145-.608-1.145-1.127 0-.43.34-.841 1.145-1.002v2.13zm1.002 5.71v-2.399c.645.304 1.092.68 1.092 1.271 0 .644-.483.984-1.092 1.127z" fill="url(#paint14_linear)"/></g></g><defs><linearGradient id="paint0_linear" x1="6.669" y1="8" x2="61.336" y2="8" gradientUnits="userSpaceOnUse"><stop stop-color="#FAFCFF"/><stop offset=".593" stop-color="#CAE2FA"/><stop offset="1" stop-color="#BCD7F8"/></linearGradient><linearGradient id="paint1_linear" x1="3.336" y1="14" x2="64.669" y2="14" gradientUnits="userSpaceOnUse"><stop stop-color="#DCEDFF"/><stop offset=".593" stop-color="#B4D9FD"/><stop offset="1" stop-color="#9BC7FD"/></linearGradient><linearGradient id="paint2_linear" x1="-9.538" y1="39.999" x2="81.134" y2="39.999" gradientUnits="userSpaceOnUse"><stop stop-color="#98C0FE"/><stop offset="1" stop-color="#6591D7"/></linearGradient><linearGradient id="paint3_linear" x1="53.469" y1="39.999" x2="67.203" y2="39.999" gradientUnits="userSpaceOnUse"><stop stop-color="#7495C9"/><stop offset=".609" stop-color="#6690D0"/><stop offset="1" stop-color="#6691D0"/></linearGradient><linearGradient id="paint4_linear" x1="71.102" y1="39.999" x2="-3.042" y2="39.999" gradientUnits="userSpaceOnUse"><stop stop-color="#98C5FF"/><stop offset=".354" stop-color="#95C5FB"/><stop offset="1" stop-color="#B7D6F8"/></linearGradient><linearGradient id="paint5_linear" x1="20.669" y1="39.999" x2="47.336" y2="39.999" gradientUnits="userSpaceOnUse"><stop stop-color="#FAFCFF"/><stop offset=".593" stop-color="#CAE2FA"/><stop offset="1" stop-color="#BCD7F8"/></linearGradient><linearGradient id="paint6_linear" x1="33.336" y1="39.999" x2="48.67" y2="39.999" gradientUnits="userSpaceOnUse"><stop stop-color="#C0D5FF"/><stop offset=".548" stop-color="#94BBF4"/><stop offset="1" stop-color="#93B4F5"/></linearGradient><linearGradient id="paint7_linear" x1="6.713" y1="40" x2="17.38" y2="40" gradientUnits="userSpaceOnUse"><stop stop-color="#FAFCFF"/><stop offset=".593" stop-color="#CAE2FA"/><stop offset="1" stop-color="#BCD7F8"/></linearGradient><linearGradient id="paint8_linear" x1="50.625" y1="40" x2="61.291" y2="40" gradientUnits="userSpaceOnUse"><stop stop-color="#FAFCFF"/><stop offset=".593" stop-color="#CAE2FA"/><stop offset="1" stop-color="#BCD7F8"/></linearGradient><linearGradient id="paint9_linear" x1="50.935" y1="40" x2="62.536" y2="40" gradientUnits="userSpaceOnUse"><stop stop-color="#09A755"/><stop offset=".608" stop-color="#01998D"/><stop offset="1" stop-color="#3E639B"/></linearGradient><linearGradient id="paint10_linear" x1="21.106" y1="40.097" x2="47.837" y2="40.097" gradientUnits="userSpaceOnUse"><stop stop-color="#FAFCFF"/><stop offset=".593" stop-color="#CAE2FA"/><stop offset="1" stop-color="#BCD7F8"/></linearGradient><linearGradient id="paint11_linear" x1="35.225" y1="40.097" x2="49.038" y2="40.097" gradientUnits="userSpaceOnUse"><stop stop-color="#C8DAFF"/><stop offset=".548" stop-color="#A7CAFF"/><stop offset="1" stop-color="#93B4F5"/></linearGradient><linearGradient id="paint12_linear" x1="27.393" y1="40.097" x2="45.485" y2="40.097" gradientUnits="userSpaceOnUse"><stop stop-color="#C0D5FF"/><stop offset=".548" stop-color="#94BBF4"/><stop offset="1" stop-color="#93B4F5"/></linearGradient><linearGradient id="paint13_linear" x1="31.169" y1="40.097" x2="45.854" y2="40.097" gradientUnits="userSpaceOnUse"><stop stop-color="#BCD3F7"/><stop offset="1" stop-color="#6895DB"/></linearGradient><linearGradient id="paint14_linear" x1="30.077" y1="40.097" x2="38.865" y2="40.097" gradientUnits="userSpaceOnUse"><stop stop-color="#FAFCFF"/><stop offset=".593" stop-color="#CAE2FA"/><stop offset="1" stop-color="#BCD7F8"/></linearGradient><clipPath id="clip0"><path fill="#fff" transform="translate(.002)" d="M0 0h68v68H0z"/></clipPath><clipPath id="clip1"><path fill="#fff" transform="translate(21.106 26.731)" d="M0 0h26.731v26.731H0z"/></clipPath></defs></svg>