<svg width="71" height="70" fill="none" xmlns="http://www.w3.org/2000/svg"><g clip-path="url(#clip0)"><path d="M35.002 67.932c-8.796 0-17.066-3.425-23.286-9.645C5.496 52.067 2.07 43.797 2.07 35c0-8.796 3.426-17.066 9.646-23.287 6.22-6.22 14.49-9.645 23.286-9.645 8.797 0 17.067 3.425 23.287 9.646 6.22 6.22 9.645 14.49 9.645 23.286 0 8.797-3.425 17.067-9.645 23.287-6.22 6.22-14.49 9.645-23.287 9.645zm0-63.105c-7.73 0-15.46 2.943-21.345 8.828-11.77 11.77-11.77 30.92 0 42.69 5.884 5.885 13.616 8.827 21.345 8.828 7.731 0 15.46-2.942 21.346-8.827 11.77-11.77 11.77-30.921 0-42.691-5.885-5.885-13.615-8.828-21.346-8.828z" fill="url(#paint0_linear)"/><path d="M35.002 63.55c15.767 0 28.55-12.783 28.55-28.55 0-15.767-12.782-28.549-28.55-28.549-15.767 0-28.549 12.782-28.549 28.55 0 15.766 12.782 28.548 28.55 28.548z" fill="url(#paint1_linear)"/><path d="M55.19 14.813c-6.275-6.274-14.742-9.017-22.934-8.23a28.431 28.431 0 0117.44 8.23c5.903 5.903 8.68 13.748 8.332 21.479a2.968 2.968 0 00-.422 3.773 28.415 28.415 0 01-7.91 15.122 28.431 28.431 0 01-17.44 8.23c8.192.787 16.66-1.956 22.933-8.23 11.15-11.149 11.15-29.225 0-40.374z" fill="url(#paint2_linear)"/><path d="M35.002 57.116c12.215 0 22.116-9.902 22.116-22.116s-9.901-22.116-22.116-22.116c-12.214 0-22.116 9.902-22.116 22.116s9.902 22.116 22.116 22.116z" fill="url(#paint3_linear)"/><path d="M50.64 19.361c-.63-.63-1.29-1.213-1.973-1.751 6.837 8.68 6.255 21.297-1.752 29.303-8.006 8.006-20.624 8.59-29.303 1.752.363.461.747.912 1.152 1.35.195.21.395.281.6.486 8.636 8.637 22.64 8.637 31.276 0 .205-.205.405-.275.6-.486 8.032-8.674 7.832-22.221-.6-30.654z" fill="url(#paint4_linear)"/><path d="M35.002 38.557c6.023 0 10.905-4.882 10.905-10.904s-4.882-10.904-10.905-10.904c-6.022 0-10.904 4.882-10.904 10.904s4.882 10.904 10.904 10.904z" fill="url(#paint5_linear)"/><path d="M19.364 50.638c8.636 8.637 22.64 8.637 31.276 0 .205-.204.404-.413.599-.624-2.964-5.97-9.12-10.073-16.237-10.073-7.116 0-13.273 4.104-16.237 10.073.195.21.394.42.599.624z" fill="url(#paint6_linear)"/><path d="M51.239 50.014a18.163 18.163 0 00-3.1-4.429 22.09 22.09 0 01-1.224 1.328c-7.601 7.602-19.36 8.51-27.957 2.73-.065.123-.13.246-.192.371.195.21.393.42.598.624 8.637 8.637 22.64 8.637 31.277 0 .205-.204.403-.413.598-.624z" fill="url(#paint7_linear)"/><path d="M35.002 0a2.977 2.977 0 00-2.976 2.977v6.93a2.977 2.977 0 105.953 0v-6.93A2.977 2.977 0 0035.002 0z" fill="url(#paint8_linear)"/><path d="M35.002 57.116a2.977 2.977 0 00-2.976 2.977v6.93a2.977 2.977 0 105.953 0v-6.93a2.977 2.977 0 00-2.977-2.977z" fill="url(#paint9_linear)"/><path d="M60.095 32.023h6.93a2.977 2.977 0 110 5.954h-6.93a2.977 2.977 0 110-5.954z" fill="url(#paint10_linear)"/><path d="M2.979 32.023h6.93a2.977 2.977 0 110 5.954H2.98a2.977 2.977 0 110-5.954z" fill="url(#paint11_linear)"/></g><defs><linearGradient id="paint0_linear" x1="12.492" y1="35" x2="57.668" y2="35" gradientUnits="userSpaceOnUse"><stop stop-color="#ECF5FE"/><stop offset="1" stop-color="#BEDDFC"/></linearGradient><linearGradient id="paint1_linear" x1="6.179" y1="35" x2="58.491" y2="35" gradientUnits="userSpaceOnUse"><stop stop-color="#BBD6FF"/><stop offset="1" stop-color="#6998E7"/></linearGradient><linearGradient id="paint2_linear" x1="27.865" y1="35" x2="69.594" y2="35" gradientUnits="userSpaceOnUse"><stop stop-color="#568DE2"/><stop offset="1" stop-color="#6591D7"/></linearGradient><linearGradient id="paint3_linear" x1="13.865" y1="35" x2="56.12" y2="35" gradientUnits="userSpaceOnUse"><stop stop-color="#C1DCF9"/><stop offset=".292" stop-color="#A9CFF7"/><stop offset=".593" stop-color="#9ACAFE"/><stop offset="1" stop-color="#74A5ED"/></linearGradient><linearGradient id="paint4_linear" x1="17.296" y1="37.294" x2="51.754" y2="37.294" gradientUnits="userSpaceOnUse"><stop stop-color="#B5D1FA"/><stop offset=".548" stop-color="#DFEDFF"/><stop offset="1" stop-color="#5C8FD6"/></linearGradient><linearGradient id="paint5_linear" x1="24.098" y1="27.653" x2="45.907" y2="27.653" gradientUnits="userSpaceOnUse"><stop stop-color="#FAFCFF"/><stop offset=".593" stop-color="#CAE2FA"/><stop offset="1" stop-color="#BCD7F8"/></linearGradient><linearGradient id="paint6_linear" x1="18.765" y1="48.529" x2="51.239" y2="48.529" gradientUnits="userSpaceOnUse"><stop stop-color="#FAFCFF"/><stop offset=".593" stop-color="#CAE2FA"/><stop offset="1" stop-color="#BCD7F8"/></linearGradient><linearGradient id="paint7_linear" x1="18.766" y1="51.351" x2="51.239" y2="51.351" gradientUnits="userSpaceOnUse"><stop stop-color="#C5DFFA"/><stop offset=".593" stop-color="#BADCFD"/><stop offset="1" stop-color="#95C2F9"/></linearGradient><linearGradient id="paint8_linear" x1="32.026" y1="6.442" x2="37.979" y2="6.442" gradientUnits="userSpaceOnUse"><stop stop-color="#FAFCFF"/><stop offset=".593" stop-color="#CAE2FA"/><stop offset="1" stop-color="#BCD7F8"/></linearGradient><linearGradient id="paint9_linear" x1="32.026" y1="63.558" x2="37.979" y2="63.558" gradientUnits="userSpaceOnUse"><stop stop-color="#FAFCFF"/><stop offset=".593" stop-color="#CAE2FA"/><stop offset="1" stop-color="#BCD7F8"/></linearGradient><linearGradient id="paint10_linear" x1="57.118" y1="35" x2="70.002" y2="35" gradientUnits="userSpaceOnUse"><stop stop-color="#FAFCFF"/><stop offset=".593" stop-color="#CAE2FA"/><stop offset="1" stop-color="#BCD7F8"/></linearGradient><linearGradient id="paint11_linear" x1=".002" y1="35" x2="12.886" y2="35" gradientUnits="userSpaceOnUse"><stop stop-color="#FAFCFF"/><stop offset=".593" stop-color="#CAE2FA"/><stop offset="1" stop-color="#BCD7F8"/></linearGradient><clipPath id="clip0"><path fill="#fff" transform="translate(.002)" d="M0 0h70v70H0z"/></clipPath></defs></svg>