<svg width="69" height="68" fill="none" xmlns="http://www.w3.org/2000/svg"><g clip-path="url(#clip0)"><path d="M63.746 66.748H4.259A4.256 4.256 0 01.002 62.49V14.71a4.256 4.256 0 014.257-4.256h59.487a4.256 4.256 0 014.256 4.256v47.782a4.256 4.256 0 01-4.256 4.257z" fill="url(#paint0_linear)"/><path d="M63.746 10.453H4.259a4.256 4.256 0 00-4.257 4.256v12.87h62.53v34.912a4.256 4.256 0 01-4.256 4.257h5.47a4.256 4.256 0 004.256-4.257V14.71a4.256 4.256 0 00-4.256-4.256z" fill="url(#paint1_linear)"/><path d="M68.002 24.245h-68v-9.536a4.256 4.256 0 014.257-4.256h59.487a4.256 4.256 0 014.256 4.256v9.536z" fill="url(#paint2_linear)"/><path d="M21.377 10.454v7.168a4.307 4.307 0 01-1.265 3.054 4.32 4.32 0 01-7.376-3.055v-7.168h8.641z" fill="url(#paint3_linear)"/><path d="M40.517 10.454v7.168a4.307 4.307 0 01-1.265 3.054 4.321 4.321 0 01-7.377-3.055v-7.168h8.642z" fill="url(#paint4_linear)"/><path d="M59.657 10.454v7.168a4.307 4.307 0 01-1.265 3.054 4.321 4.321 0 01-7.377-3.055v-7.168h8.642z" fill="url(#paint5_linear)"/><path d="M63.746 10.453H58.41a4.256 4.256 0 014.257 4.256v9.536h5.336v-9.536a4.256 4.256 0 00-4.257-4.256z" fill="url(#paint6_linear)"/><path d="M19.183 14.962V5.574a4.32 4.32 0 10-8.641 0v9.388a4.32 4.32 0 008.641 0z" fill="url(#paint7_linear)"/><path d="M14.863 1.252c-.591 0-1.155.12-1.668.334a4.322 4.322 0 012.654 3.987v9.388a4.322 4.322 0 01-2.654 3.987 4.32 4.32 0 005.988-3.987V5.573a4.32 4.32 0 00-4.32-4.32z" fill="url(#paint8_linear)"/><path d="M38.323 14.962V5.574a4.32 4.32 0 10-8.641 0v9.388a4.32 4.32 0 008.641 0z" fill="url(#paint9_linear)"/><path d="M34.002 1.252c-.59 0-1.154.12-1.667.334a4.322 4.322 0 012.654 3.987v9.388a4.322 4.322 0 01-2.654 3.987 4.32 4.32 0 005.988-3.987V5.573a4.32 4.32 0 00-4.32-4.32z" fill="url(#paint10_linear)"/><path d="M57.463 14.962V5.574a4.32 4.32 0 10-8.642 0v9.388a4.32 4.32 0 008.642 0z" fill="url(#paint11_linear)"/><path d="M53.142 1.252c-.59 0-1.154.12-1.667.334a4.322 4.322 0 012.654 3.987v9.388a4.322 4.322 0 01-2.654 3.987 4.32 4.32 0 005.988-3.987V5.573a4.32 4.32 0 00-4.32-4.32z" fill="url(#paint12_linear)"/><g opacity=".8"><path d="M16.507 42.74h-6.055a3.476 3.476 0 01-3.476-3.476v-3.217a3.476 3.476 0 013.476-3.476h6.055a3.476 3.476 0 013.476 3.476v3.217a3.476 3.476 0 01-3.476 3.476z" fill="url(#paint13_linear)"/><path d="M37.03 42.74h-6.055a3.476 3.476 0 01-3.476-3.476v-3.217a3.476 3.476 0 013.476-3.476h6.055a3.476 3.476 0 013.476 3.476v3.217a3.476 3.476 0 01-3.476 3.476z" fill="url(#paint14_linear)"/><path d="M57.553 42.74h-6.055a3.476 3.476 0 01-3.476-3.476v-3.217a3.476 3.476 0 013.476-3.476h6.055a3.476 3.476 0 013.475 3.476v3.217a3.476 3.476 0 01-3.475 3.476z" fill="url(#paint15_linear)"/></g><g opacity=".8"><path d="M16.507 59.467h-6.055a3.476 3.476 0 01-3.476-3.476v-3.217a3.476 3.476 0 013.476-3.476h6.055a3.476 3.476 0 013.476 3.476v3.217a3.476 3.476 0 01-3.476 3.476z" fill="url(#paint16_linear)"/><path d="M37.03 59.467h-6.055a3.476 3.476 0 01-3.476-3.476v-3.217a3.476 3.476 0 013.476-3.476h6.055a3.476 3.476 0 013.476 3.476v3.217a3.476 3.476 0 01-3.476 3.476z" fill="url(#paint17_linear)"/></g><path d="M53.84 59.015a1.42 1.42 0 01-2.138 0L48.39 55.39a1.768 1.768 0 010-2.34 1.42 1.42 0 012.138 0l1.973 2.16a.36.36 0 00.54 0l5.342-5.85a1.42 1.42 0 012.138 0c.283.31.442.732.442 1.17 0 .44-.159.86-.442 1.17l-6.682 7.316z" fill="url(#paint18_linear)"/></g><defs><linearGradient id="paint0_linear" x1=".216" y1="38.6" x2="67.013" y2="38.6" gradientUnits="userSpaceOnUse"><stop stop-color="#F2F9FF"/><stop offset="0" stop-color="#F2F9FF"/><stop offset=".593" stop-color="#F7F9FA"/><stop offset="1" stop-color="#D8EBFF"/></linearGradient><linearGradient id="paint1_linear" x1="-9.538" y1="38.6" x2="81.134" y2="38.6" gradientUnits="userSpaceOnUse"><stop stop-color="#D6E6FF"/><stop offset="1" stop-color="#90B6F0"/></linearGradient><linearGradient id="paint2_linear" x1="8.508" y1="17.349" x2="73.671" y2="17.349" gradientUnits="userSpaceOnUse"><stop stop-color="#ACD1F9"/><stop offset=".548" stop-color="#ABD0F9"/><stop offset="1" stop-color="#96C5FD"/></linearGradient><linearGradient id="paint3_linear" x1="11.524" y1="16.198" x2="23.046" y2="16.198" gradientUnits="userSpaceOnUse"><stop stop-color="#568DE2"/><stop offset="1" stop-color="#6591D7"/></linearGradient><linearGradient id="paint4_linear" x1="30.662" y1="16.198" x2="42.186" y2="16.198" gradientUnits="userSpaceOnUse"><stop stop-color="#568DE2"/><stop offset="1" stop-color="#6591D7"/></linearGradient><linearGradient id="paint5_linear" x1="49.802" y1="16.198" x2="61.326" y2="16.198" gradientUnits="userSpaceOnUse"><stop stop-color="#568DE2"/><stop offset="1" stop-color="#6591D7"/></linearGradient><linearGradient id="paint6_linear" x1="57.064" y1="17.349" x2="69.855" y2="17.349" gradientUnits="userSpaceOnUse"><stop stop-color="#568DE2"/><stop offset="1" stop-color="#6591D7"/></linearGradient><linearGradient id="paint7_linear" x1="10.542" y1="10.268" x2="19.183" y2="10.268" gradientUnits="userSpaceOnUse"><stop stop-color="#FAFCFF"/><stop offset=".593" stop-color="#CAE2FA"/><stop offset="1" stop-color="#BCD7F8"/></linearGradient><linearGradient id="paint8_linear" x1="13.944" y1="10.267" x2="19.683" y2="10.267" gradientUnits="userSpaceOnUse"><stop stop-color="#C0D5FF"/><stop offset=".548" stop-color="#94BBF4"/><stop offset="1" stop-color="#93B4F5"/></linearGradient><linearGradient id="paint9_linear" x1="29.682" y1="10.268" x2="38.323" y2="10.268" gradientUnits="userSpaceOnUse"><stop stop-color="#FAFCFF"/><stop offset=".593" stop-color="#CAE2FA"/><stop offset="1" stop-color="#BCD7F8"/></linearGradient><linearGradient id="paint10_linear" x1="33.084" y1="10.267" x2="38.822" y2="10.267" gradientUnits="userSpaceOnUse"><stop stop-color="#C0D5FF"/><stop offset=".548" stop-color="#94BBF4"/><stop offset="1" stop-color="#93B4F5"/></linearGradient><linearGradient id="paint11_linear" x1="48.822" y1="10.268" x2="57.463" y2="10.268" gradientUnits="userSpaceOnUse"><stop stop-color="#FAFCFF"/><stop offset=".593" stop-color="#CAE2FA"/><stop offset="1" stop-color="#BCD7F8"/></linearGradient><linearGradient id="paint12_linear" x1="52.224" y1="10.267" x2="57.962" y2="10.267" gradientUnits="userSpaceOnUse"><stop stop-color="#C0D5FF"/><stop offset=".548" stop-color="#94BBF4"/><stop offset="1" stop-color="#93B4F5"/></linearGradient><linearGradient id="paint13_linear" x1="6.976" y1="37.656" x2="19.983" y2="37.656" gradientUnits="userSpaceOnUse"><stop stop-color="#E7F3FF"/><stop offset=".593" stop-color="#CAE2FA"/><stop offset="1" stop-color="#BCD7F8"/></linearGradient><linearGradient id="paint14_linear" x1="27.499" y1="37.656" x2="40.506" y2="37.656" gradientUnits="userSpaceOnUse"><stop stop-color="#E7F3FF"/><stop offset=".593" stop-color="#CAE2FA"/><stop offset="1" stop-color="#BCD7F8"/></linearGradient><linearGradient id="paint15_linear" x1="48.022" y1="37.656" x2="61.028" y2="37.656" gradientUnits="userSpaceOnUse"><stop stop-color="#E7F3FF"/><stop offset=".593" stop-color="#CAE2FA"/><stop offset="1" stop-color="#BCD7F8"/></linearGradient><linearGradient id="paint16_linear" x1="6.976" y1="54.383" x2="19.983" y2="54.383" gradientUnits="userSpaceOnUse"><stop stop-color="#E7F3FF"/><stop offset=".593" stop-color="#CAE2FA"/><stop offset="1" stop-color="#BCD7F8"/></linearGradient><linearGradient id="paint17_linear" x1="27.499" y1="54.383" x2="40.506" y2="54.383" gradientUnits="userSpaceOnUse"><stop stop-color="#E7F3FF"/><stop offset=".593" stop-color="#CAE2FA"/><stop offset="1" stop-color="#BCD7F8"/></linearGradient><linearGradient id="paint18_linear" x1="49.576" y1="54.187" x2="62.048" y2="54.187" gradientUnits="userSpaceOnUse"><stop stop-color="#C0D5FF"/><stop offset=".548" stop-color="#94BBF4"/><stop offset="1" stop-color="#93B4F5"/></linearGradient><clipPath id="clip0"><path fill="#fff" transform="translate(.002)" d="M0 0h68v68H0z"/></clipPath></defs></svg>