<svg width="1707" height="636" fill="none" xmlns="http://www.w3.org/2000/svg"><g opacity=".1" stroke-width="4" stroke-dasharray="5 5"><path d="M-5.498 29.615s286.141 375.53 576.739 346.932c290.598-28.599 244.433-195.501 528.709-327.71 140.1-65.152 305.09-53.204 363.01-19.222 146.62 86.019 190.22 208.981 193.04 286.932C1667.5 634 1037 634 1037 634" stroke="#002958"/><path d="M-5.498 29.615s286.141 375.53 576.739 346.932c290.598-28.599 244.433-195.501 528.709-327.71 140.1-65.152 305.09-53.204 363.01-19.222 146.62 86.019 190.22 208.981 193.04 286.932C1667.5 634 1037 634 1037 634" stroke="url(#paint0_linear)"/></g><g clip-path="url(#clip0)"><path d="M722.298 342.39l-61.572 34.519-15.576-11.316 78.009-27.207.316.91a2.58 2.58 0 01-1.177 3.094z" fill="#8CB6F0"/><path d="M645.15 365.593l5.243-18.524 69.716-10.948a2.6 2.6 0 012.861 1.718l.31.894-78.13 26.86zm15.576 11.316l4.956-1.716-5.151-10.069.195 11.785z" fill="#6691D5"/><path d="M658.008 357.838l-7.615-10.769 4.511-1.562 3.104 12.331z" fill="#5C8CD7"/><path d="M722.981 337.87l-64.971 19.973-9.796-28.29a1.836 1.836 0 011.951-2.424l69.766 8.286a3.69 3.69 0 013.05 2.455zm.477 1.379L660.53 365.12l9.315 26.901a1.837 1.837 0 003.033.698l49.702-49.655a3.69 3.69 0 00.878-3.815z" fill="url(#paint1_linear)"/><path d="M722.58 343.064l-27.974 27.948c-4.998 4.993-13.498 3.037-15.81-3.639a9.572 9.572 0 015.405-11.985l39.257-16.139a3.687 3.687 0 01-.878 3.815zm-2.649-7.649l-39.267-4.663c-7.016-.834-12.485 5.96-10.173 12.636l.299.864a9.57 9.57 0 0011.857 6.017l40.334-12.399a3.688 3.688 0 00-3.05-2.455z" fill="url(#paint2_linear)"/></g><g clip-path="url(#clip1)"><path d="M1651.69 302.113l-29.15-64.291 12.61-14.554 20.45 80.044-.93.236a2.573 2.573 0 01-2.98-1.435z" fill="#8CB6F0"/><path d="M1635.15 223.268l18.01 6.802 4.96 70.396a2.595 2.595 0 01-1.95 2.704l-.92.232-20.1-80.134zm-12.61 14.554l1.29 5.084 10.47-4.273-11.76-.811z" fill="#6691D5"/><path d="M1641.78 236.74l11.38-6.67 1.17 4.628-12.55 2.042z" fill="#5C8CD7"/><path d="M1656.13 303.178l-14.36-66.437 29.02-7.349c1.32-.333 2.53.823 2.25 2.151l-14.2 68.806a3.699 3.699 0 01-2.71 2.829zm-1.41.358l-20.41-64.905-27.6 6.989c-1.31.333-1.83 1.925-.96 2.962l45.24 53.754a3.692 3.692 0 003.73 1.2z" fill="url(#paint3_linear)"/><path d="M1650.99 302.336l-25.46-30.255c-4.55-5.405-1.87-13.708 4.97-15.442a9.57 9.57 0 0111.48 6.407l12.74 40.49a3.692 3.692 0 01-3.73-1.2zm7.85-1.987l7.99-38.727c1.43-6.919-4.87-12.948-11.72-11.214l-.89.225c-4.99 1.265-8.09 6.262-7 11.301l8.91 41.244a3.698 3.698 0 002.71-2.829z" fill="url(#paint4_linear)"/></g><defs><linearGradient id="paint0_linear" x1="-41.998" y1="258.5" x2="555.502" y2="406.5" gradientUnits="userSpaceOnUse"><stop stop-color="#fff"/><stop offset="1" stop-color="#fff" stop-opacity="0"/></linearGradient><linearGradient id="paint1_linear" x1="651.412" y1="342.793" x2="714.805" y2="373.575" gradientUnits="userSpaceOnUse"><stop stop-color="#CDF"/><stop offset=".548" stop-color="#CCDFFC"/><stop offset="1" stop-color="#E1E9F8"/></linearGradient><linearGradient id="paint2_linear" x1="661.662" y1="361.859" x2="725.079" y2="338.245" gradientUnits="userSpaceOnUse"><stop stop-color="#B8D2F1"/><stop offset=".593" stop-color="#CAE2FA"/><stop offset="1" stop-color="#FAFCFF"/></linearGradient><linearGradient id="paint3_linear" x1="1657.33" y1="231.45" x2="1621.26" y2="291.989" gradientUnits="userSpaceOnUse"><stop stop-color="#CDF"/><stop offset=".548" stop-color="#CCDFFC"/><stop offset="1" stop-color="#E1E9F8"/></linearGradient><linearGradient id="paint4_linear" x1="1637.46" y1="240.038" x2="1655.58" y2="305.236" gradientUnits="userSpaceOnUse"><stop stop-color="#B8D2F1"/><stop offset=".593" stop-color="#CAE2FA"/><stop offset="1" stop-color="#FAFCFF"/></linearGradient><clipPath id="clip0"><path fill="#fff" transform="rotate(25.9 -310.895 1564.065)" d="M0 0h94v94H0z"/></clipPath><clipPath id="clip1"><path fill="#fff" transform="rotate(120.79 786.383 603.081)" d="M0 0h94v94H0z"/></clipPath></defs></svg>