<svg width="60" height="60" viewBox="0 0 60 60" fill="none" xmlns="http://www.w3.org/2000/svg">
<g clip-path="url(#clip0)">
<path d="M9.71215 36.4596C10.1126 36.7276 10.5654 36.8557 11.0134 36.8557C11.7693 36.8557 12.5114 36.4905 12.9634 35.8152C16.7505 30.156 23.0814 26.7773 29.8983 26.7773C36.695 26.7773 43.0154 30.1405 46.8053 35.7738C47.528 36.8479 48.9843 37.1327 50.0582 36.4102C51.1322 35.6876 51.4171 34.2312 50.6945 33.1573C47.6665 28.6566 43.3252 25.3356 38.3641 23.559C41.3393 21.1287 43.2422 17.4329 43.2422 13.3008C43.2422 5.99895 37.3018 0.0585938 30 0.0585938C22.6982 0.0585938 16.7578 5.99895 16.7578 13.3008C16.7578 17.4033 18.633 21.0758 21.5714 23.5068C16.5328 25.2768 12.1262 28.6379 9.06773 33.2082C8.34785 34.284 8.63637 35.7397 9.71215 36.4596ZM30 4.74609C34.717 4.74609 38.5547 8.58375 38.5547 13.3008C38.5547 18.0178 34.717 21.8555 30 21.8555C25.283 21.8555 21.4453 18.0178 21.4453 13.3008C21.4453 8.58375 25.283 4.74609 30 4.74609ZM39.3466 41.5582L35.8526 44.0788C35.3327 44.4538 35.1151 45.1186 35.3137 45.7254L36.7208 49.8037C36.7802 49.9854 36.8031 50.1628 36.7955 50.332C36.7457 51.4274 35.3728 52.1767 34.3659 51.4504L30.872 48.9291C30.6121 48.7416 30.3061 48.6478 30.0001 48.6478C29.6941 48.6478 29.3882 48.7416 29.1282 48.9291L25.6343 51.4504C24.6274 52.1767 23.248 51.4274 23.2044 50.332C23.1977 50.1628 23.2212 49.9853 23.2806 49.8037L24.6864 45.7254C24.885 45.1186 24.6674 44.4538 24.1475 44.0788L20.6535 41.5582C19.491 40.7196 20.0884 38.7305 21.5254 38.7305H25.8442C26.4868 38.7305 27.0564 38.4831 27.2549 37.8763L28.5894 33.7716C28.8115 33.0932 29.4057 32.7539 30.0001 32.7539C30.5945 32.7539 31.1887 33.0932 31.4108 33.7716L32.7453 37.8763C32.944 38.4831 33.5134 38.7305 34.1561 38.7305H38.4749C39.9117 38.7305 40.5091 40.7196 39.3466 41.5582ZM59.3857 49.7613L55.8916 52.2819C55.3718 52.6569 55.1542 53.3217 55.3528 53.9285L56.7599 58.0069C56.8193 58.1885 56.8422 58.3659 56.8345 58.5352C56.7847 59.6305 55.4119 60.3798 54.405 59.6535L50.9111 57.1322C50.6511 56.9447 50.3452 56.8509 50.0392 56.8509C49.7332 56.8509 49.4272 56.9447 49.1673 57.1322L45.6734 59.6535C44.6665 60.3798 43.2871 59.6305 43.2435 58.5352C43.2368 58.3659 43.2602 58.1884 43.3196 58.0069L44.7254 53.9285C44.9241 53.3217 44.7064 52.6569 44.1866 52.2819L40.6925 49.7613C39.53 48.9227 40.1275 46.9336 41.5644 46.9336H45.8832C46.5259 46.9336 47.0954 46.6862 47.2939 46.0794L48.6285 41.9747C48.8505 41.2963 49.4448 40.957 50.0392 40.957C50.6336 40.957 51.2278 41.2963 51.4499 41.9747L52.7844 46.0794C52.983 46.6862 53.5525 46.9336 54.1951 46.9336H58.5139C59.9508 46.9336 60.5482 48.9227 59.3857 49.7613ZM19.3076 49.7613L15.8135 52.2819C15.2937 52.6569 15.0761 53.3217 15.2747 53.9285L16.6818 58.0069C16.7412 58.1885 16.764 58.3659 16.7564 58.5352C16.7066 59.6305 15.3337 60.3798 14.3269 59.6535L10.8328 57.1322C10.5729 56.9447 10.2669 56.8509 9.96094 56.8509C9.65496 56.8509 9.34898 56.9447 9.08906 57.1322L5.59512 59.6535C4.58824 60.3798 3.20883 59.6305 3.16523 58.5352C3.15855 58.3659 3.18199 58.1884 3.24141 58.0069L4.64719 53.9285C4.84582 53.3217 4.6282 52.6569 4.10836 52.2819L0.614297 49.7613C-0.548203 48.9227 0.0492185 46.9336 1.48617 46.9336H5.805C6.44766 46.9336 7.01719 46.6862 7.2157 46.0794L8.55023 41.9747C8.7723 41.2963 9.36656 40.957 9.96094 40.957C10.5553 40.957 11.1496 41.2963 11.3716 41.9747L12.7062 46.0794C12.9048 46.6862 13.4742 46.9336 14.1169 46.9336H18.4357C19.8727 46.9336 20.4701 48.9227 19.3076 49.7613Z" fill="#41FFDB"/>
<circle cx="30" cy="13" r="9" fill="#41FFDB"/>
</g>
<defs>
<clipPath id="clip0">
<rect width="60" height="60" fill="white"/>
</clipPath>
</defs>
</svg>
