<svg width="88" height="106" fill="none" xmlns="http://www.w3.org/2000/svg"><path d="M84.606 106c2.553 0 4.105-2.842 2.698-4.972a11.578 11.578 0 00-9.679-5.212c-1.038 0-2.044.138-3.002.394-2.614-4.815-7.715-8.085-13.579-8.085-.568 0-1.128.033-1.68.093V82.82h-29.97v6.813c-5.517.024-10.314 3.03-12.813 7.54a11.542 11.542 0 00-5.449-1.358 11.579 11.579 0 00-9.679 5.212C.047 103.158 1.6 106 4.152 106h80.454z" fill="url(#paint0_linear)"/><path d="M61.044 88.125c-.575 0-1.142.034-1.701.096v-5.4h-29.95v6.813h25.36c5.226 0 10.052 3.014 12.144 7.803a14.27 14.27 0 01.375.948c.358 1.005 1.621 1.325 2.398.593a11.574 11.574 0 014.953-2.768c-2.614-4.815-7.715-8.085-13.58-8.085z" fill="url(#paint1_linear)"/><path d="M14.076 103.021a.81.81 0 00.802-.705 14.623 14.623 0 011.702-5.14 11.543 11.543 0 00-5.448-1.36 11.56 11.56 0 00-4.16.772 11.636 11.636 0 016.373 5.967.806.806 0 00.731.466z" fill="url(#paint2_linear)"/><path d="M17.96 51.254l-3.517 3.518a24.445 24.445 0 00-7.16 17.285 4.075 4.075 0 004.075 4.076H27.72V48.074h-2.081a10.86 10.86 0 00-7.678 3.18z" fill="url(#paint3_linear)"/><path d="M70.798 51.254l3.518 3.518a24.445 24.445 0 017.16 17.285 4.075 4.075 0 01-4.076 4.076H61.04V48.074h2.08c2.88 0 5.642 1.144 7.678 3.18z" fill="url(#paint4_linear)"/><path d="M66.614 37.148v35.11h-44.47v-35.11a43.159 43.159 0 0112.643-30.52l4.533-4.533a7.156 7.156 0 0110.119 0l4.532 4.533a43.16 43.16 0 0112.643 30.52z" fill="url(#paint5_linear)"/><path d="M53.97 6.629l-4.533-4.533a7.156 7.156 0 00-9.219-.762c.316.226.617.479.9.762l4.534 4.533a43.16 43.16 0 0112.643 30.52v35.11h8.317v-35.11A43.16 43.16 0 0053.97 6.628z" fill="url(#paint6_linear)"/><path d="M39.32 2.096l-4.533 4.532a43.155 43.155 0 00-10.59 17.377h40.364A43.152 43.152 0 0053.97 6.628l-4.53-4.532a7.156 7.156 0 00-10.12 0z" fill="url(#paint7_linear)"/><path d="M44.379 63.766c9.12 0 16.512-7.392 16.512-16.512 0-9.12-7.393-16.512-16.512-16.512-9.12 0-16.512 7.393-16.512 16.512 0 9.12 7.393 16.512 16.512 16.512z" fill="url(#paint8_linear)"/><path d="M44.377 30.742c-1.436 0-2.83.184-4.159.529 7.106 1.843 12.353 8.3 12.353 15.983s-5.247 14.14-12.353 15.984c1.329.345 2.723.529 4.16.529 9.119 0 16.511-7.393 16.511-16.513 0-9.12-7.392-16.512-16.512-16.512z" fill="url(#paint9_linear)"/><path d="M44.378 56.747a9.492 9.492 0 009.492-9.492c0-5.243-4.25-9.493-9.492-9.493-5.242 0-9.491 4.25-9.491 9.493 0 5.242 4.25 9.492 9.491 9.492z" fill="url(#paint10_linear)"/><path d="M44.379 37.762c-.902 0-1.773.129-2.6.364 3.978 1.13 6.893 4.788 6.893 9.129 0 4.34-2.915 7.998-6.892 9.129a9.49 9.49 0 0012.09-9.13c0-5.242-4.25-9.492-9.491-9.492z" fill="url(#paint11_linear)"/><path d="M22.144 69.918v9.53a4.986 4.986 0 004.986 4.986h34.498a4.986 4.986 0 004.986-4.986v-9.53h-44.47z" fill="url(#paint12_linear)"/><path d="M58.296 84.436h3.332a4.987 4.987 0 004.986-4.987v-9.532h-8.318v14.519z" fill="url(#paint13_linear)"/><path d="M53.97 6.629l-4.533-4.533a7.156 7.156 0 00-9.219-.762c.316.226.618.479.9.762l4.534 4.533a43.153 43.153 0 0110.59 17.376h8.317a43.152 43.152 0 00-10.59-17.376z" fill="url(#paint14_linear)"/><defs><linearGradient id="paint0_linear" x1="37.2" y1="94.41" x2="82.528" y2="94.41" gradientUnits="userSpaceOnUse"><stop stop-color="#F2FBFF"/><stop offset=".593" stop-color="#F7F9FA"/><stop offset="1" stop-color="#E6EBF3"/></linearGradient><linearGradient id="paint1_linear" x1="48.272" y1="91.099" x2="71.861" y2="91.099" gradientUnits="userSpaceOnUse"><stop stop-color="#E6EDF3"/><stop offset="1" stop-color="#BAC5CD"/></linearGradient><linearGradient id="paint2_linear" x1=".247" y1="99.418" x2="14.759" y2="99.418" gradientUnits="userSpaceOnUse"><stop stop-color="#F2FBFF"/><stop offset=".593" stop-color="#F7F8FA"/><stop offset="1" stop-color="#E6EDF3"/></linearGradient><linearGradient id="paint3_linear" x1="4.416" y1="62.103" x2="31.666" y2="62.103" gradientUnits="userSpaceOnUse"><stop stop-color="#CDDEFA"/><stop offset="1" stop-color="#92B8F3"/></linearGradient><linearGradient id="paint4_linear" x1="58.172" y1="62.103" x2="85.422" y2="62.103" gradientUnits="userSpaceOnUse"><stop stop-color="#83AFF4"/><stop offset="1" stop-color="#6591D7"/></linearGradient><linearGradient id="paint5_linear" x1="22.284" y1="36.129" x2="65.967" y2="36.129" gradientUnits="userSpaceOnUse"><stop stop-color="#F2FBFF"/><stop offset=".593" stop-color="#F7F8FA"/><stop offset="1" stop-color="#E6EEF3"/></linearGradient><linearGradient id="paint6_linear" x1="21.723" y1="36.13" x2="75.913" y2="36.13" gradientUnits="userSpaceOnUse"><stop stop-color="#E6EEF3"/><stop offset="1" stop-color="#BAC6CD"/></linearGradient><linearGradient id="paint7_linear" x1="18.534" y1="12.002" x2="72.355" y2="12.002" gradientUnits="userSpaceOnUse"><stop stop-color="#CDDEFA"/><stop offset="1" stop-color="#92B8F3"/></linearGradient><linearGradient id="paint8_linear" x1="27.867" y1="47.254" x2="60.891" y2="47.254" gradientUnits="userSpaceOnUse"><stop stop-color="#EEF7FF"/><stop offset=".593" stop-color="#CAE2FA"/><stop offset="1" stop-color="#BCD7F8"/></linearGradient><linearGradient id="paint9_linear" x1="37.318" y1="47.254" x2="64.881" y2="47.254" gradientUnits="userSpaceOnUse"><stop stop-color="#CDDEFA"/><stop offset="1" stop-color="#92B8F3"/></linearGradient><linearGradient id="paint10_linear" x1="37.261" y1="47.255" x2="55.452" y2="47.255" gradientUnits="userSpaceOnUse"><stop stop-color="#C0D5FF"/><stop offset=".548" stop-color="#94BBF4"/><stop offset="1" stop-color="#93B4F5"/></linearGradient><linearGradient id="paint11_linear" x1="40.083" y1="47.255" x2="56.205" y2="47.255" gradientUnits="userSpaceOnUse"><stop stop-color="#568DE2"/><stop offset="1" stop-color="#6591D7"/></linearGradient><linearGradient id="paint12_linear" x1="15.905" y1="77.176" x2="75.202" y2="77.176" gradientUnits="userSpaceOnUse"><stop stop-color="#CDDEFA"/><stop offset="1" stop-color="#92B8F3"/></linearGradient><linearGradient id="paint13_linear" x1="57.129" y1="77.176" x2="68.221" y2="77.176" gradientUnits="userSpaceOnUse"><stop stop-color="#7EB0FD"/><stop offset="1" stop-color="#6591D7"/></linearGradient><linearGradient id="paint14_linear" x1="36.803" y1="12.003" x2="69.259" y2="12.003" gradientUnits="userSpaceOnUse"><stop stop-color="#A3C7FF"/><stop offset="1" stop-color="#6696E2"/></linearGradient></defs></svg>