<svg width="17" height="43" fill="none" xmlns="http://www.w3.org/2000/svg"><g opacity=".7"><path d="M8.36 8.06c-4.599 0-8.358 3.76-8.358 8.36v9.243c0 4.599 3.76 8.358 8.358 8.358 4.6 0 8.359-3.759 8.359-8.358V16.42c0-4.6-3.76-8.359-8.359-8.359zm1.371 9.508c0 .752-.619 1.371-1.37 1.371a1.377 1.377 0 01-1.371-1.37v-3.715c0-.752.619-1.371 1.37-1.371.752 0 1.371.619 1.371 1.37v3.715z" fill="url(#paint0_linear)"/><path d="M8.36 8.06c-4.599 0-8.358 3.76-8.358 8.36v9.243c0 4.599 3.76 8.358 8.358 8.358 4.6 0 8.359-3.759 8.359-8.358V16.42c0-4.6-3.76-8.359-8.359-8.359zm1.371 9.508c0 .752-.619 1.371-1.37 1.371a1.377 1.377 0 01-1.371-1.37v-3.715c0-.752.619-1.371 1.37-1.371.752 0 1.371.619 1.371 1.37v3.715z" fill="#002958"/><path d="M10.526 36.895L8.36 39.062l-2.167-2.167a1.202 1.202 0 00-1.724 0 1.202 1.202 0 000 1.724l3.051 3.052c.221.221.53.354.885.354.31 0 .619-.133.884-.354l3.052-3.052a1.202 1.202 0 000-1.724c-.531-.487-1.327-.487-1.814 0z" fill="url(#paint1_linear)"/><path d="M10.526 36.895L8.36 39.062l-2.167-2.167a1.202 1.202 0 00-1.724 0 1.202 1.202 0 000 1.724l3.051 3.052c.221.221.53.354.885.354.31 0 .619-.133.884-.354l3.052-3.052a1.202 1.202 0 000-1.724c-.531-.487-1.327-.487-1.814 0z" fill="#002958"/><path d="M6.192 5.141L8.36 2.974l2.167 2.167c.222.221.531.354.885.354s.619-.133.884-.354a1.202 1.202 0 000-1.725L9.244.365a1.202 1.202 0 00-1.725 0L4.468 3.416a1.202 1.202 0 000 1.725c.442.487 1.238.487 1.724 0z" fill="url(#paint2_linear)"/><path d="M6.192 5.141L8.36 2.974l2.167 2.167c.222.221.531.354.885.354s.619-.133.884-.354a1.202 1.202 0 000-1.725L9.244.365a1.202 1.202 0 00-1.725 0L4.468 3.416a1.202 1.202 0 000 1.725c.442.487 1.238.487 1.724 0z" fill="#002958"/></g><defs><linearGradient id="paint0_linear" x1="8.36" y1="8.06" x2="8.36" y2="34.02" gradientUnits="userSpaceOnUse"><stop stop-color="#ADCCF9"/><stop offset="1" stop-color="#78A0DF"/></linearGradient><linearGradient id="paint1_linear" x1="8.404" y1="36.53" x2="8.404" y2="42.025" gradientUnits="userSpaceOnUse"><stop stop-color="#ADCCF9"/><stop offset="1" stop-color="#78A0DF"/></linearGradient><linearGradient id="paint2_linear" x1="8.381" y1="0" x2="8.381" y2="5.506" gradientUnits="userSpaceOnUse"><stop stop-color="#ADCCF9"/><stop offset="1" stop-color="#78A0DF"/></linearGradient></defs></svg>