<svg width="154" height="25" fill="none" xmlns="http://www.w3.org/2000/svg"><path d="M22.173 8.62l-6.199-.9-2.771-5.618a.785.785 0 00-1.401 0L9.03 7.72l-6.2.9a.78.78 0 00-.43 1.335l4.485 4.372-1.06 6.174a.78.78 0 001.133.823l5.544-2.915 5.545 2.915a.78.78 0 001.133-.823l-1.06-6.174 4.485-4.372a.78.78 0 00.227-.447.779.779 0 00-.66-.886z" fill="url(#paint0_linear)"/><path d="M54.173 8.62l-6.199-.9-2.771-5.618a.785.785 0 00-1.401 0L41.03 7.72l-6.2.9a.78.78 0 00-.431 1.334l4.485 4.372-1.06 6.174a.78.78 0 001.133.823l5.544-2.915 5.545 2.915a.78.78 0 001.133-.823l-1.06-6.174 4.485-4.372a.78.78 0 00.227-.447.779.779 0 00-.66-.886z" fill="url(#paint1_linear)"/><path d="M86.173 8.62l-6.199-.9-2.771-5.618a.785.785 0 00-1.401 0L73.03 7.72l-6.2.9a.78.78 0 00-.431 1.334l4.485 4.372-1.06 6.174a.78.78 0 001.133.823l5.544-2.915 5.545 2.915a.78.78 0 001.133-.823l-1.06-6.174 4.485-4.372a.78.78 0 00.227-.447.779.779 0 00-.66-.886z" fill="url(#paint2_linear)"/><path d="M118.173 8.62l-6.199-.9-2.771-5.618a.784.784 0 00-1.401 0l-2.771 5.618-6.2.9a.78.78 0 00-.431 1.334l4.485 4.372-1.06 6.174a.777.777 0 00.31.765.78.78 0 00.823.058l5.544-2.915 5.545 2.915a.78.78 0 001.133-.823l-1.06-6.174 4.485-4.372a.784.784 0 00-.432-1.333z" fill="url(#paint3_linear)"/><path d="M150.173 8.62l-6.199-.9-2.771-5.618a.784.784 0 00-1.401 0l-2.771 5.618-6.199.9a.781.781 0 00-.432 1.334l4.485 4.372-1.06 6.174a.777.777 0 00.31.765.78.78 0 00.823.058l5.544-2.915 5.545 2.915a.78.78 0 001.133-.823l-1.06-6.174 4.485-4.372a.784.784 0 00-.432-1.333z" fill="url(#paint4_linear)"/><defs><linearGradient id="paint0_linear" x1="-.738" y1="11.54" x2="26.834" y2="11.54" gradientUnits="userSpaceOnUse"><stop stop-color="#CDDEFA"/><stop offset="1" stop-color="#92B8F3"/></linearGradient><linearGradient id="paint1_linear" x1="31.262" y1="11.54" x2="58.834" y2="11.54" gradientUnits="userSpaceOnUse"><stop stop-color="#CDDEFA"/><stop offset="1" stop-color="#92B8F3"/></linearGradient><linearGradient id="paint2_linear" x1="63.262" y1="11.54" x2="90.834" y2="11.54" gradientUnits="userSpaceOnUse"><stop stop-color="#CDDEFA"/><stop offset="1" stop-color="#92B8F3"/></linearGradient><linearGradient id="paint3_linear" x1="95.262" y1="11.54" x2="122.834" y2="11.54" gradientUnits="userSpaceOnUse"><stop stop-color="#CDDEFA"/><stop offset="1" stop-color="#92B8F3"/></linearGradient><linearGradient id="paint4_linear" x1="127.262" y1="11.54" x2="154.834" y2="11.54" gradientUnits="userSpaceOnUse"><stop stop-color="#CDDEFA"/><stop offset="1" stop-color="#92B8F3"/></linearGradient></defs></svg>