<svg width="107" height="106" fill="none" xmlns="http://www.w3.org/2000/svg"><g clip-path="url(#clip0)"><path d="M77.627 105.641L58.24 98.977a16.117 16.117 0 00-10.478 0l-19.386 6.664c-4.228 1.453-8.63-1.688-8.63-6.16V64.04h66.51v35.442c0 4.471-4.402 7.612-8.63 6.159z" fill="url(#paint0_linear)"/><path d="M86.257 64.04v35.442c0 4.471-4.402 7.613-8.63 6.158l-2.442-.839a6.471 6.471 0 002.754-5.32V79.673a41.227 41.227 0 01-24.937 8.347c-13.622 0-25.708-6.578-33.255-16.729v-7.25h66.51z" fill="url(#paint1_linear)"/><path d="M19.747 99.482c0 4.471 4.402 7.613 8.63 6.158l6.376-2.192V64.041H19.747v35.44z" fill="url(#paint2_linear)"/><path d="M34.753 83.787V64.04H19.747v7.25a41.59 41.59 0 0015.006 12.497z" fill="url(#paint3_linear)"/><path d="M71.25 64.04v39.408l6.377 2.192c4.228 1.455 8.63-1.687 8.63-6.158V64.04H71.25z" fill="url(#paint4_linear)"/><path d="M77.939 79.672v19.81a6.471 6.471 0 01-2.754 5.319l2.442.839c4.228 1.455 8.63-1.687 8.63-6.158V64.04H71.25v19.75a41.413 41.413 0 006.689-4.118z" fill="url(#paint5_linear)"/><path d="M53.002 82.822c22.87 0 41.41-18.54 41.41-41.411C94.413 18.54 75.873 0 53.003 0c-22.87 0-41.41 18.54-41.41 41.41 0 22.871 18.54 41.412 41.41 41.412z" fill="url(#paint6_linear)"/><path d="M53.002 0c-1.404 0-2.791.07-4.159.207 20.918 2.086 37.252 19.737 37.252 41.204 0 21.466-16.334 39.117-37.252 41.204 1.368.136 2.755.207 4.159.207 22.87 0 41.41-18.54 41.41-41.411C94.413 18.54 75.873 0 53.003 0z" fill="url(#paint7_linear)"/><path d="M53.002 70.66c16.154 0 29.249-13.095 29.249-29.25 0-16.153-13.095-29.248-29.25-29.248-16.153 0-29.248 13.095-29.248 29.249 0 16.154 13.095 29.249 29.249 29.249z" fill="url(#paint8_linear)"/><path d="M53.002 12.162c-1.412 0-2.8.102-4.159.296 14.184 2.019 25.09 14.211 25.09 28.953 0 14.742-10.906 26.934-25.09 28.953a29.41 29.41 0 004.159.296c16.154 0 29.249-13.095 29.249-29.25 0-16.153-13.095-29.248-29.249-29.248z" fill="url(#paint9_linear)"/><path d="M57.71 23.854l3.643 7.381L69.5 32.42c4.307.626 6.027 5.919 2.91 8.957l-5.895 5.746 1.392 8.114c.736 4.29-3.767 7.56-7.62 5.535l-7.285-3.83-7.287 3.83c-3.852 2.025-8.355-1.246-7.619-5.536l1.392-8.113-5.895-5.746c-3.116-3.038-1.397-8.331 2.91-8.957l8.147-1.184 3.643-7.382c1.926-3.902 7.491-3.902 9.417 0z" fill="url(#paint10_linear)"/><path d="M69.5 32.419l-4.948-.719v.006c0 11.598-9.403 21-21 21a21.06 21.06 0 01-4.922-.582l-.534 3.111c-.735 4.29 3.767 7.561 7.62 5.536l7.286-3.83 7.286 3.83c3.852 2.025 8.355-1.246 7.619-5.536l-1.392-8.114 5.895-5.745c3.117-3.038 1.397-8.331-2.91-8.957z" fill="url(#paint11_linear)"/></g><defs><linearGradient id="paint0_linear" x1="31.03" y1="85.02" x2="72.993" y2="85.02" gradientUnits="userSpaceOnUse"><stop stop-color="#F2FBFF"/><stop offset=".593" stop-color="#F7F9FA"/><stop offset="1" stop-color="#E6EDF3"/></linearGradient><linearGradient id="paint1_linear" x1="31.03" y1="85.02" x2="72.993" y2="85.02" gradientUnits="userSpaceOnUse"><stop stop-color="#E6EEF3"/><stop offset="1" stop-color="#BAC5CD"/></linearGradient><linearGradient id="paint2_linear" x1="19.747" y1="85.02" x2="34.753" y2="85.02" gradientUnits="userSpaceOnUse"><stop stop-color="#FAFCFF"/><stop offset=".593" stop-color="#CAE2FA"/><stop offset="1" stop-color="#BCD7F8"/></linearGradient><linearGradient id="paint3_linear" x1="17.642" y1="73.914" x2="37.651" y2="73.914" gradientUnits="userSpaceOnUse"><stop stop-color="#B4D1FF"/><stop offset="1" stop-color="#7CA8ED"/></linearGradient><linearGradient id="paint4_linear" x1="72.502" y1="85" x2="93.502" y2="85" gradientUnits="userSpaceOnUse"><stop stop-color="#CDDEFA"/><stop offset="1" stop-color="#92B8F3"/></linearGradient><linearGradient id="paint5_linear" x1="69.145" y1="85.02" x2="89.154" y2="85.02" gradientUnits="userSpaceOnUse"><stop stop-color="#7BACFA"/><stop offset="1" stop-color="#6591D7"/></linearGradient><linearGradient id="paint6_linear" x1="11.591" y1="41.411" x2="94.413" y2="41.411" gradientUnits="userSpaceOnUse"><stop stop-color="#FAFCFF"/><stop offset=".593" stop-color="#CAE2FA"/><stop offset="1" stop-color="#BCD7F8"/></linearGradient><linearGradient id="paint7_linear" x1="54.543" y1="41.411" x2="98.212" y2="41.411" gradientUnits="userSpaceOnUse"><stop stop-color="#C0D5FF"/><stop offset=".548" stop-color="#94BBF4"/><stop offset="1" stop-color="#93B4F5"/></linearGradient><linearGradient id="paint8_linear" x1="15.546" y1="41.411" x2="93.547" y2="41.411" gradientUnits="userSpaceOnUse"><stop stop-color="#EAF2FF"/><stop offset=".656" stop-color="#B4D0FC"/><stop offset="1" stop-color="#9FC3FB"/></linearGradient><linearGradient id="paint9_linear" x1="44.156" y1="41.411" x2="88.702" y2="41.411" gradientUnits="userSpaceOnUse"><stop stop-color="#CDE1FF"/><stop offset="1" stop-color="#78A6EE"/></linearGradient><linearGradient id="paint10_linear" x1="26.109" y1="41.156" x2="82.112" y2="41.156" gradientUnits="userSpaceOnUse"><stop stop-color="#8FBAFD"/><stop offset="1" stop-color="#B8D2FC"/></linearGradient><linearGradient id="paint11_linear" x1="32.968" y1="46.543" x2="80.951" y2="46.543" gradientUnits="userSpaceOnUse"><stop stop-color="#A6C3F2"/><stop offset=".646" stop-color="#95BBF8"/><stop offset="1" stop-color="#7FAAEF"/></linearGradient><clipPath id="clip0"><path fill="#fff" transform="translate(.002)" d="M0 0h106v106H0z"/></clipPath></defs></svg>