<svg width="259" height="48" viewBox="0 0 259 48" fill="none" xmlns="http://www.w3.org/2000/svg">
<path d="M0.5 24C0.5 10.7452 11.2452 0 24.5 0C37.7548 0 48.5 10.7452 48.5 24C48.5 37.2548 37.7548 48 24.5 48C11.2452 48 0.5 37.2548 0.5 24Z" fill="none"/>
<path d="M24.5013 31.4853C24.8575 31.6632 25.0951 31.7229 25.0951 31.8417C25.0951 32.0794 25.0951 33.3071 25.0951 33.7427C25.0951 34.1605 25.0953 34.513 25.0953 34.9308C25.0953 35.1175 25.0953 35.3382 25.0953 35.5249C25.0953 35.8982 25.0953 36.2209 25.0953 36.5942C25.0953 36.852 25.1042 37.4057 25.0953 37.6635C25.0953 38.5613 25.1862 43.458 25.0973 43.8047C25.0529 43.9824 24.8234 44.1981 24.5013 44.1981C24.1792 44.1981 23.9783 44.0162 23.9072 43.7229C23.8095 43.2873 23.8262 35.9736 23.8351 34.8269C23.8351 34.4536 23.8351 34.0713 23.8351 33.698C23.8351 33.4996 23.847 32.5475 23.8677 31.8893C23.88 31.4976 24.1507 31.3101 24.5013 31.4853Z" fill="#08E8DE"/>
<path d="M23.5488 36.3639C23.5488 36.5797 23.4292 36.7744 23.2655 36.915C22.5479 37.5313 21.9178 38.9083 23.3381 40.3189C23.4673 40.4472 23.5486 40.4953 23.5486 40.6774C23.5485 41.1464 23.0533 41.566 22.697 41.261C20.8044 39.6413 21.106 36.7637 22.8677 35.871C23.2022 35.7014 23.5488 35.9888 23.5488 36.3639Z" fill="#1D0200"/>
<path d="M25.4512 36.4825C25.4512 36.6983 25.5708 36.8931 25.7345 37.0337C26.4521 37.6499 27.0822 39.0269 25.6619 40.4375C25.5327 40.5658 25.4514 40.614 25.4514 40.796C25.4515 41.2651 25.9467 41.6847 26.303 41.3797C28.1956 39.7599 27.894 36.8824 26.1323 35.9896C25.7978 35.8201 25.4512 36.1075 25.4512 36.4825Z" fill="#1D0200"/>
<path d="M23.8394 23.6714C24.1149 23.8847 23.9796 23.7898 24.259 24C24.6154 24.2377 25.1917 24.5852 25.2095 24.5941C25.725 24.9319 26.4705 25.298 26.9061 25.6358C29.5333 27.6969 27.4485 30.3214 25.7199 30.0489C25.7032 30.0462 25.7013 30.0469 25.6847 30.0438C25.5288 30.0147 25.3926 29.863 25.3926 29.7044V29.5199C25.3926 29.2438 25.6257 29.0313 25.8965 28.9781C26.9862 28.7642 27.3955 27.6775 26.3994 26.7202C25.8035 26.2575 25.6847 26.2575 25.1549 25.9202C25.1105 25.8847 25.0661 25.858 25.0127 25.8225C24.1594 25.218 21.8749 23.8047 21.4038 23.0314C20.5165 21.5801 21.6094 19.809 23.1675 19.6502C23.382 19.6283 23.5587 19.754 23.5652 19.9696C23.5792 20.4308 23.2415 20.688 22.8397 20.915C22.69 20.9996 22.5436 21.1207 22.4349 21.298C21.8216 22.2758 22.7227 22.787 23.6649 23.5248L23.8394 23.6714Z" fill="#1D0200"/>
<path d="M23.7123 31.285C23.7338 31.6517 23.4846 31.9134 23.2106 32.1581C22.8341 32.4943 22.5451 32.9983 23.2093 33.4106C23.4669 33.5705 23.6683 33.8209 23.6683 34.124C23.6683 34.5064 23.3598 34.8438 22.9919 34.7397C21.7 34.3739 21.2356 32.7474 22.1177 31.5202C22.4804 31.1401 22.841 30.9462 23.1483 30.8524C23.4363 30.7644 23.6947 30.9845 23.7123 31.285Z" fill="#1D0200"/>
<path d="M27.129 33.649C27.1232 33.6519 27.1185 33.6567 27.1158 33.6626C26.861 34.2101 26.5309 34.5116 26.0877 34.7041C25.7449 34.8531 25.3932 34.562 25.3932 34.1882C25.3932 33.8852 25.6405 33.6583 25.9073 33.5145C26.6806 33.0979 26.1229 31.9183 25.2111 31.4852C24.9001 31.3297 24.5992 31.1542 24.3016 30.9745C23.2798 30.3575 21.7633 29.7151 21.2712 28.8001C20.6365 27.6206 21.0908 26.3482 22.0282 25.6868C22.8435 25.1116 23.764 25.9473 22.889 26.4268C22.3112 26.7468 22.0267 27.4134 22.2134 28.0445C22.6307 29.4919 28.539 30.5845 27.1422 33.6351C27.1395 33.641 27.1347 33.6461 27.129 33.649Z" fill="#1D0200"/>
<path d="M25.0145 26.2019C25.0988 26.2693 25.1568 26.3645 25.1568 26.4723L25.1568 28.5954C25.1568 29.1329 24.505 29.4486 24.0319 29.1935C23.8687 29.1056 23.9061 29.0146 23.9076 28.8292C23.9112 28.3938 23.9183 27.5509 23.9176 26.8034C23.9171 26.2532 24.5666 25.8953 25.0234 26.2019H25.0145Z" fill="#08E8DE"/>
<path d="M25.1625 21.5081C25.1625 22.3347 25.1536 22.3729 25.1536 23.1996C25.1536 23.5729 25.1536 23.5519 25.1536 23.9252C25.1536 24.0922 24.9643 24.197 24.825 24.1049C24.7969 24.0863 24.7665 24.0661 24.7334 24.044C24.6231 23.9682 24.5134 23.894 24.4049 23.8191C24.0821 23.5961 23.9143 23.2182 23.9174 22.8259C23.9208 22.3968 23.9104 21.9921 23.9037 21.5731C23.897 21.1555 24.3355 20.9591 24.7361 21.077C24.7675 21.0862 24.8009 21.0952 24.8369 21.1043C25.0246 21.1514 25.1625 21.3146 25.1625 21.5081Z" fill="#08E8DE"/>
<path d="M25.1111 11.5821C24.6845 11.6532 24.3645 11.6354 23.9378 11.5821C24.0267 10.0265 23.8667 10.6043 23.0934 9.89321C21.0578 8.00877 22.9156 5.16432 24.5245 3.70654C25.3067 4.7021 26.5956 5.83988 26.7467 7.15543C27.0578 9.7421 25.1645 10.2932 25.1022 10.4799C25.0578 10.6043 25.1289 11.3065 25.1022 11.5821H25.1111Z" fill="#08E8DE"/>
<path d="M23.9424 11.5819C24.3691 11.6352 24.6891 11.653 25.1158 11.5819C26.0758 11.4219 27.018 10.5863 27.3913 10.5063C28.4758 10.2663 29.2669 11.2441 28.778 12.2397C28.1291 13.5374 26.9024 12.3019 26.7869 12.2841C26.6447 12.2663 25.4269 12.7908 25.1247 12.8708V19.573C28.6813 19.6066 28.9868 23.5675 25.8946 24.1687C25.5928 24.2275 25.3311 23.9862 25.3311 23.6787C25.3311 23.3959 25.5546 23.1623 25.8287 23.093C27.4226 22.6899 27.2092 20.9271 25.178 20.6752C24.5199 20.5912 23.968 20.0759 23.9786 19.4126C24.013 17.2514 24.0725 13.2049 23.9602 12.9241C23.9335 12.853 22.7513 12.4263 22.6002 12.3819C22.0135 12.2219 22.1469 12.5241 21.7291 12.7108C20.6091 13.2085 19.5869 11.9641 20.298 10.9508C21.2491 9.60855 22.6624 11.4219 23.9513 11.5819H23.9424Z" fill="#1D0200"/>
<path d="M40.6294 12.1867C40.6028 12.2667 40.0872 13.12 39.9717 13.3156C38.8783 15.1378 37.2339 17.3956 35.5628 18.7023C34.9939 19.1467 34.3894 19.5645 33.7317 19.8756C30.9672 21.1823 27.9094 20.8 25.625 18.7734C26.5406 14.3023 29.4472 11.8489 33.9894 11.5823C34.6739 11.5378 40.105 11.5023 40.4072 11.5823C40.7183 11.6623 40.7006 11.9378 40.6206 12.1956L40.6294 12.1867Z" fill="#08E8DE"/>
<path d="M36.9065 13.2183C37.102 13.2272 37.1998 13.7072 37.0487 13.8316C33.9554 15.316 30.9154 17.0049 27.7687 18.3294C27.4931 18.0983 27.5465 17.8849 27.8131 17.6716C28.2131 17.3605 35.7065 13.8405 36.9065 13.2183Z" fill="white"/>
<path d="M22.2535 15.653C22.8491 16.7108 23.0535 17.6619 23.3824 18.8175C20.8313 20.853 17.7202 21.1819 14.8046 19.6886C11.7557 17.7597 9.99573 14.9686 8.28906 11.8842L8.5024 11.6264C13.4091 11.6442 19.4002 10.5864 22.2624 15.6619L22.2535 15.653Z" fill="#08E8DE"/>
<path d="M12.0123 13.2621H12.2435C13.3635 13.9199 20.8212 17.3421 21.1946 17.671C21.5146 17.9554 21.3546 18.3554 21.0523 18.3288C17.9857 16.791 14.8479 15.3688 11.8435 13.7154C11.8257 13.4932 11.8257 13.4132 12.0035 13.271L12.0123 13.2621Z" fill="white"/>
<path d="M245.089 31.81V16.19H247.905V22.746H247.553C247.671 22.0713 247.905 21.5213 248.257 21.096C248.609 20.656 249.042 20.3333 249.555 20.128C250.069 19.908 250.633 19.798 251.249 19.798C252.115 19.798 252.841 19.9887 253.427 20.37C254.029 20.7367 254.476 21.2573 254.769 21.932C255.077 22.6067 255.231 23.384 255.231 24.264V31.81H252.415V24.946C252.415 23.9927 252.254 23.2813 251.931 22.812C251.609 22.328 251.103 22.086 250.413 22.086C249.651 22.086 249.042 22.3353 248.587 22.834C248.133 23.3327 247.905 24.0587 247.905 25.012V31.81H245.089Z" fill="#1D0200"/>
<path d="M241.176 31.81C240.003 31.81 239.138 31.5387 238.58 30.996C238.038 30.4533 237.766 29.6027 237.766 28.444V17.312H240.582V28.18C240.582 28.7227 240.7 29.104 240.934 29.324C241.169 29.5293 241.536 29.632 242.034 29.632H243.684V31.81H241.176ZM235.918 22.24V20.062H243.684V22.24H235.918Z" fill="#1D0200"/>
<path d="M234.057 31.81C233.207 31.81 232.525 31.59 232.011 31.15C231.498 30.71 231.241 30.006 231.241 29.038V16.19H234.057V28.752C234.057 29.0453 234.131 29.2653 234.277 29.412C234.439 29.5587 234.659 29.632 234.937 29.632H235.795V31.81H234.057Z" fill="#1D0200"/>
<path d="M222.765 32.074C221.533 32.074 220.543 31.7953 219.795 31.238C219.047 30.666 218.673 29.874 218.673 28.862C218.673 27.85 218.988 27.058 219.619 26.486C220.249 25.914 221.21 25.5033 222.501 25.254L226.395 24.484C226.395 23.648 226.204 23.0247 225.823 22.614C225.441 22.1887 224.877 21.976 224.129 21.976C223.454 21.976 222.919 22.1373 222.523 22.46C222.141 22.768 221.877 23.2153 221.731 23.802L218.871 23.67C219.105 22.4233 219.677 21.47 220.587 20.81C221.496 20.1353 222.677 19.798 224.129 19.798C225.801 19.798 227.062 20.2233 227.913 21.074C228.778 21.91 229.211 23.1127 229.211 24.682V28.95C229.211 29.258 229.262 29.4707 229.365 29.588C229.482 29.7053 229.651 29.764 229.871 29.764H230.245V31.81C230.157 31.8393 230.01 31.8613 229.805 31.876C229.614 31.8907 229.416 31.898 229.211 31.898C228.727 31.898 228.294 31.8247 227.913 31.678C227.531 31.5167 227.238 31.2453 227.033 30.864C226.827 30.468 226.725 29.9327 226.725 29.258L226.967 29.434C226.849 29.9473 226.593 30.4093 226.197 30.82C225.815 31.216 225.331 31.524 224.745 31.744C224.158 31.964 223.498 32.074 222.765 32.074ZM223.337 30.028C223.967 30.028 224.51 29.9033 224.965 29.654C225.419 29.4047 225.771 29.06 226.021 28.62C226.27 28.18 226.395 27.6593 226.395 27.058V26.398L223.359 27.014C222.728 27.146 222.273 27.344 221.995 27.608C221.731 27.8573 221.599 28.1873 221.599 28.598C221.599 29.0527 221.745 29.4047 222.039 29.654C222.347 29.9033 222.779 30.028 223.337 30.028Z" fill="#1D0200"/>
<path d="M212.141 32.074C210.968 32.074 209.949 31.8247 209.083 31.326C208.218 30.8127 207.551 30.094 207.081 29.17C206.612 28.246 206.377 27.168 206.377 25.936C206.377 24.704 206.612 23.6333 207.081 22.724C207.551 21.8 208.211 21.0813 209.061 20.568C209.927 20.0547 210.931 19.798 212.075 19.798C213.19 19.798 214.165 20.0473 215.001 20.546C215.852 21.0447 216.505 21.7633 216.959 22.702C217.414 23.6407 217.641 24.77 217.641 26.09V26.728H209.303C209.362 27.7547 209.641 28.532 210.139 29.06C210.653 29.5733 211.327 29.83 212.163 29.83C212.794 29.83 213.315 29.6907 213.725 29.412C214.151 29.1187 214.444 28.7153 214.605 28.202L217.487 28.378C217.165 29.522 216.527 30.424 215.573 31.084C214.635 31.744 213.491 32.074 212.141 32.074ZM209.303 24.836H214.737C214.679 23.8827 214.407 23.1787 213.923 22.724C213.439 22.2547 212.823 22.02 212.075 22.02C211.327 22.02 210.704 22.262 210.205 22.746C209.721 23.23 209.421 23.9267 209.303 24.836Z" fill="#1D0200"/>
<path d="M192.342 31.81V16.19H195.202V23.648L193.882 22.702H203.078L201.78 23.648V16.19H204.64V31.81H201.78V24.264L203.078 25.188H193.882L195.202 24.264V31.81H192.342Z" fill="#1D0200"/>
<path d="M180.585 32.074C179.411 32.074 178.392 31.8247 177.527 31.326C176.661 30.8127 175.987 30.094 175.503 29.17C175.033 28.246 174.799 27.168 174.799 25.936C174.799 24.704 175.033 23.6333 175.503 22.724C175.987 21.8 176.661 21.0813 177.527 20.568C178.392 20.0547 179.411 19.798 180.585 19.798C181.582 19.798 182.469 19.974 183.247 20.326C184.024 20.678 184.655 21.184 185.139 21.844C185.637 22.4893 185.945 23.2813 186.063 24.22L183.159 24.374C183.041 23.626 182.748 23.0613 182.279 22.68C181.824 22.284 181.259 22.086 180.585 22.086C179.675 22.086 178.971 22.4307 178.473 23.12C177.974 23.7947 177.725 24.7333 177.725 25.936C177.725 27.1533 177.974 28.0993 178.473 28.774C178.971 29.4487 179.675 29.786 180.585 29.786C181.274 29.786 181.846 29.588 182.301 29.192C182.77 28.796 183.056 28.18 183.159 27.344L186.063 27.476C185.945 28.4147 185.645 29.2287 185.161 29.918C184.677 30.6073 184.046 31.1427 183.269 31.524C182.491 31.8907 181.597 32.074 180.585 32.074Z" fill="#1D0200"/>
<path d="M170.448 31.81V20.062H173.264V31.81H170.448ZM170.404 18.5V15.992H173.33V18.5H170.404Z" fill="#1D0200"/>
<path d="M166.534 31.81C165.361 31.81 164.496 31.5387 163.938 30.996C163.396 30.4533 163.124 29.6027 163.124 28.444V17.312H165.94V28.18C165.94 28.7227 166.058 29.104 166.292 29.324C166.527 29.5293 166.894 29.632 167.392 29.632H169.042V31.81H166.534ZM161.276 22.24V20.062H169.042V22.24H161.276Z" fill="#1D0200"/>
<path d="M155.659 32.074C154.5 32.074 153.525 31.9053 152.733 31.568C151.956 31.2307 151.354 30.7613 150.929 30.16C150.504 29.5587 150.262 28.8767 150.203 28.114L153.085 27.982C153.188 28.598 153.444 29.0747 153.855 29.412C154.266 29.7493 154.874 29.918 155.681 29.918C156.341 29.918 156.854 29.8153 157.221 29.61C157.602 29.39 157.793 29.0527 157.793 28.598C157.793 28.334 157.727 28.114 157.595 27.938C157.463 27.762 157.214 27.608 156.847 27.476C156.48 27.344 155.938 27.212 155.219 27.08C154.016 26.8747 153.07 26.6253 152.381 26.332C151.692 26.024 151.2 25.6427 150.907 25.188C150.628 24.7333 150.489 24.1687 150.489 23.494C150.489 22.394 150.907 21.5067 151.743 20.832C152.594 20.1427 153.833 19.798 155.461 19.798C156.517 19.798 157.404 19.974 158.123 20.326C158.842 20.6633 159.399 21.1327 159.795 21.734C160.206 22.3207 160.462 22.9953 160.565 23.758L157.727 23.89C157.654 23.494 157.522 23.1493 157.331 22.856C157.14 22.5627 156.884 22.3427 156.561 22.196C156.238 22.0347 155.857 21.954 155.417 21.954C154.757 21.954 154.258 22.086 153.921 22.35C153.584 22.614 153.415 22.966 153.415 23.406C153.415 23.714 153.488 23.9707 153.635 24.176C153.796 24.3813 154.053 24.55 154.405 24.682C154.757 24.7993 155.226 24.9093 155.813 25.012C157.045 25.2027 158.013 25.452 158.717 25.76C159.436 26.0533 159.942 26.4347 160.235 26.904C160.543 27.3587 160.697 27.9087 160.697 28.554C160.697 29.302 160.484 29.94 160.059 30.468C159.648 30.996 159.062 31.3993 158.299 31.678C157.551 31.942 156.671 32.074 155.659 32.074Z" fill="#1D0200"/>
<path d="M145.851 31.81V20.062H148.667V31.81H145.851ZM145.807 18.5V15.992H148.733V18.5H145.807Z" fill="#1D0200"/>
<path d="M142.968 31.81C142.117 31.81 141.435 31.59 140.922 31.15C140.409 30.71 140.152 30.006 140.152 29.038V16.19H142.968V28.752C142.968 29.0453 143.041 29.2653 143.188 29.412C143.349 29.5587 143.569 29.632 143.848 29.632H144.706V31.81H142.968Z" fill="#1D0200"/>
<path d="M132.768 32.074C131.609 32.074 130.59 31.8247 129.71 31.326C128.844 30.8127 128.17 30.094 127.686 29.17C127.216 28.246 126.982 27.168 126.982 25.936C126.982 24.6893 127.216 23.6113 127.686 22.702C128.17 21.778 128.844 21.0667 129.71 20.568C130.59 20.0547 131.609 19.798 132.768 19.798C133.926 19.798 134.938 20.0547 135.804 20.568C136.669 21.0667 137.336 21.778 137.806 22.702C138.29 23.6113 138.532 24.6893 138.532 25.936C138.532 27.168 138.29 28.246 137.806 29.17C137.336 30.094 136.669 30.8127 135.804 31.326C134.938 31.8247 133.926 32.074 132.768 32.074ZM132.768 29.786C133.677 29.786 134.374 29.4487 134.858 28.774C135.356 28.0993 135.606 27.1533 135.606 25.936C135.606 24.7333 135.356 23.7947 134.858 23.12C134.374 22.4307 133.677 22.086 132.768 22.086C131.858 22.086 131.154 22.4307 130.656 23.12C130.157 23.7947 129.908 24.7333 129.908 25.936C129.908 27.1533 130.157 28.0993 130.656 28.774C131.154 29.4487 131.858 29.786 132.768 29.786Z" fill="#1D0200"/>
<path d="M112.946 31.81V16.19H115.806V23.648L114.486 22.702H123.682L122.384 23.648V16.19H125.244V31.81H122.384V24.264L123.682 25.188H114.486L115.806 24.264V31.81H112.946Z" fill="#1D0200"/>
<path d="M94.4573 31.81V16.19H100.507C102.341 16.19 103.771 16.63 104.797 17.51C105.824 18.39 106.337 19.6073 106.337 21.162C106.337 22.2033 106.103 23.1053 105.633 23.868C105.164 24.616 104.497 25.188 103.631 25.584C102.766 25.98 101.725 26.178 100.507 26.178H97.3173V31.81H94.4573ZM97.3173 23.692H100.375C101.343 23.692 102.084 23.4793 102.597 23.054C103.125 22.6287 103.389 21.998 103.389 21.162C103.389 20.3407 103.125 19.7247 102.597 19.314C102.084 18.8887 101.343 18.676 100.375 18.676H97.3173V23.692Z" fill="#1D0200"/>
<path d="M85.7717 32.162C84.349 32.162 83.095 31.8393 82.0097 31.194C80.9244 30.534 80.0737 29.6027 79.4577 28.4C78.8417 27.1827 78.5337 25.7233 78.5337 24.022C78.5337 22.35 78.8344 20.9053 79.4357 19.688C80.037 18.456 80.8804 17.51 81.9657 16.85C83.051 16.1753 84.327 15.838 85.7937 15.838C87.7884 15.838 89.3357 16.3367 90.4357 17.334C91.5357 18.3167 92.2544 19.6953 92.5917 21.47L89.5997 21.624C89.409 20.5973 88.9984 19.7907 88.3677 19.204C87.737 18.6173 86.879 18.324 85.7937 18.324C84.9137 18.324 84.151 18.5587 83.5057 19.028C82.8604 19.4973 82.3617 20.1573 82.0097 21.008C81.6577 21.8587 81.4817 22.8633 81.4817 24.022C81.4817 25.1953 81.6577 26.2073 82.0097 27.058C82.3764 27.894 82.8824 28.5393 83.5277 28.994C84.173 29.4487 84.921 29.676 85.7717 29.676C86.9304 29.676 87.825 29.3607 88.4557 28.73C89.101 28.0847 89.5117 27.2047 89.6877 26.09L92.6797 26.244C92.4744 27.4613 92.0784 28.5173 91.4917 29.412C90.905 30.292 90.1277 30.974 89.1597 31.458C88.2064 31.9273 87.077 32.162 85.7717 32.162Z" fill="#1D0200"/>
<path d="M60.5 31.81V16.19H64.35L68.662 28.29L72.974 16.19H76.824V31.81H73.964V21.03L70.026 31.788H67.298L63.36 21.03V31.81H60.5Z" fill="#1D0200"/>
</svg>
