<svg width="121" height="120" viewBox="0 0 121 120" fill="none" xmlns="http://www.w3.org/2000/svg">
<path d="M0.5 60C0.5 26.8629 27.3629 0 60.5 0C93.6371 0 120.5 26.8629 120.5 60C120.5 93.1371 93.6371 120 60.5 120C27.3629 120 0.5 93.1371 0.5 60Z" fill="none"/>
<path d="M60.5032 78.7132C61.3938 79.1581 61.9879 79.3073 61.9879 79.6043C61.9879 80.1984 61.9879 83.2679 61.9879 84.3568C61.9879 85.4012 61.9884 86.2826 61.9884 87.3271C61.9884 87.7937 61.9884 88.3455 61.9884 88.8122C61.9884 89.7455 61.9884 90.5521 61.9884 91.4855C61.9884 92.1299 62.0106 93.5143 61.9884 94.1587C61.9884 96.4032 62.2156 108.645 61.9933 109.512C61.8822 109.956 61.3085 110.495 60.5032 110.495C59.698 110.495 59.1959 110.041 59.0181 109.307C58.7736 108.218 58.8156 89.9339 58.8378 87.0672C58.8378 86.1339 58.8378 85.1783 58.8378 84.245C58.8378 83.7224 58.8706 81.109 58.9277 79.4663C58.9562 78.6432 59.5357 78.2332 60.2736 78.5988C60.3497 78.6365 60.4265 78.6749 60.5032 78.7132Z" fill="#08E8DE"/>
<path d="M58.1221 90.9097C58.1221 91.4492 57.8229 91.936 57.4137 92.2875C55.6198 93.8282 54.0446 97.2707 57.5952 100.797C57.9181 101.118 58.1216 101.238 58.1215 101.693C58.1213 102.866 56.8833 103.915 55.9924 103.153C51.261 99.1032 52.015 91.9093 56.4192 89.6774C57.2556 89.2535 58.1221 89.972 58.1221 90.9097Z" fill="#1D0200"/>
<path d="M62.874 91.2066C62.874 91.7461 63.1732 92.2329 63.5824 92.5844C65.3763 94.1251 66.9515 97.5675 63.4009 101.094C63.078 101.415 62.8745 101.535 62.8746 101.99C62.8748 103.163 64.1128 104.212 65.0037 103.449C69.7351 99.4001 68.9811 92.2062 64.5769 89.9743C63.7405 89.5504 62.874 90.2689 62.874 91.2066Z" fill="#1D0200"/>
<path d="M58.8524 59.1784C59.5413 59.7117 59.2028 59.4744 59.9013 60.0001C60.7924 60.5942 62.2331 61.463 62.2775 61.4853C63.5664 62.3297 65.4302 63.2451 66.5191 64.0895C73.0872 69.2423 67.8751 75.8036 63.5537 75.1222C63.5119 75.1156 63.5073 75.1172 63.4656 75.1095C63.0759 75.0367 62.7353 74.6575 62.7353 74.261V73.7996C62.7353 73.1096 63.3181 72.5783 63.9952 72.4453C66.7195 71.9105 67.7428 69.1937 65.2524 66.8006C63.7627 65.6437 63.4657 65.6437 62.1413 64.8006C62.0302 64.7117 61.9191 64.6451 61.7857 64.5562C59.6524 63.0451 53.9413 59.5117 52.7635 57.5784C50.5452 53.9503 53.2775 49.5226 57.1726 49.1255C57.7089 49.0708 58.1506 49.3851 58.167 49.9239C58.202 51.077 57.3577 51.72 56.3533 52.2874C55.9789 52.4989 55.6129 52.8018 55.3413 53.2451C53.8079 55.6895 56.0606 56.9675 58.4162 58.812L58.8524 59.1784Z" fill="#1D0200"/>
<path d="M58.5269 78.2126C58.5805 79.1293 57.9576 79.7835 57.2726 80.3951C56.3314 81.2356 55.6088 82.4958 57.2694 83.5266C57.9133 83.9263 58.4167 84.5521 58.4167 85.31C58.4167 86.2659 57.6457 87.1095 56.7259 86.8491C53.4962 85.9347 52.335 81.8685 54.5402 78.8004C55.447 77.8501 56.3487 77.3656 57.1169 77.1309C57.8368 76.911 58.4829 77.4611 58.5269 78.2126Z" fill="#1D0200"/>
<path d="M67.0724 84.1224C67.058 84.1296 67.0464 84.1418 67.0396 84.1564C66.4026 85.5252 65.5772 86.2789 64.4693 86.7603C63.6122 87.1326 62.7331 86.4051 62.7331 85.4706C62.7331 84.7129 63.3512 84.1457 64.0183 83.7863C65.9516 82.7446 64.5572 79.7958 62.2777 78.713C61.5002 78.3242 60.7481 77.8856 60.0039 77.4362C57.4495 75.8936 53.6583 74.2878 52.4279 72.0002C50.3797 68.1935 52.8681 64.0003 56.6351 63.2049C57.6399 62.9928 58.5673 63.845 58.4633 64.8666C58.3476 66.0026 57.695 65.397 56.4724 66.0669C55.0279 66.8669 54.3168 68.5336 54.7835 70.1113C55.8269 73.7298 70.5976 76.4613 67.1054 84.0878C67.0987 84.1024 67.0868 84.1152 67.0724 84.1224Z" fill="#1D0200"/>
<path d="M61.7844 65.5042C61.995 65.6727 62.1399 65.9106 62.1399 66.1803L62.1399 71.4881C62.1399 72.8318 60.5105 73.6211 59.3278 72.9834C58.9198 72.7634 59.0133 72.536 59.0171 72.0725C59.0263 70.9538 59.0449 68.7595 59.0418 66.8536C59.0398 65.5404 60.5885 64.6868 61.6789 65.4185L61.8066 65.5042H61.7844Z" fill="#08E8DE"/>
<path d="M62.1602 53.7697C62.1602 55.8364 62.1378 55.9318 62.1378 57.9984C62.1378 58.9318 62.1378 58.8792 62.1378 59.8125C62.1378 60.23 61.6647 60.4919 61.3164 60.2616C61.2462 60.2153 61.1701 60.1647 61.0873 60.1095C60.6737 59.8252 60.2635 59.5497 59.8614 59.264C59.315 58.8757 59.0287 58.2283 59.0409 57.5581C59.0639 56.2985 59.0323 55.139 59.013 53.9324C58.9963 52.8884 60.0926 52.3972 61.0943 52.6919C61.1727 52.715 61.2562 52.7375 61.3462 52.7602C61.8154 52.878 62.1602 53.2859 62.1602 53.7697Z" fill="#08E8DE"/>
<path d="M62.0259 28.9555C60.9592 29.1333 60.1592 29.0888 59.0925 28.9555C59.3148 25.0666 58.9148 26.511 56.9814 24.7333C51.8925 20.0222 56.537 12.911 60.5592 9.2666C62.5148 11.7555 65.737 14.5999 66.1148 17.8888C66.8925 24.3555 62.1592 25.7333 62.0036 26.1999C61.8925 26.511 62.0703 28.2666 62.0036 28.9555H62.0259Z" fill="#08E8DE"/>
<path d="M59.1139 28.9552C60.1806 29.0885 60.9806 29.133 62.0472 28.9552C64.4472 28.5552 66.8028 26.4663 67.7361 26.2663C70.4472 25.6663 72.425 28.1107 71.2028 30.5996C69.5806 33.8441 66.5139 30.7552 66.225 30.7107C65.8694 30.6663 62.825 31.9774 62.0694 32.1774V48.933C70.9612 49.017 71.7247 58.9192 63.9944 60.4224C63.2397 60.5691 62.5855 59.966 62.5855 59.1971C62.5855 58.4902 63.1443 57.9063 63.8297 57.733C67.8142 56.7254 67.2807 52.3182 62.2028 51.6885C61.9193 51.6523 61.6424 51.6243 61.3685 51.6036C60.1694 51.513 59.1716 50.5741 59.1909 49.3717C59.2727 44.2605 59.4545 33.0512 59.1583 32.3107C59.0917 32.133 56.1361 31.0663 55.7583 30.9552C54.2917 30.5552 54.625 31.3107 53.5806 31.7774C50.7806 33.0219 48.225 29.9107 50.0028 27.3774C52.3806 24.0219 55.9139 28.5552 59.1361 28.9552H59.1139Z" fill="#1D0200"/>
<path d="M100.824 30.467C100.757 30.667 99.4681 32.8003 99.1792 33.2892C96.4458 37.8448 92.3347 43.4892 88.1569 46.7559C86.7347 47.867 85.2236 48.9114 83.5792 49.6892C76.6681 52.9559 69.0236 52.0003 63.3125 46.9337C65.6014 35.7559 72.868 29.6225 84.2236 28.9559C85.9347 28.8448 99.5125 28.7559 100.268 28.9559C101.046 29.1559 101.001 29.8448 100.801 30.4892L100.824 30.467Z" fill="#08E8DE"/>
<path d="M91.5123 33.0454C92.0012 33.0676 92.2456 34.2676 91.8678 34.5787C84.1345 38.2899 76.5345 42.5121 68.6678 45.8232C67.9789 45.2454 68.1123 44.7121 68.7789 44.1787C69.7789 43.401 88.5123 34.601 91.5123 33.0454Z" fill="white"/>
<path d="M54.8877 39.1331C56.3766 41.7775 56.8877 44.1553 57.7099 47.0442C51.3321 52.1331 43.5543 52.9553 36.2655 49.222C28.6432 44.3997 24.2432 37.422 19.9766 29.7109L20.5099 29.0664C32.7766 29.1109 47.7543 26.4664 54.9099 39.1553L54.8877 39.1331Z" fill="#08E8DE"/>
<path d="M29.2887 33.1562H29.8664C32.6664 34.8007 51.3109 43.3562 52.2442 44.1785C53.0442 44.8896 52.6442 45.8896 51.8887 45.8229C44.222 41.9785 36.3776 38.4229 28.8664 34.2896C28.822 33.734 28.822 33.534 29.2664 33.1785L29.2887 33.1562Z" fill="white"/>
</svg>
