<svg width="16" height="16" viewBox="0 0 16 16" fill="none" xmlns="http://www.w3.org/2000/svg">
<path d="M14.6861 12.0733L12.524 9.9061C12.0934 9.47621 11.3802 9.48927 10.9346 9.9361L9.84533 11.0276C9.77651 10.9896 9.70528 10.9499 9.63039 10.9077C8.94253 10.5257 8.00108 10.0022 7.01039 9.00851C6.01678 8.01276 5.4939 7.06772 5.1116 6.37786C5.07126 6.30478 5.03261 6.23431 4.99444 6.16739L5.72549 5.43577L6.08491 5.07509C6.53124 4.62763 6.54355 3.91305 6.11391 3.48192L3.95183 1.31445C3.52219 0.883917 2.80871 0.896979 2.36238 1.34444L1.75303 1.95868L1.76968 1.97525C1.56536 2.23655 1.39462 2.53793 1.26756 2.86292C1.15044 3.17228 1.07752 3.46748 1.04418 3.76329C0.758688 6.13542 1.84023 8.30337 4.7754 11.2452C8.83268 15.3114 12.1023 15.0043 12.2434 14.9893C12.5506 14.9525 12.845 14.8789 13.1442 14.7624C13.4657 14.6366 13.7661 14.4657 14.0267 14.2613L14.04 14.2732L14.6573 13.6673C15.1027 13.22 15.1156 12.5051 14.6861 12.0733Z" fill="#9FA8B0"/>
</svg>
