<svg width="16" height="16" viewBox="0 0 16 16" fill="none" xmlns="http://www.w3.org/2000/svg">
<path d="M13.8066 1.55948C13.4136 1.1937 11.8252 0.0273433 8.28722 0.0115068C8.28722 0.0115068 4.11546 -0.243212 2.08166 1.64422C0.949681 2.78954 0.551356 4.46489 0.5092 6.54338C0.467527 8.62182 0.412769 12.5155 4.1237 13.5717L4.1271 13.5726L4.12515 15.1838C4.12515 15.1838 4.10189 15.8364 4.52591 15.969C5.03957 16.1304 5.34097 15.6344 5.83137 15.1C6.10079 14.807 6.47197 14.3761 6.75208 14.0467C9.29033 14.2617 11.2422 13.7685 11.4637 13.6957C11.9764 13.5272 14.8761 13.1518 15.3476 9.25815C15.8341 5.24339 15.1116 2.7048 13.8066 1.55948ZM14.2452 8.96798C13.8464 12.2196 11.4952 12.4249 11.062 12.5657C10.8773 12.6255 9.16239 13.057 7.00696 12.9143L4.67033 15.473L4.6679 12.5245L4.64949 12.5198C1.51035 11.6378 1.61598 8.33116 1.65136 6.59551C1.68674 4.85986 2.00899 3.43781 2.96701 2.48167C4.68681 0.90544 8.23055 1.14103 8.23055 1.14103C11.2233 1.15443 12.6577 2.06558 12.9901 2.37106C14.094 3.32773 14.6566 5.6159 14.2452 8.96798Z" fill="#AA5ABE"/>
<path d="M11.5432 9.45301C11.5417 9.45159 11.0674 9.05179 10.8357 8.87942C10.6171 8.71712 10.2687 8.49878 10.0739 8.38768C9.72455 8.19091 9.36742 8.31443 9.22009 8.50787L8.91385 8.89716C8.75686 9.09442 8.51505 9.06137 8.45156 9.04846C7.99897 8.93639 7.51778 8.65678 7.02541 8.18563C6.52729 7.71022 6.22585 7.21369 6.1183 6.69755L6.11053 6.66352C6.08144 6.4514 6.11732 6.35326 6.20501 6.2087L6.22149 6.19526C6.42841 6.00518 6.81175 5.77394 6.86308 5.55365C7.01378 5.1711 6.35962 4.37344 6.26608 4.23266C6.26608 4.23266 5.79023 3.61022 5.62112 3.49145C5.43841 3.34113 5.15542 3.25541 4.87001 3.42875L4.85547 3.43927C4.03556 3.98749 3.7385 4.30255 3.81943 4.77276L3.86158 4.96186C4.27735 6.25702 5.0803 7.6379 6.27771 8.86748C7.46201 10.0817 8.74326 10.809 10.0061 11.3127C10.3342 11.4204 10.6743 11.3275 11.0232 11.0331L11.0291 11.0288C11.2965 10.7817 11.5083 10.5174 11.6663 10.2344L11.6677 10.2287C11.8213 9.92944 11.7695 9.64597 11.5432 9.45301Z" fill="#AA5ABE"/>
<path d="M9.57734 6.61687C9.52741 6.61687 9.48574 6.57716 9.48331 6.5264C9.46683 6.19075 9.37527 5.93364 9.21097 5.76176C9.0477 5.59129 8.80297 5.49603 8.48411 5.47877C8.43225 5.47589 8.39206 5.4309 8.39497 5.37823C8.39785 5.32557 8.44195 5.28537 8.4943 5.28776C8.86256 5.30786 9.14896 5.42278 9.34667 5.62914C9.5434 5.83501 9.65292 6.1333 9.67182 6.51682C9.67425 6.56948 9.63401 6.61403 9.58219 6.61687H9.57734Z" fill="#AA5ABE"/>
<path d="M10.5116 6.93372H10.5092C10.4573 6.93225 10.4161 6.88868 10.4171 6.83602C10.4316 6.19157 10.2412 5.64668 9.85063 5.21577C9.65633 5.00076 9.42031 4.83083 9.14846 4.71064C8.87616 4.59044 8.55874 4.51626 8.20597 4.4899C8.15411 4.48605 8.11486 4.44012 8.11873 4.38794C8.12263 4.33528 8.16767 4.29552 8.21953 4.29934C8.97257 4.35538 9.56814 4.62013 9.99019 5.08697C10.4142 5.55479 10.6216 6.14511 10.6061 6.84036C10.6047 6.8925 10.5625 6.93372 10.5116 6.93372Z" fill="#AA5ABE"/>
<path d="M11.4683 7.31216C11.4164 7.31216 11.3743 7.27006 11.3738 7.21735C11.3695 6.64761 11.2827 6.13236 11.115 5.68522C10.9483 5.24135 10.6968 4.85113 10.3673 4.52556C10.0373 4.20043 9.66224 3.95241 9.25227 3.78816C8.84135 3.62346 8.38342 3.53827 7.89109 3.5349C7.83923 3.53441 7.79707 3.49133 7.79756 3.43866C7.79805 3.386 7.84022 3.34385 7.89208 3.34385H7.89253C8.92618 3.35152 9.80275 3.70297 10.4991 4.38908C10.8485 4.73382 11.115 5.14703 11.2914 5.61769C11.4668 6.08546 11.558 6.62365 11.5628 7.21593C11.5633 7.26859 11.5211 7.31168 11.4693 7.31216H11.4683Z" fill="#AA5ABE"/>
</svg>
