<svg width="16" height="16" viewBox="0 0 16 16" fill="none" xmlns="http://www.w3.org/2000/svg">
<path fill-rule="evenodd" clip-rule="evenodd" d="M4.33786 6.21007C4.31029 5.84378 4.38218 5.47685 4.54603 5.1478C4.59594 5.0167 4.66533 4.89381 4.75186 4.78324C4.90632 4.57508 5.11272 4.41075 5.35056 4.30653C5.35056 4.30653 6.05747 4.23739 6.11863 4.33208C6.44622 4.89865 6.72027 5.49432 6.93726 6.1114C7.04548 6.51499 6.47738 6.97564 6.47738 6.97564C6.47738 6.97564 6.11746 7.15845 6.47738 7.61113C6.74555 7.94897 7.20192 8.53771 7.47598 8.75508C7.76547 8.9911 8.07345 9.20369 8.39696 9.39081C9.06622 9.76052 9.19089 9.72115 9.19089 9.72115C9.19089 9.72115 9.31439 9.77142 9.65078 9.31452C9.83074 9.07195 10.0272 8.78719 10.2142 8.72977C10.4306 8.6638 12.1784 9.66385 12.109 9.594C12.2314 9.71693 12.1349 10.111 12.1349 10.111C12.1349 10.111 12.1726 10.5519 11.5068 11.0602C11.0681 11.3955 10.3424 11.4753 10.3424 11.4753C9.88544 11.4427 9.43633 11.3399 9.01093 11.1706C8.30168 10.9042 7.55242 10.6801 6.57969 9.79802C5.90396 9.1867 5.31691 8.48468 4.8354 7.71214C4.32375 6.83314 4.33786 6.21007 4.33786 6.21007ZM8.15347 15.6441C6.79728 15.6461 5.46382 15.297 4.28374 14.6312L0 16L1.40792 11.8322C0.519424 10.3498 0.148235 8.61609 0.352202 6.90147C0.556168 5.18685 1.32382 3.58764 2.53551 2.35317C3.74719 1.1187 5.33481 0.318344 7.05084 0.0768787C8.76686 -0.164586 10.5149 0.16641 12.0223 1.01827C13.5298 1.87012 14.7119 3.19496 15.3846 4.78624C16.0572 6.37752 16.1824 8.1458 15.7408 9.81542C15.2991 11.485 14.3154 12.9622 12.943 14.0165C11.5705 15.0708 9.88653 15.6431 8.15347 15.6441ZM8.14052 1.33216C6.93523 1.3277 5.75206 1.65444 4.72108 2.27647C3.69009 2.89851 2.85122 3.79173 2.29673 4.85794C1.74224 5.92415 1.49359 7.12204 1.57812 8.31991C1.66264 9.51778 2.07709 10.6692 2.77586 11.6477L2.15129 13.5343L2.15364 13.5361L1.97132 14.0682L3.03109 13.7547C3.0294 13.7527 3.02741 13.751 3.0252 13.7496L4.479 13.2937C5.3302 13.8666 6.30443 14.2325 7.32338 14.362C8.34233 14.4915 9.37756 14.381 10.3459 14.0394C11.3141 13.6978 12.1885 13.1346 12.8985 12.3951C13.6086 11.6556 14.1346 10.7604 14.4343 9.7815C14.7339 8.80261 14.7988 7.76734 14.6238 6.7589C14.4488 5.75047 14.0387 4.79702 13.4266 3.9752C12.8144 3.15338 12.0173 2.48613 11.0992 2.02709C10.1811 1.56805 9.16773 1.33003 8.14052 1.33216V1.33216Z" fill="#00C232"/>
</svg>
