<svg width="16" height="15" viewBox="0 0 16 15" fill="none" xmlns="http://www.w3.org/2000/svg">
<path d="M0.980919 6.57604C0.980919 6.57604 8.05733 3.50275 10.5116 2.42061C11.4524 1.98775 14.6429 0.602601 14.6429 0.602601C14.6429 0.602601 16.1154 -0.00340113 15.9927 1.46832C15.9518 2.07432 15.6246 4.19532 15.2974 6.48947C14.8065 9.73591 14.2748 13.2853 14.2748 13.2853C14.2748 13.2853 14.193 14.2809 13.4976 14.4541C12.8022 14.6272 11.6569 13.8481 11.4524 13.6749C11.2888 13.5451 8.38457 11.5972 7.32106 10.6449C7.03473 10.3852 6.7075 9.86577 7.36196 9.25977C8.83451 7.83133 10.5934 6.05662 11.6569 4.93118C12.1477 4.41175 12.6386 3.19975 10.5934 4.67147C7.6892 6.79247 4.82591 8.78362 4.82591 8.78362C4.82591 8.78362 4.17144 9.21648 2.94432 8.82691C1.71719 8.43734 0.285549 7.91791 0.285549 7.91791C0.285549 7.91791 -0.69615 7.26862 0.980919 6.57604Z" fill="#35AEE2"/>
</svg>
