<svg width="44" height="44" viewBox="0 0 44 44" fill="none" xmlns="http://www.w3.org/2000/svg">
<path d="M23.2343 44C22.3214 44 21.4084 44 20.4954 44C20.3927 43.9771 20.2786 43.9312 20.1759 43.9312C18.2244 43.7935 16.3186 43.3803 14.4812 42.7032C3.66257 38.7898 -2.28313 27.1758 0.82096 16.0438C4.66684 2.2379 20.4384 -4.24619 32.8319 2.99534C38.6749 6.40379 42.1784 11.5681 43.4109 18.2588C43.5593 19.0392 43.6278 19.8425 43.7419 20.6344C43.7419 21.518 43.7419 22.4132 43.7419 23.2969C43.719 23.4346 43.6848 23.5723 43.6734 23.71C43.5593 24.5707 43.4794 25.4429 43.3196 26.3036C41.6192 35.1518 34.4981 42.1524 25.6423 43.6672C24.8434 43.8049 24.0332 43.8853 23.2343 44ZM21.9105 11.0058C20.4612 11.0058 19.0118 11.0058 17.5511 11.0058C13.7965 11.0172 10.9321 13.8978 10.9321 17.6735C10.9321 20.5655 10.9321 23.4575 10.9321 26.3495C10.9435 30.1023 13.8079 32.9943 17.5283 32.9943C20.4155 33.0058 23.3028 33.0058 26.2015 32.9943C29.9332 32.9828 32.7977 30.1023 32.7977 26.3495C32.8091 23.446 32.8091 20.5311 32.7977 17.6276C32.7863 13.8978 29.9218 11.0172 26.2243 11.0058C24.7864 11.0058 23.3484 11.0058 21.9105 11.0058Z" fill="#48BF84"/>
</svg>
