<?xml version="1.0" encoding="UTF-8"?> <svg xmlns="http://www.w3.org/2000/svg" xmlns:xlink="http://www.w3.org/1999/xlink" width="1000pt" height="1000pt" viewBox="0 0 1000 1000"> <g id="surface1"> <path style=" stroke:none;fill-rule:nonzero;fill:rgb(77.734375%,74.414063%,51.367188%);fill-opacity:1;" d="M 569.261719 864.285156 L 579.160156 864.285156 L 579.160156 891.441406 L 616.34375 891.441406 L 616.34375 864.285156 L 626.242188 864.285156 L 626.242188 930 L 616.34375 930 L 616.34375 899.265625 L 579.160156 899.265625 L 579.160156 930 L 569.261719 930 "></path> <path style=" stroke:none;fill-rule:nonzero;fill:rgb(77.734375%,74.414063%,51.367188%);fill-opacity:1;" d="M 640.269531 864.285156 L 692.769531 864.285156 L 692.769531 872.339844 L 649.824219 872.339844 L 649.824219 892.289063 L 689.519531 892.289063 L 689.519531 899.894531 L 649.824219 899.894531 L 649.824219 922.171875 L 693.507813 922.171875 L 693.507813 930 L 640.269531 930 "></path> <path style=" stroke:none;fill-rule:nonzero;fill:rgb(77.734375%,74.414063%,51.367188%);fill-opacity:1;" d="M 741.21875 903.070313 L 730.238281 874.039063 L 718.566406 903.070313 Z M 725.117188 864.285156 L 736.195313 864.285156 L 762.445313 930 L 751.710938 930 L 744.371094 910.316406 L 715.757813 910.316406 L 707.929688 930 L 697.882813 930 "></path> <path style=" stroke:none;fill-rule:nonzero;fill:rgb(77.734375%,74.414063%,51.367188%);fill-opacity:1;" d="M 768.839844 864.285156 L 778.636719 864.285156 L 778.636719 922.171875 L 814.933594 922.171875 L 814.933594 930 L 768.839844 930 "></path> <path style=" stroke:none;fill-rule:nonzero;fill:rgb(77.734375%,74.414063%,51.367188%);fill-opacity:1;" d="M 867.570313 864.285156 L 867.570313 872.113281 L 843.195313 872.113281 L 843.195313 930 L 833.296875 930 L 833.296875 872.113281 L 808.917969 872.113281 L 808.917969 864.285156 "></path> <path style=" stroke:none;fill-rule:nonzero;fill:rgb(77.734375%,74.414063%,51.367188%);fill-opacity:1;" d="M 874.308594 864.285156 L 884.210938 864.285156 L 884.210938 891.441406 L 921.394531 891.441406 L 921.394531 864.285156 L 931.289063 864.285156 L 931.289063 930 L 921.394531 930 L 921.394531 899.265625 L 884.210938 899.265625 L 884.210938 930 L 874.308594 930 "></path> <path style=" stroke:none;fill-rule:nonzero;fill:rgb(77.734375%,74.414063%,51.367188%);fill-opacity:1;" d="M 237.628906 422.5 C 228.582031 363.238281 233.042969 331.710938 244.542969 291.414063 C 254.089844 257.976563 267.035156 228.671875 287.832031 189.753906 C 308.277344 151.503906 337.832031 126.152344 361.246094 105.214844 C 346.753906 125.835938 328.21875 159.128906 315.84375 187.382813 C 304.214844 213.925781 293.460938 249.222656 287.210938 286.730469 C 282.078125 317.535156 280.519531 351.265625 287.628906 395.578125 C 294.632813 439.21875 309.347656 468.859375 335.667969 508.023438 C 357.832031 541.003906 381.945313 565.296875 405.632813 583.535156 C 427.542969 600.402344 449.652344 604.046875 492.234375 628.316406 C 462.554688 628.5625 404.445313 620.601563 372.90625 606.402344 C 340.640625 591.859375 313.566406 571.3125 288.21875 540.402344 C 263.25 509.960938 244.777344 469.316406 237.628906 422.5 "></path> <path style=" stroke:none;fill-rule:nonzero;fill:rgb(77.734375%,74.414063%,51.367188%);fill-opacity:1;" d="M 371.394531 160.925781 C 373.210938 185.117188 376.027344 209.0625 380.398438 232.589844 C 384.773438 256.070313 390.554688 279.234375 399.277344 300.773438 C 401.496094 306.121094 403.792969 311.425781 406.453125 316.46875 C 409.015625 321.570313 412.703125 326.25 415.722656 331.164063 L 435.347656 360.222656 C 448.34375 379.867188 461.917969 399.988281 470.945313 423.835938 C 465.472656 420.488281 460.460938 416.800781 455.613281 412.949219 C 450.679688 409.175781 446.082031 405.109375 441.582031 400.925781 C 432.609375 392.546875 424.261719 383.492188 416.710938 373.671875 C 409.175781 363.851563 402.351563 353.324219 396.753906 342.039063 C 393.863281 336.417969 391.734375 330.496094 389.191406 324.640625 C 386.601563 318.804688 384.445313 312.855469 382.453125 306.886719 C 374.808594 282.910156 371.046875 258.375 369.46875 233.9375 C 368.039063 209.492188 368.308594 185.042969 371.394531 160.925781 "></path> <path style=" stroke:none;fill-rule:nonzero;fill:rgb(77.734375%,74.414063%,51.367188%);fill-opacity:1;" d="M 355.480469 235.152344 C 352.601563 250.507813 351.546875 266.109375 351.539063 281.660156 C 351.46875 297.210938 352.429688 312.753906 354.492188 328.136719 C 356.632813 343.507813 359.386719 358.796875 363.246094 373.820313 C 367.089844 388.84375 371.859375 403.628906 377.476563 418.078125 C 383.101563 432.523438 389.296875 446.761719 396.386719 460.570313 C 403.488281 474.328125 411.59375 487.652344 419.585938 501.046875 C 435.308594 527.941406 452.707031 554.242188 464.550781 583.289063 C 457.613281 569.277344 449.375 556.035156 440.945313 542.90625 C 432.636719 529.707031 424.03125 516.675781 415.574219 503.527344 C 407.144531 490.355469 399.023438 476.960938 391.5625 463.078125 C 384.304688 449.140625 377.621094 434.867188 372.089844 420.140625 C 361.085938 390.691406 353.191406 359.949219 350.160156 328.636719 C 347.175781 297.429688 347.707031 265.515625 355.480469 235.152344 "></path> <path style=" stroke:none;fill-rule:nonzero;fill:rgb(77.734375%,74.414063%,51.367188%);fill-opacity:1;" d="M 357.859375 500.273438 C 363.832031 501.859375 369.554688 503.933594 375.203125 506.164063 C 380.859375 508.363281 386.382813 510.84375 391.886719 513.355469 C 397.347656 515.953125 402.785156 518.589844 408.113281 521.46875 C 413.480469 524.285156 418.710938 527.285156 424.019531 530.421875 C 417.878906 529.578125 411.996094 527.691406 406.261719 525.648438 C 400.511719 523.605469 394.9375 521.175781 389.410156 518.65625 C 383.929688 516.03125 378.5 513.316406 373.230469 510.269531 C 367.945313 507.253906 362.765625 504.035156 357.859375 500.273438 "></path> <path style=" stroke:none;fill-rule:nonzero;fill:rgb(77.734375%,74.414063%,51.367188%);fill-opacity:1;" d="M 319.84375 416.566406 C 328.519531 418.933594 336.324219 422.6875 344.027344 426.625 C 351.691406 430.691406 358.996094 435.070313 366.308594 440.214844 C 361.78125 439.914063 357.472656 438.636719 353.332031 437.148438 C 349.1875 435.640625 345.167969 433.859375 341.304688 431.808594 C 337.429688 429.773438 333.691406 427.492188 330.085938 425 C 326.480469 422.503906 322.992188 419.804688 319.84375 416.566406 "></path> <path style=" stroke:none;fill-rule:nonzero;fill:rgb(1.960754%,36.083984%,11.376953%);fill-opacity:1;" d="M 775.640625 354.664063 C 777.308594 287.78125 763.007813 254.453125 739.539063 212.730469 C 720.066406 178.101563 694.457031 144.445313 650.695313 115.007813 C 575.109375 64.164063 538.734375 65.550781 494.53125 63.335938 C 526.410156 67.476563 589.578125 99.386719 613.652344 121.117188 C 638.722656 143.753906 663.476563 174.796875 679.84375 214.578125 C 693.285156 247.253906 703.011719 283.882813 704.539063 333.941406 C 706.042969 383.25 694.820313 418.84375 671.546875 467.328125 C 651.945313 508.152344 627.933594 539.871094 603.046875 564.863281 C 580.027344 587.984375 571.550781 599.007813 514.632813 627.652344 C 574.765625 622.46875 613.089844 605.230469 648.5625 583.007813 C 684.851563 560.25 713.363281 532.007813 737.359375 492.777344 C 760.992188 454.132813 774.183594 413.03125 775.640625 354.664063 "></path> <path style=" stroke:none;fill-rule:nonzero;fill:rgb(1.960754%,36.083984%,11.376953%);fill-opacity:1;" d="M 500.128906 63 C 514.753906 82.964844 526.515625 104.820313 535.675781 127.972656 C 544.769531 151.113281 550.886719 175.78125 552.203125 201.253906 C 552.878906 213.957031 552.324219 226.890625 550.191406 239.605469 C 548.253906 252.074219 545.539063 264.386719 542.300781 276.5 C 535.890625 300.777344 527.03125 324.085938 518.101563 347.019531 C 499.535156 392.578125 483.136719 438.253906 471.976563 482.222656 C 466.484375 504.308594 463.710938 526.523438 465.375 549.082031 C 466.960938 571.660156 473.5 594.324219 482.949219 617.25 L 480.066406 619.253906 C 461.695313 602.101563 447.472656 579.355469 440.210938 553.800781 C 432.75 528.261719 432.648438 500.765625 436.988281 475.089844 C 441.332031 449.257813 450.539063 425.238281 461.089844 402.648438 C 466.355469 391.316406 471.84375 380.234375 477.296875 369.226563 L 493.226563 336.265625 C 503.65625 314.371094 513.324219 292.394531 521.464844 270.019531 C 525.484375 258.816406 528.996094 247.476563 531.78125 235.980469 C 534.476563 224.738281 535.84375 213.183594 536.167969 201.476563 C 536.835938 178.042969 532.816406 154.296875 526.0625 131.285156 C 519.113281 108.351563 509.609375 85.785156 497.253906 65.023438 "></path> <path style=" stroke:none;fill-rule:nonzero;fill:rgb(1.960754%,36.083984%,11.376953%);fill-opacity:1;" d="M 582.960938 117.421875 C 591.96875 134.808594 598.085938 153.605469 603.074219 172.589844 C 607.894531 191.640625 611.289063 211.101563 613.097656 230.71875 C 616.953125 269.964844 614.886719 309.761719 608.023438 348.609375 C 604.636719 368.050781 599.792969 387.210938 594.121094 406.085938 C 588.136719 424.960938 581.003906 443.207031 573.625 461.304688 L 551.058594 515.285156 C 543.570313 533.265625 536.191406 551.253906 530.445313 569.929688 C 533.503906 550.578125 539.441406 531.785156 545.417969 513.1875 C 551.53125 494.601563 558.199219 476.246094 564.757813 457.90625 C 571.332031 439.582031 577.882813 421.269531 583.320313 402.839844 C 588.78125 384.332031 593.089844 365.507813 596.582031 346.558594 C 603.515625 308.636719 606.152344 269.949219 604.226563 231.375 C 603.199219 212.097656 601.140625 192.828125 597.667969 173.769531 C 594.214844 154.710938 589.691406 135.753906 582.960938 117.421875 "></path> <path style=" stroke:none;fill-rule:nonzero;fill:rgb(1.960754%,36.083984%,11.376953%);fill-opacity:1;" d="M 642.097656 443.160156 C 637.128906 449.164063 631.609375 454.457031 625.886719 459.476563 C 620.191406 464.539063 614.210938 469.230469 608.0625 473.6875 C 601.890625 478.121094 595.539063 482.316406 588.890625 486.078125 C 582.257813 489.835938 575.371094 493.40625 567.867188 495.609375 C 579.0625 484.964844 590.644531 475.433594 602.925781 466.5625 C 609.066406 462.15625 615.324219 457.90625 621.832031 453.980469 C 628.308594 450.011719 634.949219 446.261719 642.097656 443.160156 "></path> <path style=" stroke:none;fill-rule:nonzero;fill:rgb(1.960754%,36.083984%,11.376953%);fill-opacity:1;" d="M 669.210938 331.601563 C 666.296875 336.539063 662.742188 340.792969 658.960938 344.78125 C 655.21875 348.816406 651.136719 352.472656 646.859375 355.894531 C 642.574219 359.300781 638.0625 362.449219 633.214844 365.144531 C 628.410156 367.855469 623.308594 370.308594 617.660156 371.472656 C 621.421875 367.175781 625.1875 363.308594 629.160156 359.613281 C 633.082031 355.875 637.179688 352.382813 641.398438 349.015625 C 645.632813 345.671875 649.988281 342.464844 654.59375 339.535156 C 659.167969 336.5625 663.914063 333.792969 669.210938 331.601563 "></path> <path style=" stroke:none;fill-rule:nonzero;fill:rgb(1.960754%,36.083984%,11.376953%);fill-opacity:1;" d="M 663.410156 242.679688 C 662.449219 246.695313 660.652344 250.101563 658.644531 253.332031 C 656.582031 256.523438 654.207031 259.460938 651.519531 262.117188 C 648.832031 264.765625 645.867188 267.167969 642.558594 269.148438 C 639.222656 271.074219 635.609375 272.746094 631.503906 273.234375 C 633.578125 269.671875 635.769531 266.761719 638.058594 263.90625 C 640.367188 261.089844 642.761719 258.398438 645.34375 255.875 C 647.917969 253.34375 650.628906 250.925781 653.570313 248.679688 C 656.550781 246.460938 659.648438 244.339844 663.410156 242.679688 "></path> <path style=" stroke:none;fill-rule:nonzero;fill:rgb(1.960754%,36.083984%,11.376953%);fill-opacity:1;" d="M 310.308594 704.042969 C 314.867188 704.042969 318.878906 704.972656 322.34375 706.828125 C 325.800781 708.6875 328.503906 711.097656 330.449219 714.050781 C 332.386719 717.003906 333.363281 720.34375 333.363281 724.054688 C 333.363281 728.277344 332.050781 731.996094 329.433594 735.199219 C 326.8125 738.410156 323.3125 740.015625 318.921875 740.015625 C 315.375 740.015625 312.246094 738.875 309.546875 736.597656 C 306.84375 734.316406 305.496094 731.066406 305.496094 726.84375 C 305.496094 723.636719 306.382813 720.886719 308.15625 718.609375 C 309.929688 716.328125 311.910156 714.515625 314.109375 713.160156 C 312.925781 711.476563 311.152344 710.628906 308.789063 710.628906 C 301.695313 710.628906 295.527344 713.289063 290.296875 718.609375 C 285.058594 723.929688 280.960938 730.304688 278.011719 737.734375 C 275.054688 745.167969 273.574219 752.007813 273.574219 758.253906 L 273.574219 811.960938 C 273.574219 820.234375 275.980469 825.765625 280.796875 828.554688 C 285.609375 831.339844 292.152344 832.730469 300.429688 832.730469 L 300.429688 838.054688 C 296.542969 837.886719 291.054688 837.671875 283.960938 837.417969 C 276.867188 837.164063 269.351563 837.039063 261.417969 837.039063 C 255.671875 837.039063 249.972656 837.164063 244.316406 837.417969 C 238.65625 837.671875 234.394531 837.886719 231.523438 838.054688 L 231.523438 832.730469 C 238.445313 832.730469 243.386719 831.464844 246.34375 828.933594 C 249.296875 826.398438 250.777344 821.585938 250.777344 814.492188 L 250.777344 735.199219 C 250.777344 727.601563 249.421875 721.988281 246.722656 718.355469 C 244.019531 714.726563 238.953125 712.910156 231.523438 712.910156 L 231.523438 707.589844 C 236.925781 708.097656 242.164063 708.347656 247.230469 708.347656 C 252.125 708.347656 256.8125 708.054688 261.289063 707.460938 C 265.761719 706.871094 269.859375 705.984375 273.574219 704.804688 L 273.574219 736.46875 C 275.433594 731.570313 278.09375 726.632813 281.554688 721.648438 C 285.015625 716.671875 289.195313 712.488281 294.097656 709.109375 C 298.992188 705.734375 304.394531 704.042969 310.308594 704.042969 "></path> <path style=" stroke:none;fill-rule:nonzero;fill:rgb(1.960754%,36.083984%,11.376953%);fill-opacity:1;" d="M 428.609375 725.070313 L 424.050781 723.296875 C 426.414063 717.554688 430.46875 712.488281 436.210938 708.09375 C 441.949219 703.707031 447.945313 701.507813 454.195313 701.507813 C 458.585938 701.507813 462.132813 702.734375 464.835938 705.179688 C 467.535156 707.632813 468.886719 711.304688 468.886719 716.203125 C 468.886719 721.4375 467.496094 725.109375 464.710938 727.222656 C 461.921875 729.335938 459.09375 730.386719 456.222656 730.386719 C 453.691406 730.386719 451.320313 729.503906 449.128906 727.726563 C 446.933594 725.953125 445.664063 723.128906 445.328125 719.242188 C 444.988281 715.359375 446.171875 710.375 448.875 704.296875 L 452.171875 705.054688 C 445.074219 707.757813 440.011719 710.589844 436.96875 713.542969 C 433.929688 716.5 431.144531 720.339844 428.609375 725.070313 M 392.132813 779.53125 C 398.546875 779.53125 403.570313 777 407.203125 771.933594 C 410.835938 766.867188 412.652344 757.582031 412.652344 744.066406 C 412.652344 730.558594 410.835938 721.269531 407.203125 716.203125 C 403.570313 711.136719 398.546875 708.601563 392.132813 708.601563 C 385.882813 708.601563 380.898438 711.136719 377.183594 716.203125 C 373.46875 721.269531 371.609375 730.558594 371.609375 744.066406 C 371.609375 757.582031 373.46875 766.867188 377.183594 771.933594 C 380.898438 777 385.882813 779.53125 392.132813 779.53125 M 392.132813 784.09375 C 379.632813 784.09375 369.117188 780.886719 360.59375 774.464844 C 352.0625 768.050781 347.796875 757.917969 347.796875 744.066406 C 347.796875 730.050781 352.0625 719.875 360.59375 713.542969 C 369.117188 707.210938 379.632813 704.042969 392.132813 704.042969 C 404.628906 704.042969 415.140625 707.210938 423.671875 713.542969 C 432.195313 719.875 436.464844 730.050781 436.464844 744.066406 C 436.464844 757.917969 432.195313 768.050781 423.671875 774.464844 C 415.140625 780.886719 404.628906 784.09375 392.132813 784.09375 M 390.863281 885.675781 C 381.910156 885.675781 373.46875 884.746094 365.53125 882.890625 C 357.59375 881.03125 351.21875 878.117188 346.40625 874.152344 C 341.59375 870.179688 336.699219 864.625 339.1875 859.078125 C 341.964844 852.882813 353.71875 849.359375 359.746094 847.390625 C 370.371094 843.921875 393.980469 838.472656 402.582031 837.242188 C 402.582031 837.242188 383.882813 842.261719 376.144531 844.726563 C 372.171875 845.992188 358.820313 850.160156 353.800781 858.429688 C 349.765625 865.066406 358.476563 871.023438 365.65625 875.164063 C 372.835938 879.300781 382.164063 881.371094 393.652344 881.371094 C 401.25 881.371094 408.679688 880.398438 415.945313 878.457031 C 423.203125 876.515625 429.199219 873.265625 433.929688 868.703125 C 438.65625 864.144531 441.023438 858.148438 441.023438 850.71875 C 441.023438 845.144531 439.035156 840.542969 435.070313 836.910156 C 431.097656 833.28125 423.289063 831.464844 411.636719 831.464844 L 392.890625 831.464844 C 387.484375 831.464844 382.25 831.046875 377.183594 830.199219 C 372.117188 829.355469 367.980469 827.582031 364.773438 824.878906 C 361.5625 822.179688 359.957031 818.039063 359.957031 812.464844 C 359.957031 806.726563 362.320313 801.191406 367.050781 795.871094 C 371.777344 790.554688 380.476563 785.105469 393.144531 779.53125 L 396.183594 781.8125 C 390.441406 784.851563 385.457031 787.9375 381.238281 791.058594 C 377.015625 794.1875 374.902344 797.859375 374.902344 802.078125 C 374.902344 807.488281 378.957031 810.1875 387.0625 810.1875 L 418.730469 810.1875 C 429.199219 810.1875 438.445313 812.507813 446.46875 817.152344 C 454.488281 821.800781 456.71875 828.589844 456.71875 839.230469 C 456.71875 847.167969 455.691406 853.234375 450.15625 861.5625 C 445.40625 868.710938 438.277344 874.910156 428.230469 879.21875 C 418.179688 883.523438 405.722656 885.675781 390.863281 885.675781 "></path> <path style=" stroke:none;fill-rule:nonzero;fill:rgb(1.960754%,36.083984%,11.376953%);fill-opacity:1;" d="M 520.570313 829.691406 C 525.636719 829.691406 530.613281 828.214844 535.515625 825.257813 C 540.410156 822.304688 544.972656 817.367188 549.195313 810.4375 L 549.195313 760.785156 C 546.660156 764.503906 542.734375 767.460938 537.414063 769.652344 C 532.09375 771.851563 526.605469 774.257813 520.949219 776.875 C 515.289063 779.496094 510.4375 783.039063 506.382813 787.511719 C 502.328125 791.988281 500.300781 798.367188 500.300781 806.640625 C 500.300781 814.410156 502.242188 820.191406 506.128906 823.992188 C 510.011719 827.792969 514.824219 829.691406 520.570313 829.691406 M 509.421875 839.824219 C 498.441406 839.824219 490.464844 837.082031 485.484375 831.59375 C 480.5 826.105469 478.011719 818.796875 478.011719 809.679688 C 478.011719 802.585938 479.738281 796.71875 483.203125 792.074219 C 486.664063 787.429688 491.097656 783.628906 496.503906 780.671875 C 501.90625 777.71875 507.605469 775.1875 513.601563 773.074219 C 519.597656 770.964844 525.296875 768.894531 530.703125 766.867188 C 536.105469 764.839844 540.539063 762.5625 544.003906 760.027344 C 547.460938 757.496094 549.195313 754.289063 549.195313 750.402344 L 549.195313 734.695313 C 549.195313 727.601563 548.136719 722.199219 546.027344 718.480469 C 543.914063 714.769531 541.089844 712.273438 537.542969 711.007813 C 533.996094 709.742188 530.023438 709.109375 525.636719 709.109375 C 521.410156 709.109375 516.894531 709.703125 512.082031 710.882813 C 507.269531 712.066406 503.425781 714.515625 500.558594 718.230469 C 503.761719 718.90625 506.550781 720.597656 508.917969 723.296875 C 511.277344 725.996094 512.464844 729.460938 512.464844 733.679688 C 512.464844 737.90625 511.109375 741.242188 508.410156 743.6875 C 505.707031 746.136719 502.242188 747.359375 498.023438 747.359375 C 493.121094 747.359375 489.535156 745.800781 487.257813 742.675781 C 484.976563 739.550781 483.835938 736.046875 483.835938 732.160156 C 483.835938 727.773438 484.933594 724.222656 487.128906 721.519531 C 489.320313 718.820313 492.109375 716.289063 495.488281 713.921875 C 499.371094 711.222656 504.394531 708.898438 510.5625 706.953125 C 516.726563 705.015625 523.691406 704.042969 531.460938 704.042969 C 538.382813 704.042969 544.296875 704.847656 549.195313 706.449219 C 554.089844 708.054688 558.144531 710.378906 561.355469 713.414063 C 565.746094 717.46875 568.613281 722.40625 569.96875 728.234375 C 571.316406 734.0625 571.996094 741.027344 571.996094 749.132813 L 571.996094 819.558594 C 571.996094 823.613281 572.585938 826.613281 573.765625 828.550781 C 574.945313 830.496094 576.972656 831.464844 579.847656 831.464844 C 582.210938 831.464844 584.28125 830.960938 586.054688 829.945313 C 587.828125 828.933594 589.558594 827.664063 591.246094 826.144531 L 594.035156 830.453125 C 590.488281 833.15625 587.105469 835.390625 583.902344 837.164063 C 580.691406 838.9375 576.382813 839.824219 570.980469 839.824219 C 562.199219 839.824219 556.371094 837.546875 553.5 832.984375 C 550.628906 828.425781 549.195313 823.191406 549.195313 817.277344 C 543.789063 826.234375 537.667969 832.226563 530.828125 835.265625 C 523.988281 838.304688 516.851563 839.824219 509.421875 839.824219 "></path> <path style=" stroke:none;fill-rule:nonzero;fill:rgb(1.960754%,36.083984%,11.376953%);fill-opacity:1;" d="M 686.746094 704.042969 C 693.164063 704.042969 698.527344 704.890625 702.835938 706.574219 C 707.140625 708.265625 710.726563 710.628906 713.601563 713.667969 C 716.804688 717.050781 719.085938 721.269531 720.4375 726.335938 C 721.789063 731.402344 722.46875 738.242188 722.46875 746.855469 L 722.46875 814.492188 C 722.46875 821.585938 723.941406 826.398438 726.898438 828.933594 C 729.851563 831.464844 734.792969 832.730469 741.71875 832.730469 L 741.71875 838.054688 C 738.847656 837.886719 734.457031 837.671875 728.546875 837.417969 C 722.632813 837.164063 716.894531 837.039063 711.320313 837.039063 C 705.746094 837.039063 700.300781 837.164063 694.980469 837.417969 C 689.660156 837.671875 685.644531 837.886719 682.945313 838.054688 L 682.945313 832.730469 C 689.027344 832.730469 693.335938 831.464844 695.867188 828.933594 C 698.398438 826.398438 699.667969 821.585938 699.667969 814.492188 L 699.667969 741.28125 C 699.667969 736.046875 699.242188 731.234375 698.398438 726.84375 C 697.554688 722.453125 695.652344 718.90625 692.699219 716.203125 C 689.742188 713.503906 685.226563 712.148438 679.148438 712.148438 C 668.507813 712.148438 659.933594 716.582031 653.433594 725.449219 C 646.933594 734.316406 643.683594 745.253906 643.683594 758.253906 L 643.683594 814.492188 C 643.683594 821.585938 644.949219 826.398438 647.480469 828.933594 C 650.015625 831.464844 654.320313 832.730469 660.402344 832.730469 L 660.402344 838.054688 C 657.699219 837.886719 653.6875 837.671875 648.367188 837.417969 C 643.050781 837.164063 637.601563 837.039063 632.027344 837.039063 C 626.453125 837.039063 620.714844 837.164063 614.804688 837.417969 C 608.890625 837.671875 604.5 837.886719 601.628906 838.054688 L 601.628906 832.730469 C 608.554688 832.730469 613.492188 831.464844 616.449219 828.933594 C 619.402344 826.398438 620.882813 821.585938 620.882813 814.492188 L 620.882813 735.199219 C 620.882813 727.601563 619.527344 721.988281 616.828125 718.355469 C 614.128906 714.726563 609.058594 712.910156 601.628906 712.910156 L 601.628906 707.589844 C 607.03125 708.097656 612.269531 708.347656 617.335938 708.347656 C 622.230469 708.347656 626.917969 708.054688 631.394531 707.460938 C 635.867188 706.871094 639.964844 705.984375 643.683594 704.804688 L 643.683594 734.695313 C 648.070313 723.210938 654.195313 715.230469 662.050781 710.757813 C 669.898438 706.28125 678.136719 704.042969 686.746094 704.042969 "></path> <path style=" stroke:none;fill-rule:nonzero;fill:rgb(1.960754%,36.083984%,11.376953%);fill-opacity:1;" d="M 781.742188 644.257813 C 786.132813 644.257813 789.929688 645.863281 793.140625 649.070313 C 796.347656 652.28125 797.953125 656.082031 797.953125 660.472656 C 797.953125 664.863281 796.347656 668.664063 793.140625 671.871094 C 789.929688 675.078125 786.132813 676.683594 781.742188 676.683594 C 777.347656 676.683594 773.546875 675.078125 770.34375 671.871094 C 767.132813 668.664063 765.527344 664.863281 765.527344 660.472656 C 765.527344 656.082031 767.132813 652.28125 770.34375 649.070313 C 773.546875 645.863281 777.347656 644.257813 781.742188 644.257813 M 794.914063 704.804688 L 794.914063 814.492188 C 794.914063 821.585938 796.390625 826.398438 799.347656 828.933594 C 802.300781 831.464844 807.238281 832.734375 814.167969 832.734375 L 814.167969 838.054688 C 811.292969 837.886719 806.945313 837.671875 801.121094 837.417969 C 795.296875 837.164063 789.425781 837.039063 783.515625 837.039063 C 777.769531 837.039063 771.945313 837.164063 766.035156 837.417969 C 760.121094 837.671875 755.730469 837.886719 752.863281 838.054688 L 752.863281 832.734375 C 759.785156 832.734375 764.726563 831.464844 767.679688 828.933594 C 770.636719 826.398438 772.113281 821.585938 772.113281 814.492188 L 772.113281 735.199219 C 772.113281 727.601563 770.761719 721.988281 768.0625 718.355469 C 765.359375 714.726563 760.289063 712.910156 752.863281 712.910156 L 752.863281 707.589844 C 758.265625 708.097656 763.503906 708.347656 768.566406 708.347656 C 773.464844 708.347656 778.152344 708.054688 782.628906 707.460938 C 787.101563 706.871094 791.195313 705.988281 794.914063 704.804688 "></path> <path style=" stroke:none;fill-rule:nonzero;fill:rgb(1.960754%,36.083984%,11.376953%);fill-opacity:1;" d="M 890.417969 704.042969 C 895.820313 704.042969 901.058594 704.71875 906.125 706.066406 C 911.191406 707.421875 915.75 709.449219 919.804688 712.148438 C 923.6875 714.683594 926.644531 717.59375 928.671875 720.886719 C 930.699219 724.183594 931.710938 727.773438 931.710938 731.65625 C 931.710938 736.214844 930.445313 739.722656 927.910156 742.167969 C 925.378906 744.617188 922.167969 745.839844 918.285156 745.839844 C 914.566406 745.839844 911.316406 744.742188 908.53125 742.546875 C 905.746094 740.355469 904.351563 737.226563 904.351563 733.175781 C 904.351563 729.289063 905.402344 726.167969 907.519531 723.800781 C 909.628906 721.4375 912.117188 719.917969 914.992188 719.242188 C 913.300781 716.203125 910.304688 713.667969 905.996094 711.640625 C 901.691406 709.617188 897.089844 708.601563 892.191406 708.601563 C 887.96875 708.601563 883.746094 709.617188 879.523438 711.640625 C 875.300781 713.667969 871.417969 717.003906 867.871094 721.648438 C 864.328125 726.296875 861.453125 732.628906 859.261719 740.648438 C 857.0625 748.671875 855.964844 758.679688 855.964844 770.667969 C 855.964844 785.53125 857.652344 797.355469 861.03125 806.132813 C 864.410156 814.914063 868.84375 821.207031 874.332031 825.007813 C 879.816406 828.804688 885.859375 830.707031 892.445313 830.707031 C 899.03125 830.707031 905.699219 828.765625 912.457031 824.878906 C 919.210938 820.996094 924.785156 814.238281 929.179688 804.613281 L 933.992188 806.386719 C 932.300781 811.792969 929.515625 817.238281 925.632813 822.726563 C 921.742188 828.214844 916.679688 832.730469 910.433594 836.277344 C 904.183594 839.824219 896.5 841.597656 887.378906 841.597656 C 876.90625 841.597656 867.449219 838.894531 859.007813 833.492188 C 850.558594 828.089844 843.847656 820.363281 838.867188 810.3125 C 833.882813 800.265625 831.394531 788.316406 831.394531 774.46875 C 831.394531 760.621094 833.882813 748.417969 838.867188 737.859375 C 843.847656 727.308594 850.8125 719.03125 859.765625 713.035156 C 868.714844 707.042969 878.933594 704.042969 890.417969 704.042969 "></path> <path style=" stroke:none;fill-rule:nonzero;fill:rgb(1.960754%,36.083984%,11.376953%);fill-opacity:1;" d="M 434.714844 839.230469 C 430.5 844.9375 424.761719 849.433594 418.644531 853.085938 C 412.488281 856.746094 405.734375 859.382813 398.78125 861.121094 C 395.304688 862.003906 391.761719 862.570313 388.214844 863.007813 C 384.621094 863.371094 381.089844 863.480469 377.570313 863.515625 C 370.527344 863.632813 363.570313 863.1875 356.539063 863.527344 C 359.902344 862.390625 363.433594 861.859375 366.921875 861.351563 L 372.167969 860.722656 L 377.402344 860.214844 C 380.882813 859.894531 384.351563 859.589844 387.722656 859.113281 C 391.128906 858.664063 394.488281 857.96875 397.820313 857.191406 C 404.488281 855.605469 410.972656 853.308594 417.183594 850.355469 C 423.367188 847.355469 429.34375 843.785156 434.714844 839.230469 "></path> <path style=" stroke:none;fill-rule:nonzero;fill:rgb(1.960754%,36.083984%,11.376953%);fill-opacity:1;" d="M 431.609375 864.839844 C 430.109375 864.863281 428.734375 864.589844 427.390625 864.242188 C 426.054688 863.878906 424.773438 863.398438 423.53125 862.820313 C 422.292969 862.238281 421.101563 861.550781 419.96875 860.742188 C 418.851563 859.914063 417.742188 859.003906 416.898438 857.746094 C 418.386719 857.894531 419.714844 858.199219 421.035156 858.589844 C 422.34375 858.984375 423.609375 859.472656 424.832031 860.054688 C 426.058594 860.632813 427.246094 861.296875 428.386719 862.066406 C 429.519531 862.851563 430.628906 863.699219 431.609375 864.839844 "></path> <path style=" stroke:none;fill-rule:nonzero;fill:rgb(1.960754%,36.083984%,11.376953%);fill-opacity:1;" d="M 409.984375 870.207031 C 408.828125 870.355469 407.804688 870.199219 406.816406 869.972656 C 405.835938 869.726563 404.910156 869.363281 404.039063 868.894531 C 403.164063 868.429688 402.339844 867.855469 401.59375 867.152344 C 400.859375 866.441406 400.152344 865.636719 399.738281 864.53125 C 400.898438 864.59375 401.863281 864.800781 402.8125 865.082031 C 403.746094 865.371094 404.636719 865.746094 405.484375 866.203125 C 406.332031 866.660156 407.136719 867.199219 407.902344 867.835938 C 408.65625 868.492188 409.382813 869.210938 409.984375 870.207031 "></path> <path style=" stroke:none;fill-rule:nonzero;fill:rgb(1.960754%,36.083984%,11.376953%);fill-opacity:1;" d="M 387.171875 871.347656 C 386.289063 871.617188 385.539063 871.574219 384.824219 871.449219 C 384.121094 871.3125 383.476563 871.050781 382.886719 870.683594 C 382.300781 870.3125 381.773438 869.839844 381.34375 869.242188 C 380.925781 868.636719 380.5625 867.929688 380.519531 867.007813 C 381.441406 867 382.117188 867.125 382.765625 867.304688 C 383.402344 867.496094 383.984375 867.753906 384.519531 868.097656 C 385.054688 868.4375 385.550781 868.851563 386.003906 869.363281 C 386.445313 869.894531 386.863281 870.480469 387.171875 871.347656 "></path> <path style=" stroke:none;fill-rule:nonzero;fill:rgb(1.960754%,36.083984%,11.376953%);fill-opacity:1;" d="M 134.308594 662.085938 C 123.199219 662.085938 113.550781 665.929688 105.347656 673.621094 C 97.148438 681.3125 90.773438 691.910156 86.25 705.410156 C 81.722656 718.90625 79.460938 734.546875 79.460938 752.316406 C 79.460938 770.433594 81.976563 786.199219 87.019531 799.613281 C 92.058594 813.027344 98.894531 823.367188 107.523438 830.621094 C 116.152344 837.890625 125.683594 841.519531 136.105469 841.519531 C 147.210938 841.519531 156.871094 837.675781 165.070313 829.984375 C 173.277344 822.292969 179.644531 811.660156 184.171875 798.070313 C 188.695313 784.484375 190.960938 768.894531 190.960938 751.289063 C 190.960938 733.007813 188.4375 717.199219 183.402344 703.867188 C 178.359375 690.539063 171.5625 680.246094 163.023438 672.984375 C 154.472656 665.722656 144.90625 662.085938 134.308594 662.085938 M 135.335938 657.476563 C 151.574219 657.476563 165.800781 661.148438 178.019531 668.496094 C 190.234375 675.84375 199.714844 686.398438 206.472656 700.152344 C 213.21875 713.910156 216.597656 730.613281 216.597656 750.265625 C 216.597656 769.40625 213.136719 786.148438 206.214844 800.507813 C 199.292969 814.863281 189.679688 826.058594 177.375 834.085938 C 165.070313 842.121094 150.976563 846.132813 135.078125 846.132813 C 118.84375 846.132813 104.617188 842.460938 92.402344 835.109375 C 80.183594 827.765625 70.703125 817.167969 63.953125 803.324219 C 57.199219 789.484375 53.828125 772.824219 53.828125 753.34375 C 53.828125 734.207031 57.324219 717.457031 64.332031 703.101563 C 71.339844 688.742188 80.953125 677.554688 93.171875 669.523438 C 105.386719 661.488281 119.445313 657.476563 135.335938 657.476563 "></path> </g> </svg> 